<?xml version="1.0" standalone="no"?>
<!DOCTYPE svg PUBLIC "-//W3C//DTD SVG 1.1//EN" "http://www.w3.org/Graphics/SVG/1.1/DTD/svg11.dtd" >
<svg>
<metadata>
Created by FontForge 20130207 at Fri May  3 22:24:09 2013
 By Trung Le Vu Tran
Copyright (c) 2009 by TypeTogether. All rights reserved.
</metadata>
<defs>
<font id="Adelle-LightItalic" horiz-adv-x="570" >
  <font-face 
    font-family="Adelle Lt"
    font-weight="300"
    font-style="italic"
    font-stretch="normal"
    units-per-em="1000"
    panose-1="2 0 5 3 0 0 0 9 0 4"
    ascent="755"
    descent="-245"
    x-height="511"
    cap-height="724"
    bbox="-159 -290 1236 968"
    underline-thickness="50"
    underline-position="-50"
    unicode-range="U+0020-FB06"
  />
<missing-glyph horiz-adv-x="500" 
 />
    <glyph glyph-name="ff" unicode="ff" horiz-adv-x="709" 
d="M472 455h-263l-95 -667h-66l94 657q2 10 -7 10h-72l8 56h80l13 87q22 153 163 153q89 0 139 -47l-32 -48q-53 38 -103 38q-51 0 -73 -27t-31 -85l-9 -61q-1 -10 7 -10h263l14 102q22 153 163 153q89 0 139 -47l-32 -48q-53 38 -103 38q-49 1 -73 -27t-31 -85l-10 -76
q-1 -10 7 -10h163l-8 -56h-171l-95 -667h-66l94 657q2 10 -7 10z" />
    <glyph glyph-name="fi" unicode="fi" horiz-adv-x="622" 
d="M467 455h-258l-95 -667h-66l94 657q2 10 -7 10h-72l8 56h80l14 102q22 153 192 153q99 0 180 -54l-31 -49q-77 46 -150 46q-114 0 -128 -112l-10 -76q-1 -10 7 -10h329l-63 -444q-1 -11 1 -15t13 -5l64 -8l-6 -39h-150l-2 4l20 106l47 330q3 15 -11 15z" />
    <glyph glyph-name="fl" unicode="fl" horiz-adv-x="625" 
d="M356 709q-114 0 -128 -112l-10 -76q-1 -10 7 -10h145l-8 -56h-153l-95 -667h-66l94 657q2 10 -7 10h-72l8 56h80l14 102q22 153 192 153q84 0 163 -44l53 33h15l-97 -688q-1 -11 1 -15t13 -5l64 -8l-6 -39h-150l-2 4l20 106l77 552q-80 47 -152 47z" />
    <glyph glyph-name="ffi" unicode="ffi" horiz-adv-x="959" 
d="M472 455h-263l-95 -667h-66l94 657q2 10 -7 10h-72l8 56h80l13 87q22 153 163 153q89 0 139 -47l-32 -48q-53 38 -103 38q-51 0 -73 -27t-31 -85l-9 -61q-1 -10 7 -10h263l14 102q22 153 192 153q99 0 180 -54l-31 -49q-77 46 -150 46q-114 0 -128 -112l-10 -76
q-1 -10 7 -10h329l-63 -444q-2 -11 0 -15t14 -5l64 -8l-6 -39h-150l-2 4l20 106l47 330q3 15 -11 15h-258l-95 -667h-66l94 657q2 10 -7 10z" />
    <glyph glyph-name="ffl" unicode="ffl" horiz-adv-x="963" 
d="M473 455h-264l-95 -667h-66l94 657q2 10 -7 10h-72l8 56h80l13 87q22 153 163 153q89 0 139 -47l-32 -48q-53 38 -103 38q-51 0 -73 -27t-31 -85l-9 -61q-1 -10 8 -10h263l14 102q22 153 192 153q84 0 163 -44l53 33h15l-97 -688q-1 -11 1 -15t13 -5l64 -8l-6 -39h-150
l-2 4l20 106l77 552q-80 47 -152 47q-114 0 -128 -112l-10 -76q-1 -10 7 -10h145l-8 -56h-153l-95 -667h-66l94 657q2 10 -7 10z" />
    <glyph glyph-name="fk" unicode="fk" horiz-adv-x="905" 
d="M356 709q-114 0 -128 -112l-10 -76q-1 -10 7 -10h145l-8 -56h-153l-95 -667h-66l94 657q2 10 -7 10h-72l8 56h80l14 102q22 153 192 153q86 0 163 -44l51 33h17l-71 -497l224 217q48 46 105 46q17 0 38 -3l-6 -49q-30 1 -54 -9t-56 -40l-96 -93l108 -262q7 -13 27 -16
l58 -10l-6 -39h-123l-3 3l-36 96l-77 179l-115 -109l-14 -102q-2 -11 0 -15t13 -5l69 -8l-6 -39h-217l6 40l51 7q15 3 18 21l84 593q-81 48 -153 48z" />
    <glyph glyph-name="fb" unicode="fb" horiz-adv-x="918" 
d="M816 321q0 138 -87 138q-76 0 -200 -124l-31 -215q62 -76 138 -76q48 0 84 26t66 92q30 64 30 159zM540 414q124 107 188 107q34 0 54 -5q101 -27 101 -185t-70 -250q-70 -93 -167 -93q-96 0 -160 67l-2 -1l-12 -54h-66q21 78 30 142l74 519q-84 48 -154 48
q-114 0 -128 -112l-10 -76q-1 -10 7 -10h145l-8 -56h-153l-95 -667h-66l94 657q2 10 -7 10h-72l8 56h80l14 102q22 153 192 153q81 0 162 -43l52 32h17z" />
    <glyph glyph-name="fh" unicode="fh" horiz-adv-x="952" 
d="M803 393q0 66 -59 66q-46 0 -96 -32t-120 -95l-36 -265q-2 -11 0 -15t14 -5l67 -8l-6 -39h-217l6 40l50 7q12 1 15 5t5 15l83 594q-81 48 -153 48q-114 0 -128 -112l-10 -76q-1 -10 7 -10h145l-8 -56h-153l-95 -667h-66l94 657q2 10 -7 10h-72l8 56h80l14 102
q22 153 192 153q83 0 162 -43l51 32h18l-50 -348q70 59 118 87t101 27q114 0 114 -119q0 -29 -5 -62l-39 -273q-1 -11 1 -15t13 -5l58 -8l-6 -39h-144l-2 3l19 100l31 217q6 39 6 73z" />
    <glyph glyph-name="ft" unicode="ft" horiz-adv-x="727" 
d="M499 100q0 -54 62 -54q40 0 98 22l15 -52q-61 -28 -130 -28q-114 0 -114 97q0 9 2 27l46 333q2 10 -9 10h-260l-95 -667h-66l94 657q2 10 -7 10h-72l8 56h80l14 102q22 153 192 153q99 0 180 -54l-31 -49q-78 46 -144 46q-66 1 -96 -27t-38 -85l-10 -76q-1 -10 7 -10h263
l14 94h65l-12 -84q-1 -10 6 -10h146l-8 -56h-154l-43 -318q-3 -21 -3 -37z" />
    <glyph glyph-name="fj" unicode="fj" horiz-adv-x="612" 
d="M318 -166q46 0 64 26t26 85l70 494q2 16 -10 16h-259l-95 -667h-66l94 657q2 10 -7 10h-72l8 56h80l14 102q22 153 192 153q99 0 180 -54l-31 -49q-77 46 -150 46q-114 0 -128 -112l-10 -76q-1 -10 7 -10h329l-81 -581q-21 -153 -134 -153q-95 0 -136 41l32 47
q37 -31 83 -31z" />
    <glyph glyph-name="ffj" unicode="ffj" horiz-adv-x="948" 
d="M471 455h-262l-95 -667h-66l94 657q2 10 -7 10h-72l8 56h80l13 87q22 153 163 153q89 0 139 -47l-32 -48q-53 38 -103 38q-51 0 -73 -27t-31 -85l-9 -61q-1 -10 7 -10h262l14 102q22 153 192 153q99 0 180 -54l-31 -49q-77 46 -150 46q-114 0 -128 -112l-10 -76
q-1 -10 7 -10h329l-81 -581q-21 -153 -134 -153q-95 0 -136 41l32 47q37 -31 83 -31t64 26t26 85l70 494q2 16 -10 16h-259l-95 -667h-66l94 657q2 10 -7 10z" />
    <glyph glyph-name="ffk" unicode="ffk" horiz-adv-x="1242" 
d="M472 455h-263l-95 -667h-66l94 657q2 10 -7 10h-72l8 56h80l13 87q22 153 163 153q89 0 139 -47l-32 -48q-53 38 -103 38q-51 0 -73 -27t-31 -85l-9 -61q-1 -10 8 -10h262l14 102q22 153 192 153q86 0 163 -44l51 33h17l-71 -497l224 217q48 46 105 46q17 0 38 -3l-6 -49
q-31 1 -55 -9t-55 -40l-96 -93l108 -262q5 -16 27 -16l58 -10l-6 -39h-123l-3 3l-36 96l-77 179l-115 -109l-14 -102q-2 -11 0 -15t13 -5l69 -8l-6 -39h-217l6 40l51 7q14 1 17 20l85 594q-81 48 -153 48q-114 0 -128 -112l-10 -76q-1 -10 7 -10h145l-8 -56h-153l-95 -667
h-66l94 657q2 10 -7 10z" />
    <glyph glyph-name="ffb" unicode="ffb" horiz-adv-x="1255" 
d="M1153 321q0 138 -87 138q-76 0 -200 -124l-31 -215q62 -76 138 -76q47 0 83 26t67 92q30 64 30 159zM877 414q125 107 189 107q34 0 53 -5q101 -27 101 -185t-70 -250q-70 -93 -167 -93q-96 0 -160 67l-2 -1l-12 -54h-66q21 78 30 142l74 519q-84 48 -154 48
q-114 0 -128 -112l-10 -76q-1 -10 7 -10h145l-8 -56h-153l-95 -667h-66l94 657q2 10 -7 10h-263l-95 -667h-66l94 657q2 10 -7 10h-72l8 56h80l13 87q22 153 163 153q89 0 139 -47l-32 -48q-53 38 -103 38q-51 0 -73 -27t-31 -85l-9 -61q-2 -10 8 -10h262l14 102
q22 153 192 153q81 0 162 -43l52 32h17z" />
    <glyph glyph-name="ffh" unicode="ffh" horiz-adv-x="1289" 
d="M472 455h-263l-95 -667h-66l94 657q2 10 -7 10h-72l8 56h80l13 87q22 153 163 153q89 0 139 -47l-32 -48q-53 38 -103 38q-51 0 -73 -27t-31 -85l-9 -61q-1 -10 7 -10h263l14 102q22 153 192 153q83 0 162 -43l51 32h18l-50 -348q50 42 76 61q73 53 143 53
q114 0 114 -119q0 -29 -5 -62l-39 -273q-2 -11 0 -15t14 -5l58 -8l-6 -39h-144l-2 3l19 100l31 217q6 39 6 78q0 61 -59 61q-47 0 -97 -32t-119 -95l-36 -265q-1 -11 1 -15t13 -5l67 -8l-6 -39h-217l6 40l50 7q15 2 19 20l84 594q-81 48 -153 48q-114 0 -128 -112l-10 -76
q-1 -10 7 -10h145l-8 -56h-153l-95 -667h-66l94 657q2 10 -7 10z" />
    <glyph glyph-name="fft" unicode="fft" horiz-adv-x="1067" 
d="M836 100q0 -54 62 -54q40 0 98 22l15 -52q-61 -28 -130 -28q-114 0 -114 97q0 9 2 27l46 333q2 10 -9 10h-260l-95 -667h-66l94 657q2 10 -7 10h-263l-95 -667h-66l94 657q2 10 -7 10h-72l8 56h80l13 87q22 153 163 153q89 0 139 -47l-32 -48q-53 38 -103 38
q-51 0 -73 -27t-31 -85l-9 -61q-1 -10 7 -10h263l14 102q22 153 192 153q99 0 180 -54l-31 -49q-77 46 -143 46q-66 1 -98 -27q-30 -28 -37 -85l-10 -76q-1 -7 1 -9t10 -1h259l14 94h65l-12 -84q-1 -10 6 -10h146l-8 -56h-154l-43 -318q-3 -21 -3 -37z" />
    <glyph glyph-name="f_iacute" unicode="f&#xed;" horiz-adv-x="622" 
d="M666 708l-195 -139l-27 32l177 160zM135 455h-72l8 56h80l14 102q22 153 163 153q89 0 139 -47l-32 -48q-53 38 -103 38q-50 1 -74 -27t-30 -85l-10 -76q-2 -10 9 -10h327l-63 -444q-1 -11 1 -15t13 -5l64 -8l-6 -39h-150l-2 4l20 106l47 330q2 15 -9 15h-260l-95 -667
h-66l94 657q2 10 -7 10z" />
    <glyph glyph-name="tt" unicode="tt" horiz-adv-x="703" 
d="M520 -10q-114 0 -114 97q0 9 2 27l46 331q2 10 -6 10h-239l-43 -318q-3 -21 -3 -43q0 -48 62 -48q40 0 98 22l15 -52q-61 -28 -130 -28q-114 0 -114 97q0 9 2 27l46 331q2 10 -6 10h-73l7 48q50 7 76 35t44 99h45l-16 -114q-2 -10 6 -10h161q49 1 74 31t42 95h45
l-16 -114q-2 -10 6 -10h146l-8 -56h-154l-43 -318q-3 -21 -3 -43q0 -48 62 -48q40 0 98 22l15 -52q-61 -28 -130 -28z" />
    <glyph glyph-name=".notdef" horiz-adv-x="500" 
 />
    <glyph glyph-name=".null" horiz-adv-x="0" 
 />
    <glyph glyph-name="nonmarkingreturn" horiz-adv-x="333" 
 />
    <glyph glyph-name="space" unicode=" " horiz-adv-x="230" 
 />
    <glyph glyph-name="exclam" unicode="!" horiz-adv-x="256" 
d="M169 55q0 -67 -67 -67q-51 0 -51 47q0 67 67 67q51 0 51 -47zM157 183h-55l41 379l23 162h77l-23 -162z" />
    <glyph glyph-name="quotedbl" unicode="&#x22;" horiz-adv-x="356" 
d="M158 447h-72l37 259h72zM316 447h-72l37 259h72z" />
    <glyph glyph-name="numbersign" unicode="#" horiz-adv-x="607" 
d="M357 198l46 162h-133l-48 -162h135zM517 146h-116l-42 -146h-59l42 146h-135l-42 -146h-59l41 146h-121l20 52h117l48 162h-121l20 53h117l37 130h60l-38 -130h133l37 130h60l-38 -130h121l-19 -53h-118l-46 -162h119z" />
    <glyph glyph-name="dollar" unicode="$" horiz-adv-x="511" 
d="M376 172q0 66 -85 99l-29 -213q114 15 114 114zM160 457q0 -42 23 -65t65 -40l29 213q-55 -7 -86 -37t-31 -71zM442 185q0 -79 -49 -126t-139 -57l-11 -82h-53l10 80q-117 2 -185 39l19 133h48l10 -80q2 -10 4 -14t28 -12q24 -8 84 -10l31 234q-111 38 -135 90
q-12 26 -11 61q0 83 54 129t138 54l11 73h54l-10 -71q78 -3 152 -33l-19 -147l-48 5l-5 82q-2 33 -88 35l-32 -235q108 -39 131 -91q11 -24 11 -57z" />
    <glyph glyph-name="percent" unicode="%" horiz-adv-x="856" 
d="M618 41q115 0 115 162q0 95 -77 95q-62 0 -90 -47t-27 -109q0 -101 79 -101zM663 351q136 0 136 -146q1 -97 -49 -157t-130 -60q-146 0 -146 147q0 95 50 155t139 61zM221 310q115 0 115 162q0 95 -77 95q-61 0 -89 -47t-28 -109q0 -101 79 -101zM236 -17h-66l466 638h65
zM266 620q136 0 136 -146q0 -97 -50 -157t-129 -60q-146 0 -146 147q0 96 50 156t139 60z" />
    <glyph glyph-name="ampersand" unicode="&#x26;" horiz-adv-x="679" 
d="M151 169q0 -71 43 -97q42 -26 124 -26t137 24q16 6 17 21l39 275l8 5h115l-7 -45l-41 -4q-17 -1 -18 -14l-37 -264q-82 -56 -220 -56q-235 0 -235 169q0 69 40 119t114 71q-91 35 -91 127t63 144q63 54 167 54q53 0 105 -14t77 -31l-20 -126l-50 3l-4 74q0 34 -104 34
q-163 0 -163 -129q0 -51 34 -80t92 -29h62l-8 -58q-239 0 -239 -147z" />
    <glyph glyph-name="quotesingle" unicode="'" horiz-adv-x="198" 
d="M158 447h-72l37 259h72z" />
    <glyph glyph-name="parenleft" unicode="(" horiz-adv-x="296" 
d="M134 197q0 -138 77 -320l-57 -29q-88 174 -88 355q0 253 220 520l46 -32q-106 -143 -152 -249t-46 -245z" />
    <glyph glyph-name="parenright" unicode=")" horiz-adv-x="291" 
d="M170 374q0 138 -77 320l57 29q88 -174 88 -355q0 -253 -220 -520l-46 32q106 144 152 250t46 244z" />
    <glyph glyph-name="asterisk" unicode="*" horiz-adv-x="469" 
d="M403 439l-50 -37l-34 47l-42 89l-69 -89l-48 -49l-45 42l47 47l88 69l-101 20l-57 22l30 59l57 -21l84 -50v104l9 63h63l-9 -63l-30 -104l99 50l62 21l14 -59l-63 -22l-106 -21l67 -70zM302 557l-6 31h-33l-13 -30l27 -20z" />
    <glyph glyph-name="plus" unicode="+" 
d="M303 131h-69l22 157h-152l9 66h152l22 154h69l-22 -154h152l-9 -66h-152z" />
    <glyph glyph-name="comma" unicode="," horiz-adv-x="188" 
d="M138 52q0 -25 -21 -58l-75 -111l-37 15l46 104q3 7 -4 10l-30 14l32 73q45 -3 67 -13t22 -34z" />
    <glyph glyph-name="hyphen" unicode="-" horiz-adv-x="311" 
d="M294 255h-271l11 74h271z" />
    <glyph glyph-name="period" unicode="." horiz-adv-x="208" 
d="M28 32q0 70 67 70q51 0 51 -45q0 -29 -18 -49t-49 -20q-51 0 -51 44z" />
    <glyph glyph-name="slash" unicode="/" horiz-adv-x="362" 
d="M35 -92h-63l387 823h63z" />
    <glyph glyph-name="zero" unicode="0" horiz-adv-x="541" 
d="M245 44q165 0 196 240q6 44 6 81q0 157 -130 157q-91 0 -137 -62q-68 -90 -67 -253q0 -163 132 -163zM326 581q188 0 188 -210q0 -178 -76 -291q-62 -92 -197 -92q-195 0 -195 211q0 181 82 292q66 90 198 90z" />
    <glyph glyph-name="one" unicode="1" horiz-adv-x="345" 
d="M286 0h-284l6 42l103 7q9 1 11 5t5 15l58 418q2 18 -12 21l-91 17l7 41h172l-69 -497q-2 -11 0 -15t14 -5l86 -8z" />
    <glyph glyph-name="two" unicode="2" horiz-adv-x="472" 
d="M372 438q0 86 -113 86q-69 0 -99 -22t-37 -88l-63 9q10 101 70 129q60 29 138 29q169 0 169 -139q1 -53 -19 -85q-20 -31 -30 -47t-36 -40q-24 -24 -36 -35t-44 -37q-30 -26 -40 -34l-127 -108h229q14 0 17 11l28 87h49l-22 -154h-396l7 50l174 153q13 12 40 35t37 32
q10 10 30 28t26 28q31 39 40 61q8 22 8 51z" />
    <glyph glyph-name="three" unicode="3" horiz-adv-x="467" 
d="M410 122q0 -91 -60 -148t-169 -57q-65 1 -117 25t-77 60l47 45q54 -69 136 -69q170 0 171 142q0 112 -134 112q-29 0 -68 -6l7 57l62 6q78 7 119 46t41 98q0 91 -105 91q-69 0 -99 -22t-38 -88l-64 8q13 159 207 159q168 0 168 -139q0 -62 -35 -108t-101 -69v-4
q109 -27 109 -139z" />
    <glyph glyph-name="four" unicode="4" horiz-adv-x="482" 
d="M344 -67h-65l21 151h-280l8 53l289 433l48 -32l-261 -395h205l27 209l67 9l-30 -218h89l-8 -59h-91z" />
    <glyph glyph-name="five" unicode="5" horiz-adv-x="485" 
d="M275 333q74 0 119 -45t45 -139t-67 -163q-66 -69 -190 -69t-190 84l48 45q60 -70 142 -70t135 45t53 121q0 134 -115 134q-63 0 -136 -50l-50 24l64 316h332l-7 -58h-274l-46 -214q63 39 137 39z" />
    <glyph glyph-name="six" unicode="6" horiz-adv-x="525" 
d="M137 217q0 -174 119 -174q72 0 112 49t40 138q0 114 -98 114q-82 0 -171 -77q-2 -30 -2 -50zM368 585q-54 0 -90 -18q-61 -31 -93 -100q-33 -69 -42 -134q87 69 173 69q162 0 161 -163q1 -113 -59 -182t-169 -69q-181 0 -181 247q0 125 58 255q30 68 90 111q60 44 148 44
t148 -60l-41 -48q-49 48 -103 48z" />
    <glyph glyph-name="seven" unicode="7" horiz-adv-x="485" 
d="M156 508q-14 0 -17 -11l-30 -93l-45 -3l21 165h419l-7 -50q-97 -88 -191 -262t-119 -321h-71q40 184 123 330t176 245h-259z" />
    <glyph glyph-name="eight" unicode="8" horiz-adv-x="483" 
d="M401 513q0 75 -103 75q-52 0 -88 -27t-36 -73t28 -72t92 -61q107 83 107 158zM101 142q0 -46 33 -72t94 -25q62 1 104 37t42 88t-34 83t-104 65q-135 -88 -135 -176zM442 180q0 -90 -65 -140q-65 -52 -157 -52t-140 38t-48 104q0 68 40 118t112 98q-79 48 -79 127t60 125
t140 47q81 1 123 -35t42 -92q0 -98 -124 -189q96 -59 96 -149z" />
    <glyph glyph-name="nine" unicode="9" horiz-adv-x="515" 
d="M403 352q0 174 -119 174q-70 0 -111 -51t-41 -140q0 -117 98 -117q89 0 171 77q2 14 2 57zM182 -23q56 1 91 19q104 55 126 233q-83 -69 -171 -69q-164 0 -165 166q0 114 60 184t169 71q180 0 180 -247q0 -184 -80 -310q-28 -46 -80 -76q-52 -31 -108 -31q-116 0 -177 67
l41 48q58 -55 114 -55z" />
    <glyph glyph-name="colon" unicode=":" horiz-adv-x="210" 
d="M30 32q0 70 67 70q51 0 51 -45q0 -29 -18 -49t-49 -20q-51 0 -51 44zM85 426q0 70 67 70q51 0 51 -45q1 -29 -17 -49t-50 -20q-51 0 -51 44z" />
    <glyph glyph-name="semicolon" unicode=";" horiz-adv-x="188" 
d="M81 426q0 70 67 70q51 0 51 -45q1 -29 -17 -49t-50 -20q-51 0 -51 44zM138 52q0 -25 -21 -58l-75 -111l-37 15l46 104q3 7 -4 10l-30 14l32 73q45 -3 67 -13t22 -34z" />
    <glyph glyph-name="less" unicode="&#x3c;" 
d="M463 98l-352 148l12 84l387 159l15 -64l-344 -136l311 -130z" />
    <glyph glyph-name="equal" unicode="=" 
d="M485 323h-369l10 69h369zM464 171h-369l9 69h369z" />
    <glyph glyph-name="greater" unicode="&#x3e;" 
d="M473 246l-394 -148l-8 65l347 130l-306 136l30 60l343 -159z" />
    <glyph glyph-name="question" unicode="?" horiz-adv-x="457" 
d="M223 55q0 -67 -67 -67q-51 0 -51 47q0 67 67 67q51 0 51 -47zM414 556q0 112 -130 112q-62 0 -94 -12q-8 -3 -14 -18l-22 -66l-51 -3l17 123q80 32 170 32q193 0 193 -165q0 -205 -249 -250l-17 -127h-67l24 175q175 21 221 111q19 38 19 88z" />
    <glyph glyph-name="at" unicode="@" horiz-adv-x="824" 
d="M454 343q-50 1 -106 -71t-56 -161q0 -30 8 -45t35 -15q27 1 67 25t69 54l58 195q-25 18 -75 18zM224 85q0 97 45 171q86 141 210 141q69 0 127 -32l-62 -203q-19 -57 -19 -82q0 -40 54 -40q53 0 97 76t44 177q0 219 -243 219q-157 0 -261 -113t-104 -277q0 -239 262 -239
q88 0 176 31l10 -53q-78 -35 -214 -35t-220 72t-83 210q0 138 61 242q62 104 164 160q102 58 230 58t209 -68q80 -68 80 -192q-1 -124 -59 -222t-164 -98t-101 76q-90 -76 -150 -76q-89 0 -89 97z" />
    <glyph glyph-name="A" unicode="A" horiz-adv-x="681" 
d="M478 292l-75 379l-173 -379h248zM646 0h-214l6 37l86 9l-35 187h-286l-86 -187l77 -9l-6 -37h-203l6 37l42 11q21 5 30 24l303 652h89l133 -659q3 -13 21 -17l43 -11z" />
    <glyph glyph-name="B" unicode="B" horiz-adv-x="645" 
d="M344 399q196 0 196 165q0 56 -34 79t-111 23h-120l-36 -267h105zM321 59q166 0 203 76q16 33 16 89t-43 86t-115 31h-152l-38 -282h129zM318 0h-276l5 38l62 7q11 1 15 5t4 15l82 592q3 18 -13 20l-61 8l6 39h277q191 0 191 -152q0 -80 -42 -128t-104 -65l-1 -4
q69 -7 107 -49t38 -105q0 -119 -76 -170t-214 -51z" />
    <glyph glyph-name="C" unicode="C" horiz-adv-x="659" 
d="M135 305q0 -259 228 -259q98 0 156 25q10 4 14 17l29 89h46l-19 -137q-81 -52 -233 -52t-222 84t-69 226q0 196 106 318t299 121q135 0 206 -53l-20 -146l-50 3l-4 94q0 14 -10 18q-63 25 -131 25q-145 0 -235 -100t-91 -273z" />
    <glyph glyph-name="D" unicode="D" horiz-adv-x="757" 
d="M321 57q165 1 254 97t89 272q0 130 -66 186t-192 56h-129l-84 -611h128zM312 0h-270l6 40l62 7q15 2 17 18l83 593q3 18 -13 20l-61 7l6 39h283q157 0 233 -78t76 -217q0 -197 -106 -313t-316 -116z" />
    <glyph glyph-name="E" unicode="E" horiz-adv-x="614" 
d="M538 668h-261l-37 -274h274l-8 -56h-274l-39 -282h282q14 0 17 11l28 87h45l-21 -154h-501l4 39l63 7q10 1 13 5t5 15l82 591q2 11 0 15t-13 5l-60 7l5 40h480l-21 -150l-45 3l-3 78q-1 13 -15 13z" />
    <glyph glyph-name="F" unicode="F" horiz-adv-x="589" 
d="M535 668h-257l-37 -271h270l-8 -56h-270l-38 -274q-1 -11 1 -15t12 -5l143 -8l-5 -39h-302l5 39l62 7q10 1 13 5t5 15l81 591q2 11 0 15t-13 5l-60 7l6 40h476l-21 -150l-45 3l-3 78q-1 13 -15 13z" />
    <glyph glyph-name="G" unicode="G" horiz-adv-x="714" 
d="M133 310q0 -263 253 -263q91 0 156 18q14 4 16 17l26 195h-143l18 55h255l-7 -45l-41 -4q-17 -1 -18 -14l-33 -243q-85 -38 -241 -38t-233 84t-77 220q0 134 45 232t138 155q93 58 226 58t203 -53l-19 -146l-50 3l-4 94q0 14 -10 18q-62 25 -139 25q-144 0 -232 -98
t-89 -270z" />
    <glyph glyph-name="H" unicode="H" horiz-adv-x="788" 
d="M697 0h-224l6 39l62 7q10 1 13 5t5 15l39 280h-364l-40 -279q-2 -11 0 -15t13 -5l65 -8l-6 -39h-224l5 39l63 7q10 1 13 5t5 15l83 592q1 12 -1 16t-12 4l-60 7l5 39h224l-5 -39l-67 -8q-11 -2 -14 -5t-4 -14l-35 -256h364l36 256q3 18 -12 20l-61 7l4 39h224l-4 -39
l-66 -8q-11 -1 -14 -5t-5 -14l-82 -591q-2 -11 0 -15t12 -5l65 -8z" />
    <glyph glyph-name="I" unicode="I" horiz-adv-x="357" 
d="M277 0h-244l4 39l73 7q10 0 13 4t5 16l83 592q1 12 -1 16t-12 4l-70 7l4 39h244l-4 -39l-77 -8q-11 -2 -14 -5t-4 -14l-83 -591q-2 -11 0 -15t13 -5l74 -8z" />
    <glyph glyph-name="J" unicode="J" horiz-adv-x="478" 
d="M87 69q0 -27 71 -27t93 26t30 81l71 510q2 11 0 15t-13 4l-81 7l5 39h245l-5 -39l-67 -8q-12 -1 -14 -4t-4 -14l-73 -518q-21 -153 -157 -153q-121 0 -163 34l16 122l46 -3v-72z" />
    <glyph glyph-name="K" unicode="K" horiz-adv-x="698" 
d="M660 0h-119l-4 4l-63 110l-155 247l-95 -90l-30 -204q-2 -11 0 -15t13 -5l68 -8l-6 -39h-224l5 39l60 7q16 2 18 21l83 591q1 12 -1 16t-12 4l-60 7l6 39h224l-6 -39l-67 -8q-10 -1 -13 -5t-5 -14l-44 -303l332 321l-56 8l6 40h206l-6 -39l-54 -10q-19 -3 -32 -16
l-259 -250l212 -344q8 -12 26 -16l58 -10z" />
    <glyph glyph-name="L" unicode="L" horiz-adv-x="597" 
d="M476 56q14 0 17 11l28 87h45l-21 -154h-501l5 39l61 7q10 1 13 5t5 15l83 591q1 11 -1 15t-12 5l-60 7l5 40h240l-5 -40l-83 -8q-10 0 -13 -4t-5 -15l-85 -601h284z" />
    <glyph glyph-name="M" unicode="M" horiz-adv-x="915" 
d="M826 0h-244l4 39l85 7q14 2 17 20l76 546l-274 -431h-63l-156 435l-78 -549q-1 -11 1 -15t12 -5l86 -8l-4 -39h-244l4 39l63 7q10 1 13 5t5 16l82 590q1 11 -1 15t-12 5l-60 7l5 40h159l165 -476l295 476h163l-5 -39l-67 -8q-9 -1 -13 -5t-6 -19l-82 -587q-2 -16 14 -19
l65 -8z" />
    <glyph glyph-name="N" unicode="N" horiz-adv-x="816" 
d="M645 0h-82l-288 646l-81 -579q-2 -11 0 -15t13 -5l65 -8l-4 -39h-224l3 39l63 7q10 1 13 5t5 15l83 591q1 11 -1 15t-12 5l-60 7l5 40h170l281 -641l78 575q2 12 0 16t-13 4l-61 7l5 39h224l-5 -39l-67 -8q-11 -1 -14 -5t-5 -14z" />
    <glyph glyph-name="O" unicode="O" horiz-adv-x="750" 
d="M132 298q0 -251 222 -251q134 0 220 101t87 285q0 57 -14 104q-42 141 -202 141q-137 0 -225 -100t-88 -280zM346 -12q-142 0 -213 82t-71 219q0 200 102 324t289 124q137 -1 207 -81t70 -211q0 -213 -103 -335t-281 -122z" />
    <glyph glyph-name="P" unicode="P" horiz-adv-x="641" 
d="M573 538q0 130 -168 130h-129l-46 -335h110q174 0 216 101q18 42 17 104zM429 724q111 0 162 -50t51 -131q0 -267 -303 -267h-117l-29 -209q-1 -11 1 -15t12 -5l139 -8l-5 -39h-298l5 39l63 7q10 2 14 6t5 14l82 592q3 18 -14 20l-60 7l5 39h287z" />
    <glyph glyph-name="Q" unicode="Q" horiz-adv-x="750" 
d="M352 47q134 0 222 101t87 285q0 57 -14 104q-42 141 -202 141q-137 0 -225 -100t-88 -280q0 -59 14 -107q43 -144 206 -144zM376 -5q126 -71 186 -71q59 0 87 4l-4 -59q-32 -3 -75 -3q-42 0 -94 16t-103 49q-51 34 -93 34t-98 -32l-26 45q34 21 72 31v2q-166 66 -166 272
t102 330t289 124q137 -1 207 -81t70 -211q0 -205 -92 -323t-262 -125v-2z" />
    <glyph glyph-name="R" unicode="R" horiz-adv-x="655" 
d="M342 373q96 0 154 43q58 44 58 122t-44 103t-146 25h-87l-40 -293h105zM365 314h-136l-36 -247q-1 -11 1 -15t12 -5l68 -8l-6 -39h-224l5 39l61 7q12 0 14 4t4 17l83 590q1 11 -1 15t-12 5l-60 7l5 40h282q199 0 199 -173q0 -160 -172 -218q20 -11 30 -31t19 -58l45 -176
q4 -15 27 -19l59 -10l-6 -39h-128l-5 5l-70 262q-12 47 -58 47z" />
    <glyph glyph-name="S" unicode="S" horiz-adv-x="562" 
d="M392 676q-197 0 -197 -143q-1 -55 33 -81t87 -46t70 -26q61 -25 92 -63q32 -38 32 -103q-1 -118 -77 -172t-200 -54q-62 0 -120 12t-80 25l20 151h48l6 -91q1 -12 27 -25t109 -13q195 0 195 158q-1 79 -81 115q-18 8 -77 30t-86 40q-70 45 -70 142q-1 97 75 151t178 54
t186 -33l-23 -160l-49 5l-4 93q0 34 -94 34z" />
    <glyph glyph-name="T" unicode="T" horiz-adv-x="619" 
d="M167 668q-14 0 -17 -11l-27 -87h-45l20 154h571l-21 -154h-45l-4 87q-1 11 -14 11h-177l-84 -601q-2 -11 0 -15t13 -4l109 -8l-6 -40h-305l6 40l99 7q10 1 13 5t5 15l84 601h-175z" />
    <glyph glyph-name="U" unicode="U" horiz-adv-x="768" 
d="M355 -12q-219 0 -219 191q0 30 4 57l56 422q3 18 -12 20l-61 7l6 39h224l-6 -39l-66 -8q-11 -1 -14 -5t-5 -14l-57 -418q-4 -25 -4 -53q0 -77 41 -109q40 -32 128 -31q88 0 138 43t65 148l57 420q1 12 -1 16t-12 4l-61 7l6 39h224l-6 -39l-66 -8q-10 -1 -14 -5t-5 -14
l-58 -425q-17 -129 -85 -187t-197 -58z" />
    <glyph glyph-name="V" unicode="V" horiz-adv-x="662" 
d="M356 0h-90l-129 657q-2 12 -21 17l-43 11l7 39h211l-5 -39l-83 -9l114 -619l275 619l-78 9l7 39h206l-6 -39l-42 -11q-22 -6 -32 -28z" />
    <glyph glyph-name="W" unicode="W" horiz-adv-x="937" 
d="M672 0h-86l-73 493l-212 -493h-78l-79 656q-1 16 -16 19l-60 10l8 39h230l-6 -39l-90 -10l65 -592l208 490h80l74 -502l227 604l-87 10l6 39h225l-6 -39l-54 -9q-16 -3 -25 -24z" />
    <glyph glyph-name="X" unicode="X" horiz-adv-x="656" 
d="M608 0h-208l6 39l74 9l-140 273l-207 -273l69 -9l-6 -39h-204l4 37l49 11q16 4 28 19l231 308l-140 282q-6 13 -21 17l-40 11l6 39h196l-6 -39l-73 -9l124 -257l196 257l-69 9l7 39h195l-6 -39l-42 -11q-17 -4 -28 -19l-218 -284l159 -304q6 -13 21 -17l49 -11z" />
    <glyph glyph-name="Y" unicode="Y" horiz-adv-x="584" 
d="M416 0h-283l5 39l93 7q14 2 17 21l30 217l-146 373q-7 12 -21 17l-43 11l6 39h200l-6 -39l-73 -9l123 -329l209 329l-71 9l6 39h196l-6 -39l-42 -11q-17 -5 -28 -21l-238 -366l-29 -220q-2 -13 0 -16t13 -4l93 -8z" />
    <glyph glyph-name="Z" unicode="Z" horiz-adv-x="620" 
d="M211 668q-14 0 -17 -11l-31 -93l-49 -3l23 163h492l-6 -48l-506 -620h353q15 0 18 11l33 107h48l-23 -174h-522l6 46l505 622h-324z" />
    <glyph glyph-name="bracketleft" unicode="[" horiz-adv-x="254" 
d="M192 -143h-145l122 867h145l-5 -39l-68 -8q-11 -1 -14 -5t-5 -14l-103 -733q-2 -11 0 -15t13 -5l66 -8z" />
    <glyph glyph-name="backslash" unicode="\" horiz-adv-x="353" 
d="M317 -92h-61l-157 823h60z" />
    <glyph glyph-name="bracketright" unicode="]" horiz-adv-x="243" 
d="M109 -143h-145l5 39l68 8q11 2 14 5t5 14l103 733q2 12 0 16t-13 4l-66 8l6 40h145z" />
    <glyph glyph-name="asciicircum" unicode="^" horiz-adv-x="526" 
d="M506 299h-64l-126 303l-207 -303h-69l248 365h69z" />
    <glyph glyph-name="underscore" unicode="_" horiz-adv-x="500" 
d="M474 -181h-499l7 52h499z" />
    <glyph glyph-name="grave" unicode="`" horiz-adv-x="500" 
d="M437 601l-37 -32l-155 139l59 53z" />
    <glyph glyph-name="a" unicode="a" 
d="M289 463q-49 0 -85 -27t-65 -92t-29 -162q0 -135 98 -135q46 0 92 36t98 94l32 225q-61 61 -141 61zM194 -12q-149 0 -149 187q1 128 55 231q60 115 200 115q72 0 139 -56l15 46h66q-20 -78 -26 -119l-46 -326q-2 -12 0 -16t14 -4l50 -7l-6 -39h-128l13 94l-3 1
q-50 -51 -96 -79t-98 -28z" />
    <glyph glyph-name="b" unicode="b" horiz-adv-x="572" 
d="M470 321q0 138 -87 138q-76 0 -200 -124l-31 -215q62 -76 138 -76q48 0 84 26t66 92q30 64 30 159zM406 521q56 0 94 -47q38 -48 37 -126q1 -78 -13 -134t-41 -109t-77 -85t-126 -32t-140 67l-2 -1l-12 -54h-66q22 82 30 142l77 541q3 17 -10 21l-55 14l5 37h135
l-48 -341q58 50 106 78q50 28 106 29z" />
    <glyph glyph-name="c" unicode="c" horiz-adv-x="482" 
d="M113 203q0 -159 137 -159q80 0 143 37l18 -54q-63 -39 -165 -39q-201 0 -201 205q0 166 83 247t209 81q74 0 135 -27l-17 -123l-48 3l-3 66q0 23 -84 23t-146 -64q-61 -64 -61 -196z" />
    <glyph glyph-name="d" unicode="d" horiz-adv-x="574" 
d="M110 179q0 -132 97 -132q33 0 71 23q38 22 63 46q24 24 58 62l32 223q-57 62 -146 62q-45 1 -81 -27t-66 -93q-28 -65 -28 -164zM203 -12q-158 0 -158 187q0 123 52 227q61 118 203 119q74 0 140 -56l29 220q2 17 -10 20l-55 13l5 37h136l-97 -689q-2 -12 0 -16t14 -4
l50 -7l-5 -39h-129l13 92l-3 2q-106 -106 -185 -106z" />
    <glyph glyph-name="e" unicode="e" horiz-adv-x="470" 
d="M384 401q0 61 -73 61t-124 -58t-68 -141q265 27 265 138zM234 -12q-189 0 -189 203q1 133 77 231t196 99q70 0 101 -32t31 -76q0 -45 -17 -75t-50 -50q-70 -44 -144 -59t-127 -22q0 -81 28 -121t102 -40t147 37l15 -56q-74 -39 -170 -39z" />
    <glyph glyph-name="f" unicode="f" horiz-adv-x="372" 
d="M135 455h-72l8 56h80l14 102q22 153 163 153q89 0 139 -47l-32 -48q-53 38 -103 38q-50 1 -74 -27t-30 -85l-10 -76q-1 -10 7 -10h163l-8 -56h-171l-95 -667h-66l94 657q2 10 -7 10z" />
    <glyph glyph-name="g" unicode="g" horiz-adv-x="559" 
d="M110 179q0 -132 97 -132q33 0 71 23q38 22 63 46q24 24 58 62l32 223q-57 62 -146 62q-45 1 -81 -27t-66 -93q-28 -65 -28 -164zM45 158q1 77 13 134q12 56 39 110t77 86t126 33q74 0 140 -56l15 46h66q-21 -78 -28 -130l-57 -422q-26 -182 -209 -182q-116 0 -185 39
l27 55q17 -12 59 -25t91 -13q131 0 151 130l20 133q-108 -108 -187 -108t-119 46t-39 124z" />
    <glyph glyph-name="h" unicode="h" horiz-adv-x="617" 
d="M468 393q0 66 -59 66q-47 0 -97 -32t-119 -95l-36 -265q-1 -11 1 -15t13 -5l67 -8l-6 -39h-217l6 40l50 7q11 1 15 5t5 15l86 616q3 18 -9 21l-56 14l5 37h136l-50 -348q71 59 119 87t100 27q114 0 114 -119q0 -29 -5 -62l-39 -273q-2 -11 0 -15t14 -5l58 -8l-6 -39h-144
l-2 3l19 100l31 217q6 39 6 73z" />
    <glyph glyph-name="i" unicode="i" horiz-adv-x="286" 
d="M227 0h-150l-2 4l20 106l47 330q3 17 -11 21l-54 13l5 37h136l-63 -444q-1 -11 1 -15t13 -5l64 -8zM200 741q47 0 47 -44q0 -26 -17 -44t-42 -18q-51 0 -51 44q0 27 17 45t46 17z" />
    <glyph glyph-name="j" unicode="j" horiz-adv-x="274" 
d="M201 741q47 0 47 -44q0 -26 -17 -44t-42 -18q-51 0 -51 44q0 27 17 45t46 17zM-20 -166q46 0 64 26t26 85l70 494q3 18 -9 21l-60 14l6 37h139l-81 -581q-21 -153 -134 -153q-95 0 -136 41l32 47q37 -31 83 -31z" />
    <glyph glyph-name="k" unicode="k" 
d="M511 521q17 0 38 -3l-6 -49q-31 1 -55 -9t-55 -40l-96 -93l107 -260q6 -14 18 -15l68 -13l-6 -39h-123l-3 3l-36 96l-77 179l-115 -109l-14 -102q-2 -11 0 -15t13 -5l69 -8l-6 -39h-217l6 40l51 7q10 1 13 5t5 15l87 617q3 16 -10 20l-55 14l5 37h136l-71 -497l224 217
q48 46 105 46z" />
    <glyph glyph-name="l" unicode="l" horiz-adv-x="284" 
d="M222 0h-150l-2 4l20 106l81 574q3 17 -11 21l-54 13l5 37h136l-97 -688q-2 -11 0 -15t14 -5l64 -8z" />
    <glyph glyph-name="m" unicode="m" horiz-adv-x="901" 
d="M755 408q0 51 -52 51q-35 -1 -77 -29t-117 -98l-39 -265q-2 -11 0 -15t14 -5l59 -8l-6 -39h-144l-2 3l20 109l30 208q8 50 8 82q1 32 -11 44q-12 13 -47 13q-63 0 -198 -127l-36 -265q-1 -11 1 -15t13 -5l67 -8l-6 -39h-215l6 40l50 7q11 1 15 5t4 15l51 371q3 16 -9 21
l-55 15l5 37h133l-15 -104q74 62 118 88t93 26q101 0 101 -98v-11t-1 -8q39 36 63 56q74 62 152 61q94 0 94 -104q0 -27 -7 -74l-39 -276q-2 -11 0 -15t14 -5l59 -8l-6 -39h-144l-2 3l18 99l31 218q9 63 9 88z" />
    <glyph glyph-name="n" unicode="n" horiz-adv-x="619" 
d="M420 521q118 0 118 -120q0 -29 -5 -61l-39 -273q-2 -11 0 -15t14 -5l58 -8l-6 -39h-145l-2 3l19 108l30 209q6 39 6 73t-13 50t-48 16q-74 0 -213 -127l-36 -265q-2 -11 0 -15t14 -5l67 -8l-6 -39h-216l6 40l50 7q11 1 15 5t4 15l51 371q3 18 -9 21l-55 15l5 37h133
l-15 -104q136 114 218 114z" />
    <glyph glyph-name="o" unicode="o" horiz-adv-x="552" 
d="M112 200q0 -157 140 -157q91 1 144 71t53 209t-135 139q-94 0 -148 -68t-54 -194zM258 -12q-214 0 -213 206q0 146 72 236t205 91q100 -1 148 -57t47 -150q0 -152 -72 -239q-73 -87 -187 -87z" />
    <glyph glyph-name="p" unicode="p" horiz-adv-x="577" 
d="M475 321q0 138 -87 138q-76 0 -200 -124l-30 -215q62 -76 137 -76q47 0 83 26t67 92q30 64 30 159zM395 521q147 0 147 -193q0 -126 -55 -226q-63 -114 -200 -114q-74 0 -139 65l-25 -194q-2 -13 0 -16t12 -4l88 -7l-6 -44h-170l-4 4l28 170l65 476q3 18 -9 21l-55 15
l5 37h135l-14 -98q125 108 197 108z" />
    <glyph glyph-name="q" unicode="q" horiz-adv-x="559" 
d="M110 179q0 -132 97 -132q33 0 71 23q38 22 63 46q24 24 58 62l32 223q-57 62 -146 62q-45 1 -81 -27t-66 -93q-28 -65 -28 -164zM196 -12q-151 0 -151 187q0 127 54 231q60 115 201 115q74 0 140 -56l15 46h66q-21 -78 -28 -130l-71 -522q-2 -11 0 -15t13 -5l50 -6
l-6 -45h-217l6 44l70 7q10 1 13 5t5 15l34 237q-108 -108 -194 -108z" />
    <glyph glyph-name="r" unicode="r" horiz-adv-x="424" 
d="M348 460q-43 0 -154 -129l-36 -265q-2 -12 0 -16t14 -4l87 -7l-6 -39h-236l6 40l52 6q14 1 17 20l51 372q3 18 -9 21l-55 15l5 37h129l-13 -105q87 115 170 115q28 0 59 -9l-19 -139l-49 3l-3 75q0 9 -10 9z" />
    <glyph glyph-name="s" unicode="s" horiz-adv-x="440" 
d="M284 468q-138 0 -137 -86q0 -32 23 -52q24 -20 84 -46t95 -54t35 -96t-54 -108q-54 -38 -124 -38q-128 0 -185 32l18 123l47 -3l3 -69q0 -10 26 -20t81 -10t88 25t33 58q-1 54 -37 79q-37 24 -72 37q-57 20 -92 48t-35 93t55 103q54 38 140 37q86 0 144 -26l-17 -123
l-47 3l-3 67q-1 26 -69 26z" />
    <glyph glyph-name="t" unicode="t" horiz-adv-x="391" 
d="M208 -12q-114 0 -114 97q0 9 2 27l46 333q2 10 -6 10h-73l7 46q50 7 76 35t44 99h45l-16 -114q-2 -10 6 -10h146l-8 -56h-154l-43 -318q-3 -21 -3 -43q0 -48 62 -48q40 0 98 22l15 -52q-61 -28 -130 -28z" />
    <glyph glyph-name="u" unicode="u" horiz-adv-x="616" 
d="M164 117q0 -67 62 -67q34 0 81 27t71 47t61 55l36 265q1 12 -1 16t-13 4l-62 8l6 39h144l2 -3l-62 -443q-3 -17 9 -18l57 -9l-5 -38h-134l16 104q-65 -56 -116 -86t-102 -30q-118 0 -118 120q0 29 5 61l39 275q2 12 0 16t-14 4l-53 8l6 39h134l2 -3l-45 -319
q-6 -39 -6 -72z" />
    <glyph glyph-name="v" unicode="v" horiz-adv-x="523" 
d="M269 0h-79l-96 446q-2 14 -17 17l-42 9l6 39h113l4 -5l14 -97l66 -346l196 399l-64 11l5 38h147l4 -7z" />
    <glyph glyph-name="w" unicode="w" horiz-adv-x="794" 
d="M565 0h-82l-59 426l-181 -426h-80l-69 446q-2 14 -15 17l-44 9l6 39h111l4 -5l8 -82l48 -355l185 442h78l60 -449l176 401l-64 9l6 39h139l4 -5z" />
    <glyph glyph-name="x" unicode="x" horiz-adv-x="548" 
d="M503 0h-118l-6 6l-34 71l-74 139l-138 -168l66 -9l-4 -39h-207l5 39l56 11q13 2 24 16l167 200l-94 183q-7 15 -21 17l-39 5l6 40h98l4 -4l35 -79l60 -116l131 152l-58 8l6 39h183l-6 -39l-41 -10q-14 -3 -27 -19l-157 -179l103 -196q8 -15 23 -18l63 -11z" />
    <glyph glyph-name="y" unicode="y" horiz-adv-x="506" 
d="M28 -166q45 0 68 23t55 84l42 79l-102 427q-3 13 -17 17l-41 10l8 37h111l3 -4l22 -125l61 -279l176 360l-62 11l4 37h148l5 -7l-295 -579q-42 -82 -78 -115t-109 -33q-72 0 -113 41l32 47q37 -31 82 -31z" />
    <glyph glyph-name="z" unicode="z" horiz-adv-x="491" 
d="M168 455q-9 0 -12 -13l-21 -66l-49 -3l18 138h377l-6 -44l-358 -411h232q9 0 12 13l23 76l49 3l-20 -148h-393l5 42l360 413h-217z" />
    <glyph glyph-name="braceleft" unicode="{" horiz-adv-x="270" 
d="M167 201q1 -33 -21 -125t-22 -116q0 -26 17 -36t66 -21l-17 -49q-70 8 -102 29t-31 60q0 39 22 130q22 92 22 126t-20 48t-60 16l8 51q83 4 101 74q7 27 14 193q3 71 36 103t133 43l3 -52q-70 -10 -88 -31q-18 -22 -20 -108q-4 -86 -11 -136q-12 -84 -86 -112
q56 -24 56 -87z" />
    <glyph glyph-name="bar" unicode="|" horiz-adv-x="280" 
d="M129 -143h-60l122 867h60z" />
    <glyph glyph-name="braceright" unicode="}" horiz-adv-x="284" 
d="M130 380q0 32 22 124t21 118q0 26 -17 35q-17 10 -66 21l17 49q69 -8 101 -29t32 -60t-22 -130q-22 -92 -22 -126t20 -48t60 -16l-8 -51q-83 -3 -101 -73q-7 -27 -14 -194q-3 -72 -36 -104t-133 -42l-3 52q69 10 87 31t22 107t10 136q12 84 86 113q-56 24 -56 87z" />
    <glyph glyph-name="asciitilde" unicode="~" horiz-adv-x="465" 
d="M381 297q-39 0 -117 23t-104 23q-26 -1 -41 -13q-16 -12 -40 -42l-39 18q28 48 56 72t68 23q40 0 113 -23t100 -23q27 1 39 13t28 43l42 -14q-19 -49 -42 -75t-63 -25z" />
    <glyph glyph-name="exclamdown" unicode="&#xa1;" horiz-adv-x="256" 
d="M128 454q0 67 67 67q51 0 51 -47q0 -67 -67 -67q-51 0 -51 47zM140 326h55l-41 -379l-23 -162h-77l23 162z" />
    <glyph glyph-name="cent" unicode="&#xa2;" horiz-adv-x="478" 
d="M125 247q0 -133 100 -153l51 373q-70 -13 -110 -68t-41 -152zM55 239q0 131 63 203t167 84l14 102h53l-14 -99q70 -2 131 -27l-18 -123l-45 3l-3 66q0 21 -73 23l-52 -381q76 3 82 22l21 67l47 3l-18 -123q-58 -26 -140 -27l-13 -99h-54l14 102q-162 22 -162 204z" />
    <glyph glyph-name="sterling" unicode="&#xa3;" horiz-adv-x="537" 
d="M379 645q51 1 93 -15t59 -32l-32 -48q-53 38 -119 38q-129 0 -147 -141l-12 -87h191l-8 -56h-191q-2 -12 -6 -40q-3 -28 -5 -38t-6 -32t-9 -32q-4 -10 -11 -26q-17 -41 -62 -80h279q15 0 18 11l27 87h49l-20 -154h-426l-6 47q59 45 77 89t31 137l4 31h-83l8 56h82l7 51
q17 118 65 176t153 58z" />
    <glyph glyph-name="currency" unicode="&#xa4;" 
d="M286 119q70 0 108 46q37 45 37 119t-37 116q-36 42 -106 42t-107 -44t-37 -116t36 -118q36 -45 106 -45zM282 59q-84 0 -138 43l-92 -93l-46 47l95 95q-33 53 -33 125t35 129l-94 93l50 49l90 -90q58 47 143 47t140 -44l86 86l46 -47l-89 -90q32 -53 32 -126t-39 -132
l95 -94l-50 -48l-93 91q-54 -41 -138 -41z" />
    <glyph glyph-name="yen" unicode="&#xa5;" horiz-adv-x="490" 
d="M408 179h-132l-15 -107q-2 -13 0 -16t13 -4l94 -8l-6 -44h-283l6 44l92 7q16 1 18 21l15 107h-132l8 56h132l8 59h-132l8 56h100l-105 210q-7 13 -21 17l-43 11l6 38h201l-5 -38l-77 -9l107 -224l167 224l-63 9l5 38h185l-5 -38l-42 -11q-10 -3 -22 -17l-161 -210h103
l-8 -56h-133l-8 -59h133z" />
    <glyph glyph-name="brokenbar" unicode="&#xa6;" horiz-adv-x="280" 
d="M204 389h-60l47 335h60zM129 -143h-60l55 388h60z" />
    <glyph glyph-name="section" unicode="&#xa7;" horiz-adv-x="540" 
d="M327 321q-27 9 -62 19t-45 13q-32 -19 -54 -50t-22 -61t18 -46t76 -35q57 -19 75 -26q79 60 79 112t-65 74zM212 -86q57 0 89 24t32 68q1 42 -27 61t-72 32q-72 21 -115 47q-42 26 -42 86q0 62 50 110q16 16 47 42q-39 32 -39 98t59 105q60 39 144 39t145 -27l-17 -123
l-50 3l-3 67q-1 24 -77 24q-136 0 -135 -87q0 -43 31 -61t74 -31q68 -21 111 -45t43 -79t-26 -89t-72 -71q40 -41 40 -107t-57 -104t-124 -38t-119 13t-67 23l16 120l51 -3l2 -65q0 -10 9 -14q42 -18 99 -18z" />
    <glyph glyph-name="dieresis" unicode="&#xa8;" horiz-adv-x="500" 
d="M236 609q-45 0 -45 41q0 25 16 41t42 16q44 0 44 -41q1 -24 -15 -40t-42 -17zM435 609q-45 0 -45 41q0 25 16 41t42 16q44 0 44 -41q0 -24 -16 -40t-41 -17z" />
    <glyph glyph-name="copyright" unicode="&#xa9;" horiz-adv-x="759" 
d="M512 242v-98q-40 -24 -126 -24t-130 52q-46 52 -46 142q0 89 50 142t124 53q76 0 129 -20v-103l-39 3l-10 54q-3 20 -64 20q-61 -1 -95 -37t-34 -108q0 -154 128 -153q57 0 65 23l14 54h34zM388 31q130 -1 205 75t75 208t-77 205t-202 73t-203 -76t-79 -208
q0 -130 75 -204q76 -74 206 -73zM717 318q0 -146 -92 -238t-245 -92q-152 0 -238 88t-86 234t95 236t242 89q147 1 235 -85t89 -232z" />
    <glyph glyph-name="ordfeminine" unicode="&#xaa;" horiz-adv-x="382" 
d="M231 569q-44 0 -79 -40t-35 -123t55 -83q46 0 118 74l20 137q-35 35 -79 35zM158 273q-99 0 -99 122q1 87 41 154t124 67q52 0 94 -36l11 30h54q-15 -65 -17 -78l-29 -203q-1 -7 0 -9t9 -3l32 -5l-5 -31h-95l8 57l-2 1q-68 -66 -126 -66z" />
    <glyph glyph-name="guillemotleft" unicode="&#xab;" horiz-adv-x="424" 
d="M145 259q0 -3 2 -9l53 -147h-66l-66 157l110 148h68l-95 -139q-6 -7 -6 -10zM291 259q0 -3 2 -9l53 -147h-66l-66 157l110 148h68l-95 -139q-6 -7 -6 -10z" />
    <glyph glyph-name="logicalnot" unicode="&#xac;" 
d="M463 199h-69l14 94h-304l9 66h373z" />
    <glyph glyph-name="uni00AD" unicode="&#xad;" horiz-adv-x="311" 
d="M294 255h-271l11 74h271z" />
    <glyph glyph-name="registered" unicode="&#xae;" horiz-adv-x="447" 
d="M241 488h13q44 0 44 32q0 27 -37 27h-20v-59zM361 384h-78v19l18 2l-26 45q-6 10 -18 10h-16v-49q0 -5 6 -6l15 -2v-19h-78v19l16 3q5 1 5 6v136q0 5 -5 6l-16 2v19h87q64 0 64 -54q0 -39 -38 -53q7 -2 17 -18l21 -38q2 -5 8 -6l18 -3v-19zM409 478q0 68 -40 106
q-39 38 -103 37q-64 1 -104 -39t-41 -107q1 -67 39 -105t105 -37t105 39t39 106zM448 480q0 -82 -51 -132t-136 -51q-85 0 -133 49q-48 50 -47 130t53 130t134 51q82 0 130 -48q50 -47 50 -129z" />
    <glyph glyph-name="macron" unicode="&#xaf;" horiz-adv-x="500" 
d="M487 616h-303l8 57h303z" />
    <glyph glyph-name="degree" unicode="&#xb0;" horiz-adv-x="287" 
d="M225 764q88 0 88 -89q0 -45 -32 -77q-33 -32 -79 -32q-94 0 -93 82q0 56 33 86t83 30zM204 609q60 0 60 67q0 45 -45 45q-28 0 -44 -18t-16 -50q0 -44 45 -44z" />
    <glyph glyph-name="plusminus" unicode="&#xb1;" 
d="M473 288h-152l-22 -157h-69l22 157h-152l9 66h152l22 154h69l-22 -154h152zM433 0h-373l9 66h373z" />
    <glyph glyph-name="twosuperior" unicode="&#xb2;" horiz-adv-x="332" 
d="M78 689q17 108 149 108q131 0 131 -95q0 -56 -54 -118q-16 -18 -53 -55l-130 -133h148q9 0 11 7l18 54h46l-15 -107h-292l6 41l146 152q6 5 19 19q12 14 18 20l16 16q10 12 16 18q4 6 12 15q24 31 23 66q0 51 -65 51q-43 0 -64 -14t-27 -52z" />
    <glyph glyph-name="threesuperior" unicode="&#xb3;" horiz-adv-x="337" 
d="M340 495q0 -69 -44 -111t-129 -42q-84 0 -134 58l42 41q39 -46 91 -46q108 0 108 93q0 68 -77 68q-23 0 -48 -4l6 49l41 4q99 10 99 89q0 54 -62 54q-37 0 -55 -14t-25 -52l-61 7q8 63 48 85t100 23q120 0 120 -95q0 -85 -90 -116l-1 -3q71 -18 71 -88z" />
    <glyph glyph-name="acute" unicode="&#xb4;" horiz-adv-x="500" 
d="M441 701l-184 -132l-29 35l166 153z" />
    <glyph glyph-name="mu" unicode="&#xb5;" horiz-adv-x="629" 
d="M166 121q0 -76 86 -76t187 103l51 363h67l-61 -441q-3 -20 10 -21l54 -7l-6 -42h-130l10 71h-4q-110 -83 -184 -83t-103 43l-22 -207h-67l96 687h67l-47 -336q-4 -25 -4 -54z" />
    <glyph glyph-name="paragraph" unicode="&#xb6;" horiz-adv-x="596" 
d="M281 56q-105 0 -168 70t-63 181q0 157 93 247t256 91h237l-6 -44l-68 -8q-10 -1 -14 -5t-5 -14l-76 -538q-24 -178 -220 -178q-99 0 -172 41l26 53q17 -12 59 -25t91 -13q133 0 151 130l76 545h-83l-75 -533h-39z" />
    <glyph glyph-name="periodcentered" unicode="&#xb7;" horiz-adv-x="176" 
d="M50 289q0 70 67 70q51 0 51 -45q0 -30 -18 -50t-49 -19q-51 0 -51 44z" />
    <glyph glyph-name="cedilla" unicode="&#xb8;" horiz-adv-x="500" 
d="M180 -179q26 0 50 14t24 43q0 43 -67 43l31 109l51 -8l-19 -66q62 -16 62 -71t-38 -84t-83 -29q-44 0 -65 7l11 46q16 -4 43 -4z" />
    <glyph glyph-name="onesuperior" unicode="&#xb9;" horiz-adv-x="245" 
d="M244 350h-205l5 36l61 4q11 1 12 13l47 322q2 12 -7 14l-61 11l8 37h132l-55 -384q-3 -11 9 -13l59 -4z" />
    <glyph glyph-name="ordmasculine" unicode="&#xba;" horiz-adv-x="368" 
d="M201 319q55 -1 87 41t31 126q0 84 -80 84q-55 0 -88 -41t-33 -125t83 -85zM194 273q-135 0 -135 135q1 92 49 150t127 58q144 0 144 -134q0 -97 -48 -153t-137 -56z" />
    <glyph glyph-name="guillemotright" unicode="&#xbb;" horiz-adv-x="424" 
d="M153 258q0 4 -2 9l-53 141h66l66 -153l-107 -152h-71l96 145q5 6 5 10zM299 258q0 4 -2 9l-53 141h66l66 -153l-107 -152h-71l96 145q5 6 5 10z" />
    <glyph glyph-name="onequarter" unicode="&#xbc;" horiz-adv-x="855" 
d="M665 165l30 204l-164 -204h134zM702 0h-60l17 118h-197l6 38l222 279h75l-39 -270h57l-7 -48h-57zM248 -12h-64l458 736h63zM293 281h-205l5 36l61 4q11 1 12 13l47 322q2 12 -7 14l-61 11l8 37h132l-55 -384q-3 -11 9 -13l59 -4z" />
    <glyph glyph-name="onehalf" unicode="&#xbd;" horiz-adv-x="855" 
d="M495 339q17 108 149 108q131 0 131 -95q-1 -56 -55 -118q-16 -18 -52 -55l-130 -133h148q9 0 11 7l18 54h46l-15 -107h-292l6 41l146 152q6 5 19 19t19 20l16 16q10 12 14 18t12 15q24 31 24 66q0 51 -65 51q-43 0 -64 -14t-27 -52zM187 -12h-64l458 736h63zM267 281
h-205l5 36l61 4q11 1 12 13l47 322q2 12 -7 14l-61 11l8 37h132l-55 -384q-3 -11 9 -13l59 -4z" />
    <glyph glyph-name="threequarters" unicode="&#xbe;" horiz-adv-x="855" 
d="M687 165l30 204l-164 -204h134zM724 0h-60l17 118h-197l6 38l222 279h75l-39 -270h57l-7 -48h-57zM275 -12h-64l458 736h63zM355 426q-1 -70 -45 -112t-128 -41q-84 0 -134 58l42 41q39 -46 91 -46q108 0 108 93q0 68 -77 68q-23 0 -48 -4l6 49l41 4q99 10 99 89
q0 54 -62 54q-38 1 -56 -13t-24 -53l-61 7q9 64 49 86t99 22q120 0 120 -95q0 -85 -90 -116l-1 -3q71 -18 71 -88z" />
    <glyph glyph-name="questiondown" unicode="&#xbf;" horiz-adv-x="457" 
d="M282 454q0 67 67 67q51 0 51 -47q0 -67 -67 -67q-51 0 -51 47zM91 -47q0 -112 130 -112q62 0 94 12q8 3 14 18l22 66l51 3l-17 -123q-80 -32 -170 -32q-193 0 -193 165q0 205 249 250l17 127h67l-24 -175q-175 -20 -221 -110q-19 -38 -19 -89z" />
    <glyph glyph-name="Agrave" unicode="&#xc0;" horiz-adv-x="681" 
d="M481 765l-182 106l48 63l163 -131zM478 292l-75 379l-173 -379h248zM646 0h-214l6 37l86 9l-35 187h-286l-86 -187l77 -9l-6 -37h-203l6 37l42 11q21 5 30 24l303 652h89l133 -659q3 -13 21 -17l43 -11z" />
    <glyph glyph-name="Aacute" unicode="&#xc1;" horiz-adv-x="681" 
d="M554 872l-212 -106l-22 38l200 131zM478 292l-75 379l-173 -379h248zM646 0h-214l6 37l86 9l-35 187h-286l-86 -187l77 -9l-6 -37h-203l6 37l42 11q21 5 30 24l303 652h89l133 -659q3 -13 21 -17l43 -11z" />
    <glyph glyph-name="Acircumflex" unicode="&#xc2;" horiz-adv-x="681" 
d="M572 800l-40 -34l-107 84l-131 -84l-30 34l129 99h76zM478 292l-75 379l-173 -379h248zM646 0h-214l6 37l86 9l-35 187h-286l-86 -187l77 -9l-6 -37h-203l6 37l42 11q21 5 30 24l303 652h89l133 -659q3 -13 21 -17l43 -11z" />
    <glyph glyph-name="Atilde" unicode="&#xc3;" horiz-adv-x="681" 
d="M514 782q-22 0 -36 4l-132 36q-10 3 -16 -3l-48 -41l-32 27l35 41q33 39 63 39q10 0 24 -3l137 -37q10 -3 17 3l44 39l33 -27l-28 -32q-39 -46 -61 -46zM478 292l-75 379l-173 -379h248zM646 0h-214l6 37l86 9l-35 187h-286l-86 -187l77 -9l-6 -37h-203l6 37l42 11
q21 5 30 24l303 652h89l133 -659q3 -13 21 -17l43 -11z" />
    <glyph glyph-name="Adieresis" unicode="&#xc4;" horiz-adv-x="681" 
d="M532 880q44 0 44 -41q0 -25 -16 -41t-42 -16q-44 0 -44 41q0 25 16 41t42 16zM333 880q44 0 44 -41q0 -25 -16 -41t-42 -16q-44 0 -44 41q0 25 16 41t42 16zM478 292l-75 379l-173 -379h248zM646 0h-214l6 37l86 9l-35 187h-286l-86 -187l77 -9l-6 -37h-203l6 37l42 11
q21 5 30 24l303 652h89l133 -659q3 -13 21 -17l43 -11z" />
    <glyph glyph-name="Aring" unicode="&#xc5;" horiz-adv-x="681" 
d="M416 751q19 1 31 15t12 36q0 30 -33 30q-20 0 -32 -14t-11 -35q0 -32 33 -32zM478 292l-75 379l-173 -379h248zM338 780q0 40 26 66q26 27 64 27q76 1 76 -63t-49 -88l133 -657q3 -13 21 -17l43 -11l-6 -37h-214l6 37l86 9l-35 187h-286l-86 -187l77 -9l-6 -37h-203l6 37
l42 11q21 5 30 24l302 651q-27 17 -27 57z" />
    <glyph glyph-name="AE" unicode="&#xc6;" horiz-adv-x="1000" 
d="M549 384l40 284h-37l-198 -284h195zM918 668h-262l-40 -284h280l-7 -56h-280l-39 -272h284q15 0 18 11l28 87h50l-21 -154h-512l5 39l72 8q8 1 9 11l38 270h-226l-195 -280l70 -9l-6 -39h-199l6 39l43 11q21 5 31 19l420 604l-76 8l6 43h593l-21 -150l-50 3l-3 78
q-1 13 -16 13z" />
    <glyph glyph-name="Ccedilla" unicode="&#xc7;" horiz-adv-x="659" 
d="M135 305q0 -259 228 -259q98 0 156 25q10 4 14 17l29 89h46l-19 -137q-74 -49 -219 -52l-9 -33q62 -17 62 -67q-1 -50 -35 -82q-34 -34 -84 -34t-68 6l12 44q15 -3 44 -3q28 1 50 17t22 42q0 42 -66 43l19 69q-129 10 -191 92t-61 216q0 196 106 318t299 121
q135 0 206 -53l-20 -146l-50 3l-4 94q0 14 -10 18q-63 25 -131 25q-145 0 -235 -100t-91 -273z" />
    <glyph glyph-name="Egrave" unicode="&#xc8;" horiz-adv-x="614" 
d="M469 765l-182 106l48 63l163 -131zM538 668h-261l-37 -274h274l-8 -56h-274l-39 -282h282q14 0 17 11l28 87h45l-21 -154h-501l4 39l63 7q10 1 13 5t5 15l82 591q2 11 0 15t-13 5l-60 7l5 40h480l-21 -150l-45 3l-3 78q-1 13 -15 13z" />
    <glyph glyph-name="Eacute" unicode="&#xc9;" horiz-adv-x="614" 
d="M542 872l-212 -106l-22 38l200 131zM538 668h-261l-37 -274h274l-8 -56h-274l-39 -282h282q14 0 17 11l28 87h45l-21 -154h-501l4 39l63 7q10 1 13 5t5 15l82 591q2 11 0 15t-13 5l-60 7l5 40h480l-21 -150l-45 3l-3 78q-1 13 -15 13z" />
    <glyph glyph-name="Ecircumflex" unicode="&#xca;" horiz-adv-x="614" 
d="M560 800l-40 -34l-107 84l-131 -84l-30 34l129 99h76zM538 668h-261l-37 -274h274l-8 -56h-274l-39 -282h282q14 0 17 11l28 87h45l-21 -154h-501l4 39l63 7q10 1 13 5t5 15l82 591q2 11 0 15t-13 5l-60 7l5 40h480l-21 -150l-45 3l-3 78q-1 13 -15 13z" />
    <glyph glyph-name="Edieresis" unicode="&#xcb;" horiz-adv-x="614" 
d="M520 880q44 0 44 -41q0 -25 -16 -41t-42 -16q-44 0 -44 41q0 25 16 41t42 16zM321 880q44 0 44 -41q0 -25 -16 -41t-42 -16q-44 0 -44 41q0 25 16 41t42 16zM538 668h-261l-37 -274h274l-8 -56h-274l-39 -282h282q14 0 17 11l28 87h45l-21 -154h-501l4 39l63 7q10 1 13 5
t5 15l82 591q2 11 0 15t-13 5l-60 7l5 40h480l-21 -150l-45 3l-3 78q-1 13 -15 13z" />
    <glyph glyph-name="Igrave" unicode="&#xcc;" horiz-adv-x="357" 
d="M323 765l-182 106l48 63l163 -131zM277 0h-244l4 39l73 7q10 0 13 4t5 16l83 592q1 12 -1 16t-12 4l-70 7l4 39h244l-4 -39l-77 -8q-11 -2 -14 -5t-4 -14l-83 -591q-2 -11 0 -15t13 -5l74 -8z" />
    <glyph glyph-name="Iacute" unicode="&#xcd;" horiz-adv-x="357" 
d="M396 872l-212 -106l-22 38l200 131zM277 0h-244l4 39l73 7q10 0 13 4t5 16l83 592q1 12 -1 16t-12 4l-70 7l4 39h244l-4 -39l-77 -8q-11 -2 -14 -5t-4 -14l-83 -591q-2 -11 0 -15t13 -5l74 -8z" />
    <glyph glyph-name="Icircumflex" unicode="&#xce;" horiz-adv-x="357" 
d="M414 800l-40 -34l-107 84l-131 -84l-30 34l129 99h76zM277 0h-244l4 39l73 7q10 0 13 4t5 16l83 592q1 12 -1 16t-12 4l-70 7l4 39h244l-4 -39l-77 -8q-11 -2 -14 -5t-4 -14l-83 -591q-2 -11 0 -15t13 -5l74 -8z" />
    <glyph glyph-name="Idieresis" unicode="&#xcf;" horiz-adv-x="357" 
d="M374 880q44 0 44 -41q0 -25 -16 -41t-42 -16q-44 0 -44 41q0 25 16 41t42 16zM175 880q44 0 44 -41q0 -25 -16 -41t-42 -16q-44 0 -44 41q0 25 16 41t42 16zM277 0h-244l4 39l73 7q10 0 13 4t5 16l83 592q1 12 -1 16t-12 4l-70 7l4 39h244l-4 -39l-77 -8q-11 -2 -14 -5
t-4 -14l-83 -591q-2 -11 0 -15t13 -5l74 -8z" />
    <glyph glyph-name="Eth" unicode="&#xd0;" horiz-adv-x="762" 
d="M326 57q165 1 254 97t89 272q-1 130 -67 186t-191 56h-129l-38 -270h207l-7 -56h-207l-39 -285h128zM317 0h-270l6 40l62 7q15 2 17 18l39 277h-100l7 56h101l36 260q3 18 -13 20l-61 7l6 39h283q156 0 232 -78t77 -217q0 -197 -106 -313t-316 -116z" />
    <glyph glyph-name="Ntilde" unicode="&#xd1;" horiz-adv-x="816" 
d="M588 782q-22 0 -36 4l-132 36q-10 3 -16 -3l-48 -41l-32 27l35 41q33 39 63 39q10 0 24 -3l137 -37q10 -3 17 3l44 39l33 -27l-28 -32q-39 -46 -61 -46zM645 0h-82l-288 646l-81 -579q-2 -11 0 -15t13 -5l65 -8l-4 -39h-224l3 39l63 7q10 1 13 5t5 15l83 591q1 11 -1 15
t-12 5l-60 7l5 40h170l281 -641l78 575q2 12 0 16t-13 4l-61 7l5 39h224l-5 -39l-67 -8q-11 -1 -14 -5t-5 -14z" />
    <glyph glyph-name="Ograve" unicode="&#xd2;" horiz-adv-x="750" 
d="M521 765l-182 106l48 63l163 -131zM132 298q0 -251 222 -251q134 0 220 101t87 285q0 57 -14 104q-42 141 -202 141q-137 0 -225 -100t-88 -280zM346 -12q-142 0 -213 82t-71 219q0 200 102 324t289 124q137 -1 207 -81t70 -211q0 -213 -103 -335t-281 -122z" />
    <glyph glyph-name="Oacute" unicode="&#xd3;" horiz-adv-x="750" 
d="M594 872l-212 -106l-22 38l200 131zM132 298q0 -251 222 -251q134 0 220 101t87 285q0 57 -14 104q-42 141 -202 141q-137 0 -225 -100t-88 -280zM346 -12q-142 0 -213 82t-71 219q0 200 102 324t289 124q137 -1 207 -81t70 -211q0 -213 -103 -335t-281 -122z" />
    <glyph glyph-name="Ocircumflex" unicode="&#xd4;" horiz-adv-x="750" 
d="M612 800l-40 -34l-107 84l-131 -84l-30 34l129 99h76zM132 298q0 -251 222 -251q134 0 220 101t87 285q0 57 -14 104q-42 141 -202 141q-137 0 -225 -100t-88 -280zM346 -12q-142 0 -213 82t-71 219q0 200 102 324t289 124q137 -1 207 -81t70 -211q0 -213 -103 -335
t-281 -122z" />
    <glyph glyph-name="Otilde" unicode="&#xd5;" horiz-adv-x="750" 
d="M554 782q-22 0 -36 4l-132 36q-10 3 -16 -3l-48 -41l-32 27l35 41q33 39 53 39t34 -3l137 -37q10 -3 17 3l44 39l33 -27l-28 -32q-39 -46 -61 -46zM132 298q0 -251 222 -251q134 0 220 101t87 285q0 57 -14 104q-42 141 -202 141q-137 0 -225 -100t-88 -280zM346 -12
q-142 0 -213 82t-71 219q0 200 102 324t289 124q137 -1 207 -81t70 -211q0 -213 -103 -335t-281 -122z" />
    <glyph glyph-name="Odieresis" unicode="&#xd6;" horiz-adv-x="750" 
d="M572 880q44 0 44 -41q0 -25 -16 -41t-42 -16q-44 0 -44 41q0 25 16 41t42 16zM373 880q44 0 44 -41q0 -25 -16 -41t-42 -16q-44 0 -44 41q0 25 16 41t42 16zM132 298q0 -251 222 -251q134 0 220 101t87 285q0 57 -14 104q-42 141 -202 141q-137 0 -225 -100t-88 -280z
M346 -12q-142 0 -213 82t-71 219q0 200 102 324t289 124q137 -1 207 -81t70 -211q0 -213 -103 -335t-281 -122z" />
    <glyph glyph-name="multiply" unicode="&#xd7;" 
d="M470 427l-123 -109l90 -107l-55 -48l-90 106l-123 -109l-43 51l123 109l-92 110l55 48l92 -109l123 109z" />
    <glyph glyph-name="Oslash" unicode="&#xd8;" horiz-adv-x="750" 
d="M445 678q-137 0 -225 -100t-88 -261t76 -225l320 573q-36 13 -83 13zM354 47q134 0 220 101t87 264q0 163 -81 226l-321 -575q39 -16 95 -16zM62 299q0 190 102 314t289 124q56 0 106 -16l38 68h67l-52 -93q118 -73 118 -251q0 -213 -103 -335t-281 -122q-64 0 -118 19
l-47 -85h-68l62 111q-113 76 -113 266z" />
    <glyph glyph-name="Ugrave" unicode="&#xd9;" horiz-adv-x="769" 
d="M529 765l-182 106l48 63l163 -131zM355 -12q-219 0 -219 191q0 30 4 57l56 422q3 18 -12 20l-61 7l6 39h224l-6 -39l-66 -8q-11 -1 -14 -5t-5 -14l-57 -418q-4 -25 -4 -53q0 -77 41 -109q40 -32 128 -31q88 0 138 43t65 148l57 420q1 12 -1 16t-12 4l-61 7l6 39h224
l-6 -39l-66 -8q-10 -1 -14 -5t-5 -14l-58 -425q-17 -129 -85 -187t-197 -58z" />
    <glyph glyph-name="Uacute" unicode="&#xda;" horiz-adv-x="769" 
d="M602 872l-212 -106l-22 38l200 131zM355 -12q-219 0 -219 191q0 30 4 57l56 422q3 18 -12 20l-61 7l6 39h224l-6 -39l-66 -8q-11 -1 -14 -5t-5 -14l-57 -418q-4 -25 -4 -53q0 -77 41 -109q40 -32 128 -31q88 0 138 43t65 148l57 420q1 12 -1 16t-12 4l-61 7l6 39h224
l-6 -39l-66 -8q-10 -1 -14 -5t-5 -14l-58 -425q-17 -129 -85 -187t-197 -58z" />
    <glyph glyph-name="Ucircumflex" unicode="&#xdb;" horiz-adv-x="769" 
d="M620 800l-40 -34l-107 84l-131 -84l-30 34l129 99h76zM355 -12q-219 0 -219 191q0 30 4 57l56 422q3 18 -12 20l-61 7l6 39h224l-6 -39l-66 -8q-11 -1 -14 -5t-5 -14l-57 -418q-4 -25 -4 -53q0 -77 41 -109q40 -32 128 -31q88 0 138 43t65 148l57 420q1 12 -1 16t-12 4
l-61 7l6 39h224l-6 -39l-66 -8q-10 -1 -14 -5t-5 -14l-58 -425q-17 -129 -85 -187t-197 -58z" />
    <glyph glyph-name="Udieresis" unicode="&#xdc;" horiz-adv-x="769" 
d="M570 880q44 0 44 -41q0 -25 -16 -41t-42 -16q-44 0 -44 41q0 25 16 41t42 16zM371 880q44 0 44 -41q0 -25 -16 -41t-42 -16q-44 0 -44 41q0 25 16 41t42 16zM355 -12q-219 0 -219 191q0 30 4 57l56 422q3 18 -12 20l-61 7l6 39h224l-6 -39l-66 -8q-11 -1 -14 -5t-5 -14
l-57 -418q-4 -25 -4 -53q0 -77 41 -109q40 -32 128 -31q88 0 138 43t65 148l57 420q1 12 -1 16t-12 4l-61 7l6 39h224l-6 -39l-66 -8q-10 -1 -14 -5t-5 -14l-58 -425q-17 -129 -85 -187t-197 -58z" />
    <glyph glyph-name="Yacute" unicode="&#xdd;" horiz-adv-x="584" 
d="M519 872l-212 -106l-22 38l200 131zM416 0h-283l5 39l93 7q14 2 17 21l30 217l-146 373q-7 12 -21 17l-43 11l6 39h200l-6 -39l-73 -9l123 -329l209 329l-71 9l6 39h196l-6 -39l-42 -11q-17 -5 -28 -21l-238 -366l-29 -220q-2 -13 0 -16t13 -4l93 -8z" />
    <glyph glyph-name="Thorn" unicode="&#xde;" horiz-adv-x="641" 
d="M554 411q0 130 -168 130h-129l-46 -336h108q174 -1 217 101q18 42 18 105zM411 597q111 0 161 -50t51 -134q0 -264 -303 -264h-117l-11 -81q-1 -12 1 -16t12 -4l139 -8l-5 -40h-298l5 40l63 7q11 1 15 5t4 15l82 591q3 18 -14 20l-60 7l5 39h231l-4 -39l-77 -8
q-16 -2 -18 -19l-8 -61h146z" />
    <glyph glyph-name="germandbls" unicode="&#xdf;" horiz-adv-x="617" 
d="M352 766q70 0 108 -12q104 -33 104 -134q0 -62 -78 -129q-56 -45 -67 -63q-12 -19 -12 -33q-1 -13 3 -23t8 -16t15 -16q10 -10 16 -14t20 -15q14 -10 35 -26q63 -47 63 -129t-54 -125q-53 -43 -123 -43q-126 0 -179 32l18 123l47 -3l3 -69q0 -10 9 -13q44 -17 96 -17
t84 28q32 29 31 73q1 44 -17 68t-36 38q-18 12 -30 21q-13 9 -17 12q-5 3 -15 11t-14 14q-29 36 -29 70q0 33 15 61t65 73q50 44 63 66t13 52q1 32 -33 56t-100 25q-131 0 -151 -140l-111 -781h-66l113 786q15 108 73 150t130 42z" />
    <glyph glyph-name="agrave" unicode="&#xe0;" 
d="M418 601l-37 -32l-155 139l59 53zM289 463q-49 0 -85 -27t-65 -92t-29 -162q0 -135 98 -135q46 0 92 36t98 94l32 225q-61 61 -141 61zM194 -12q-149 0 -149 187q1 128 55 231q60 115 200 115q72 0 139 -56l15 46h66q-20 -78 -26 -119l-46 -326q-2 -12 0 -16t14 -4l50 -7
l-6 -39h-128l13 94l-3 1q-50 -51 -96 -79t-98 -28z" />
    <glyph glyph-name="aacute" unicode="&#xe1;" 
d="M462 701l-184 -132l-29 35l166 153zM289 463q-49 0 -85 -27t-65 -92t-29 -162q0 -135 98 -135q46 0 92 36t98 94l32 225q-61 61 -141 61zM194 -12q-149 0 -149 187q1 128 55 231q60 115 200 115q72 0 139 -56l15 46h66q-20 -78 -26 -119l-46 -326q-2 -12 0 -16t14 -4
l50 -7l-6 -39h-128l13 94l-3 1q-50 -51 -96 -79t-98 -28z" />
    <glyph glyph-name="acircumflex" unicode="&#xe2;" 
d="M497 609l-43 -33l-114 104l-144 -104l-33 33l146 120h76zM289 463q-49 0 -85 -27t-65 -92t-29 -162q0 -135 98 -135q46 0 92 36t98 94l32 225q-61 61 -141 61zM194 -12q-149 0 -149 187q1 128 55 231q60 115 200 115q72 0 139 -56l15 46h66q-20 -78 -26 -119l-46 -326
q-2 -12 0 -16t14 -4l50 -7l-6 -39h-128l13 94l-3 1q-50 -51 -96 -79t-98 -28z" />
    <glyph glyph-name="atilde" unicode="&#xe3;" 
d="M422 591q-22 0 -36 4l-132 36q-10 3 -16 -3l-48 -41l-32 27l35 41q33 39 54 39t41 -5l129 -35q10 -3 17 3l44 39l33 -27l-28 -32q-39 -46 -61 -46zM289 463q-49 0 -85 -27t-65 -92t-29 -162q0 -135 98 -135q46 0 92 36t98 94l32 225q-61 61 -141 61zM194 -12
q-149 0 -149 187q1 128 55 231q60 115 200 115q72 0 139 -56l15 46h66q-20 -78 -26 -119l-46 -326q-2 -12 0 -16t14 -4l50 -7l-6 -39h-128l13 94l-3 1q-50 -51 -96 -79t-98 -28z" />
    <glyph glyph-name="adieresis" unicode="&#xe4;" 
d="M239 609q-45 0 -45 41q0 25 16 41t42 16q44 0 44 -41q0 -24 -16 -40t-41 -17zM438 609q-45 0 -45 41q0 25 16 41t42 16q44 0 44 -41q1 -24 -15 -40t-42 -17zM289 463q-49 0 -85 -27t-65 -92t-29 -162q0 -135 98 -135q46 0 92 36t98 94l32 225q-61 61 -141 61zM194 -12
q-149 0 -149 187q1 128 55 231q60 115 200 115q72 0 139 -56l15 46h66q-20 -78 -26 -119l-46 -326q-2 -12 0 -16t14 -4l50 -7l-6 -39h-128l13 94l-3 1q-50 -51 -96 -79t-98 -28z" />
    <glyph glyph-name="aring" unicode="&#xe5;" 
d="M332 601q20 -1 32 13t13 36q0 31 -35 31q-21 0 -33 -13t-12 -34q0 -33 35 -33zM325 560q-76 0 -76 71q0 41 27 67q28 26 68 27q82 0 81 -69q-1 -44 -27 -70t-73 -26zM289 463q-49 0 -85 -27t-65 -92t-29 -162q0 -135 98 -135q46 0 92 36t98 94l32 225q-61 61 -141 61z
M194 -12q-149 0 -149 187q1 128 55 231q60 115 200 115q72 0 139 -56l15 46h66q-20 -78 -26 -119l-46 -326q-2 -12 0 -16t14 -4l50 -7l-6 -39h-128l13 94l-3 1q-50 -51 -96 -79t-98 -28z" />
    <glyph glyph-name="ae" unicode="&#xe6;" horiz-adv-x="784" 
d="M698 401q0 61 -73 61t-124 -58t-68 -142l42 6q74 11 123 30q48 20 63 32q37 30 37 71zM297 463q-105 0 -146 -92t-41 -189q0 -135 98 -135q65 0 154 91q-3 21 -3 46q0 128 64 220q-70 59 -126 59zM194 -12q-149 0 -149 187q1 128 55 231q61 115 206 115q78 0 158 -74
q80 74 160 74q140 0 140 -115q0 -61 -45 -103q-70 -65 -293 -96q0 -81 27 -121t101 -40t150 37l15 -56q-73 -39 -172 -39q-129 0 -170 95q-97 -95 -183 -95z" />
    <glyph glyph-name="ccedilla" unicode="&#xe7;" horiz-adv-x="482" 
d="M113 203q0 -159 137 -159q80 0 143 37l18 -54q-56 -35 -149 -38l-9 -33q62 -16 62 -71q-1 -55 -39 -84t-82 -29t-65 7l11 46q16 -4 43 -4t51 14t23 43q0 43 -67 43l19 69q-164 18 -164 194t83 256q83 81 209 81q74 0 135 -27l-17 -123l-48 3l-3 66q0 23 -84 23t-146 -64
q-61 -64 -61 -196z" />
    <glyph glyph-name="egrave" unicode="&#xe8;" horiz-adv-x="470" 
d="M408 601l-37 -32l-155 139l59 53zM384 401q0 61 -73 61t-124 -58t-68 -141q265 27 265 138zM234 -12q-189 0 -189 203q1 133 77 231t196 99q70 0 101 -32t31 -76q0 -45 -17 -75t-50 -50q-70 -44 -144 -59t-127 -22q0 -81 28 -121t102 -40t147 37l15 -56q-74 -39 -170 -39
z" />
    <glyph glyph-name="eacute" unicode="&#xe9;" horiz-adv-x="470" 
d="M452 701l-184 -132l-29 35l166 153zM384 401q0 61 -73 61t-124 -58t-68 -141q265 27 265 138zM234 -12q-189 0 -189 203q1 133 77 231t196 99q70 0 101 -32t31 -76q0 -45 -17 -75t-50 -50q-70 -44 -144 -59t-127 -22q0 -81 28 -121t102 -40t147 37l15 -56
q-74 -39 -170 -39z" />
    <glyph glyph-name="ecircumflex" unicode="&#xea;" horiz-adv-x="470" 
d="M487 609l-43 -33l-114 104l-144 -104l-33 33l146 120h76zM384 401q0 61 -73 61t-124 -58t-68 -141q265 27 265 138zM234 -12q-189 0 -189 203q1 133 77 231t196 99q70 0 101 -32t31 -76q0 -45 -17 -75t-50 -50q-70 -44 -144 -59t-127 -22q0 -81 28 -121t102 -40t147 37
l15 -56q-74 -39 -170 -39z" />
    <glyph glyph-name="edieresis" unicode="&#xeb;" horiz-adv-x="470" 
d="M222 609q-45 0 -45 41q0 25 16 41t42 16q44 0 44 -41q1 -24 -15 -40t-42 -17zM421 609q-45 0 -45 41q0 25 16 41t42 16q44 0 44 -41q0 -24 -16 -40t-41 -17zM384 401q0 61 -73 61t-124 -58t-68 -141q265 27 265 138zM234 -12q-189 0 -189 203q1 133 77 231t196 99
q70 0 101 -32t31 -76q0 -45 -17 -75t-50 -50q-70 -44 -144 -59t-127 -22q0 -81 28 -121t102 -40t147 37l15 -56q-74 -39 -170 -39z" />
    <glyph glyph-name="igrave" unicode="&#xec;" horiz-adv-x="286" 
d="M242 594l-37 -32l-155 139l59 53zM227 0h-150l-2 4l20 106l47 330q3 17 -11 21l-54 13l5 37h136l-63 -444q-1 -11 1 -15t13 -5l64 -8z" />
    <glyph glyph-name="iacute" unicode="&#xed;" horiz-adv-x="286" 
d="M286 695l-184 -132l-29 35l166 153zM227 0h-150l-2 4l20 106l47 330q3 17 -11 21l-54 13l5 37h136l-63 -444q-1 -11 1 -15t13 -5l64 -8z" />
    <glyph glyph-name="icircumflex" unicode="&#xee;" horiz-adv-x="286" 
d="M227 0h-150l-2 4l20 106l47 330q3 17 -11 21l-54 13l5 37h136l-63 -444q-1 -11 1 -15t13 -5l64 -8zM324 609l-43 -33l-97 104l-127 -104l-33 33l129 120h76z" />
    <glyph glyph-name="idieresis" unicode="&#xef;" horiz-adv-x="286" 
d="M227 0h-150l-2 4l20 106l47 330q3 17 -11 21l-54 13l5 37h136l-63 -444q-1 -11 1 -15t13 -5l64 -8zM82 609q-45 0 -45 41q0 25 16 41t42 16q44 0 44 -41q1 -24 -15 -40t-42 -17zM249 609q-45 0 -45 41q0 25 16 41t42 16q44 0 44 -41q0 -24 -16 -40t-41 -17z" />
    <glyph glyph-name="eth" unicode="&#xf0;" horiz-adv-x="557" 
d="M116 206q0 -163 133 -163q114 -1 164 113q42 95 48 222q-22 24 -62 44t-87 20q-92 0 -144 -64t-52 -172zM244 -12q-198 0 -198 230q0 115 72 199t194 84q87 0 149 -54q-13 115 -68 179l-121 -60l-24 47l103 51q-53 36 -137 51l24 47q109 -15 173 -68l112 56l23 -48
l-97 -48q77 -97 77 -261q0 -163 -60 -275q-70 -130 -222 -130z" />
    <glyph glyph-name="ntilde" unicode="&#xf1;" horiz-adv-x="619" 
d="M452 591q-22 0 -36 4l-132 36q-10 3 -16 -3l-48 -41l-32 27l35 41q31 39 53 39t42 -5l129 -35q10 -3 17 3l44 39l33 -27l-28 -32q-39 -46 -61 -46zM420 521q118 0 118 -120q0 -29 -5 -61l-39 -273q-2 -11 0 -15t14 -5l58 -8l-6 -39h-145l-2 3l19 108l30 209q6 39 6 73
t-13 50t-48 16q-74 0 -213 -127l-36 -265q-2 -11 0 -15t14 -5l67 -8l-6 -39h-216l6 40l50 7q11 1 15 5t4 15l51 371q3 18 -9 21l-55 15l5 37h133l-15 -104q136 114 218 114z" />
    <glyph glyph-name="ograve" unicode="&#xf2;" horiz-adv-x="552" 
d="M418 601l-37 -32l-155 139l59 53zM112 200q0 -157 140 -157q91 1 144 71t53 209t-135 139q-94 0 -148 -68t-54 -194zM258 -12q-214 0 -213 206q0 146 72 236t205 91q100 -1 148 -57t47 -150q0 -152 -72 -239q-73 -87 -187 -87z" />
    <glyph glyph-name="oacute" unicode="&#xf3;" horiz-adv-x="552" 
d="M462 701l-184 -132l-29 35l166 153zM112 200q0 -157 140 -157q91 1 144 71t53 209t-135 139q-94 0 -148 -68t-54 -194zM258 -12q-214 0 -213 206q0 146 72 236t205 91q100 -1 148 -57t47 -150q0 -152 -72 -239q-73 -87 -187 -87z" />
    <glyph glyph-name="ocircumflex" unicode="&#xf4;" horiz-adv-x="552" 
d="M497 609l-43 -33l-114 104l-144 -104l-33 33l146 120h76zM112 200q0 -157 140 -157q91 1 144 71t53 209t-135 139q-94 0 -148 -68t-54 -194zM258 -12q-214 0 -213 206q0 146 72 236t205 91q100 -1 148 -57t47 -150q0 -152 -72 -239q-73 -87 -187 -87z" />
    <glyph glyph-name="otilde" unicode="&#xf5;" horiz-adv-x="552" 
d="M418 591q-22 0 -36 4l-132 36q-10 3 -16 -3l-48 -41l-32 27l35 41q31 39 53 39t42 -5l129 -35q10 -3 17 3l44 39l33 -27l-28 -32q-39 -46 -61 -46zM112 200q0 -157 140 -157q91 1 144 71t53 209t-135 139q-94 0 -148 -68t-54 -194zM258 -12q-214 0 -213 206q0 146 72 236
t205 91q100 -1 148 -57t47 -150q0 -152 -72 -239q-73 -87 -187 -87z" />
    <glyph glyph-name="odieresis" unicode="&#xf6;" horiz-adv-x="552" 
d="M232 609q-45 0 -45 41q0 25 16 41t42 16q44 0 44 -41q1 -24 -15 -40t-42 -17zM431 609q-45 0 -45 41q0 25 16 41t42 16q44 0 44 -41q0 -24 -16 -40t-41 -17zM112 200q0 -157 140 -157q91 1 144 71t53 209t-135 139q-94 0 -148 -68t-54 -194zM258 -12q-214 0 -213 206
q0 146 72 236t205 91q100 -1 148 -57t47 -150q0 -152 -72 -239q-73 -87 -187 -87z" />
    <glyph glyph-name="divide" unicode="&#xf7;" 
d="M368 483q0 -67 -67 -67q-50 0 -50 47q0 67 66 67q51 0 51 -47zM476 288h-373l10 66h373zM326 181q0 -67 -67 -67q-51 0 -51 47q0 67 67 67q51 0 51 -47z" />
    <glyph glyph-name="oslash" unicode="&#xf8;" horiz-adv-x="552" 
d="M112 200q0 -76 33 -115l217 371q-22 6 -48 6q-94 0 -148 -68t-54 -194zM252 43q91 1 144 71t53 201q0 74 -37 113l-219 -376q25 -9 59 -9zM45 210q0 130 72 220t205 91q37 0 72 -10l43 73h66l-57 -98q71 -52 71 -188t-72 -223t-200 -87q-47 0 -83 12l-53 -92h-67l69 119
q-66 53 -66 183z" />
    <glyph glyph-name="ugrave" unicode="&#xf9;" horiz-adv-x="616" 
d="M436 601l-37 -32l-155 139l59 53zM164 117q0 -67 62 -67q34 0 81 27t71 47t61 55l36 265q1 12 -1 16t-13 4l-62 8l6 39h144l2 -3l-62 -443q-3 -17 9 -18l57 -9l-5 -38h-134l16 104q-65 -56 -116 -86t-102 -30q-118 0 -118 120q0 29 5 61l39 275q2 12 0 16t-14 4l-53 8
l6 39h134l2 -3l-45 -319q-6 -39 -6 -72z" />
    <glyph glyph-name="uacute" unicode="&#xfa;" horiz-adv-x="616" 
d="M480 701l-184 -132l-29 35l166 153zM164 117q0 -67 62 -67q34 0 81 27t71 47t61 55l36 265q1 12 -1 16t-13 4l-62 8l6 39h144l2 -3l-62 -443q-3 -17 9 -18l57 -9l-5 -38h-134l16 104q-65 -56 -116 -86t-102 -30q-118 0 -118 120q0 29 5 61l39 275q2 12 0 16t-14 4l-53 8
l6 39h134l2 -3l-45 -319q-6 -39 -6 -72z" />
    <glyph glyph-name="ucircumflex" unicode="&#xfb;" horiz-adv-x="616" 
d="M515 609l-43 -33l-114 104l-144 -104l-33 33l146 120h76zM164 117q0 -67 62 -67q34 0 81 27t71 47t61 55l36 265q1 12 -1 16t-13 4l-62 8l6 39h144l2 -3l-62 -443q-3 -17 9 -18l57 -9l-5 -38h-134l16 104q-65 -56 -116 -86t-102 -30q-118 0 -118 120q0 29 5 61l39 275
q2 12 0 16t-14 4l-53 8l6 39h134l2 -3l-45 -319q-6 -39 -6 -72z" />
    <glyph glyph-name="udieresis" unicode="&#xfc;" horiz-adv-x="616" 
d="M250 609q-45 0 -45 41q0 25 16 41t42 16q44 0 44 -41q1 -24 -15 -40t-42 -17zM449 609q-45 0 -45 41q0 25 16 41t42 16q44 0 44 -41q0 -24 -16 -40t-41 -17zM164 117q0 -67 62 -67q34 0 81 27t71 47t61 55l36 265q1 12 -1 16t-13 4l-62 8l6 39h144l2 -3l-62 -443
q-3 -17 9 -18l57 -9l-5 -38h-134l16 104q-65 -56 -116 -86t-102 -30q-118 0 -118 120q0 29 5 61l39 275q2 12 0 16t-14 4l-53 8l6 39h134l2 -3l-45 -319q-6 -39 -6 -72z" />
    <glyph glyph-name="yacute" unicode="&#xfd;" horiz-adv-x="506" 
d="M422 701l-184 -132l-29 35l166 153zM28 -166q45 0 68 23t55 84l42 79l-102 427q-3 13 -17 17l-41 10l8 37h111l3 -4l22 -125l61 -279l176 360l-62 11l4 37h148l5 -7l-295 -579q-42 -82 -78 -115t-109 -33q-72 0 -113 41l32 47q37 -31 82 -31z" />
    <glyph glyph-name="thorn" unicode="&#xfe;" horiz-adv-x="571" 
d="M469 321q0 138 -87 138q-76 0 -200 -124l-30 -215q62 -76 137 -76q47 0 83 26t67 92q30 64 30 159zM386 521q150 0 150 -193q0 -156 -78 -260q-60 -80 -154 -80q-95 0 -162 65l-25 -194q-2 -13 0 -16t12 -4l88 -7l-6 -44h-170l-4 4l16 84l114 806q2 18 -9 21l-55 15l5 37
h134l-49 -341q119 107 193 107z" />
    <glyph glyph-name="ydieresis" unicode="&#xff;" horiz-adv-x="506" 
d="M192 609q-45 0 -45 41q0 25 16 41t42 16q44 0 44 -41q1 -24 -15 -40t-42 -17zM391 609q-45 0 -45 41q0 25 16 41t42 16q44 0 44 -41q0 -24 -16 -40t-41 -17zM28 -166q45 0 68 23t55 84l42 79l-102 427q-3 13 -17 17l-41 10l8 37h111l3 -4l22 -125l61 -279l176 360l-62 11
l4 37h148l5 -7l-295 -579q-42 -82 -78 -115t-109 -33q-72 0 -113 41l32 47q37 -31 82 -31z" />
    <glyph glyph-name="Amacron" unicode="&#x100;" horiz-adv-x="681" 
d="M574 797h-303l8 57h303zM478 292l-75 379l-173 -379h248zM646 0h-214l6 37l86 9l-35 187h-286l-86 -187l77 -9l-6 -37h-203l6 37l42 11q21 5 30 24l303 652h89l133 -659q3 -13 21 -17l43 -11z" />
    <glyph glyph-name="amacron" unicode="&#x101;" 
d="M490 616h-303l8 57h303zM289 463q-49 0 -85 -27t-65 -92t-29 -162q0 -135 98 -135q46 0 92 36t98 94l32 225q-61 61 -141 61zM194 -12q-149 0 -149 187q1 128 55 231q60 115 200 115q72 0 139 -56l15 46h66q-20 -78 -26 -119l-46 -326q-2 -12 0 -16t14 -4l50 -7l-6 -39
h-128l13 94l-3 1q-50 -51 -96 -79t-98 -28z" />
    <glyph glyph-name="Abreve" unicode="&#x102;" horiz-adv-x="681" 
d="M415 782q-120 0 -135 112l50 17q16 -74 92 -74q36 0 63 15t49 60l47 -18q-46 -112 -166 -112zM478 292l-75 379l-173 -379h248zM646 0h-214l6 37l86 9l-35 187h-286l-86 -187l77 -9l-6 -37h-203l6 37l42 11q21 5 30 24l303 652h89l133 -659q3 -13 21 -17l43 -11z" />
    <glyph glyph-name="abreve" unicode="&#x103;" 
d="M328 573q-130 0 -145 132l50 19q11 -50 35 -73t69 -23q85 0 130 96l46 -19q-55 -132 -185 -132zM289 463q-49 0 -85 -27t-65 -92t-29 -162q0 -135 98 -135q46 0 92 36t98 94l32 225q-61 61 -141 61zM194 -12q-149 0 -149 187q1 128 55 231q60 115 200 115q72 0 139 -56
l15 46h66q-20 -78 -26 -119l-46 -326q-2 -12 0 -16t14 -4l50 -7l-6 -39h-128l13 94l-3 1q-50 -51 -96 -79t-98 -28z" />
    <glyph glyph-name="Aogonek" unicode="&#x104;" horiz-adv-x="681" 
d="M478 292l-75 379l-173 -379h248zM486 -212q-74 0 -74 60q0 74 105 152h-85l6 37l86 9l-35 187h-286l-86 -187l77 -9l-6 -37h-203l6 37l42 11q21 5 30 24l303 652h89l133 -659q3 -13 21 -17l43 -11l-6 -37h-57q-104 -74 -104 -129q0 -26 27 -26q20 0 49 12l11 -49
q-45 -20 -86 -20z" />
    <glyph glyph-name="aogonek" unicode="&#x105;" 
d="M289 463q-49 0 -85 -27t-65 -92t-29 -162q0 -135 98 -135q46 0 92 36t98 94l32 225q-61 61 -141 61zM194 -12q-149 0 -149 187q1 128 55 231q60 115 200 115q72 0 139 -56l15 46h66q-20 -78 -26 -119l-46 -326q-2 -12 0 -16t14 -4l50 -7l-6 -39q-46 -22 -84 -58t-37 -66
q0 -30 27 -31q20 0 49 12l11 -49q-45 -20 -86 -20q-74 0 -74 60q0 80 112 152h-46l13 94l-3 1q-50 -51 -96 -79t-98 -28z" />
    <glyph glyph-name="Cacute" unicode="&#x106;" horiz-adv-x="659" 
d="M597 872l-212 -106l-22 38l200 131zM135 305q0 -259 228 -259q98 0 156 25q10 4 14 17l29 89h46l-19 -137q-81 -52 -233 -52t-222 84t-69 226q0 196 106 318t299 121q135 0 206 -53l-20 -146l-50 3l-4 94q0 14 -10 18q-63 25 -131 25q-145 0 -235 -100t-91 -273z" />
    <glyph glyph-name="cacute" unicode="&#x107;" horiz-adv-x="482" 
d="M472 701l-184 -132l-29 35l166 153zM113 203q0 -159 137 -159q80 0 143 37l18 -54q-63 -39 -165 -39q-201 0 -201 205q0 166 83 247t209 81q74 0 135 -27l-17 -123l-48 3l-3 66q0 23 -84 23t-146 -64q-61 -64 -61 -196z" />
    <glyph glyph-name="Ccircumflex" unicode="&#x108;" horiz-adv-x="659" 
d="M615 800l-40 -34l-107 84l-131 -84l-30 34l129 99h76zM135 305q0 -259 228 -259q98 0 156 25q10 4 14 17l29 89h46l-19 -137q-81 -52 -233 -52t-222 84t-69 226q0 196 106 318t299 121q135 0 206 -53l-20 -146l-50 3l-4 94q0 14 -10 18q-63 25 -131 25q-145 0 -235 -100
t-91 -273z" />
    <glyph glyph-name="ccircumflex" unicode="&#x109;" horiz-adv-x="482" 
d="M507 609l-43 -33l-114 104l-144 -104l-33 33l146 120h76zM113 203q0 -159 137 -159q80 0 143 37l18 -54q-63 -39 -165 -39q-201 0 -201 205q0 166 83 247t209 81q74 0 135 -27l-17 -123l-48 3l-3 66q0 23 -84 23t-146 -64q-61 -64 -61 -196z" />
    <glyph glyph-name="Cdotaccent" unicode="&#x10a;" horiz-adv-x="659" 
d="M478 888q47 0 47 -44q0 -26 -17 -44t-42 -18q-51 0 -51 44q0 26 17 44t46 18zM135 305q0 -259 228 -259q98 0 156 25q10 4 14 17l29 89h46l-19 -137q-81 -52 -233 -52t-222 84t-69 226q0 196 106 318t299 121q135 0 206 -53l-20 -146l-50 3l-4 94q0 14 -10 18
q-63 25 -131 25q-145 0 -235 -100t-91 -273z" />
    <glyph glyph-name="cdotaccent" unicode="&#x10b;" horiz-adv-x="482" 
d="M354 741q47 0 47 -44q0 -26 -17 -44t-42 -18q-51 0 -51 44q0 27 17 45t46 17zM113 203q0 -159 137 -159q80 0 143 37l18 -54q-63 -39 -165 -39q-201 0 -201 205q0 166 83 247t209 81q74 0 135 -27l-17 -123l-48 3l-3 66q0 23 -84 23t-146 -64q-61 -64 -61 -196z" />
    <glyph glyph-name="Ccaron" unicode="&#x10c;" horiz-adv-x="659" 
d="M622 875l-129 -99h-76l-103 99l40 34l107 -84l131 84zM135 305q0 -259 228 -259q98 0 156 25q10 4 14 17l29 89h46l-19 -137q-81 -52 -233 -52t-222 84t-69 226q0 196 106 318t299 121q135 0 206 -53l-20 -146l-50 3l-4 94q0 14 -10 18q-63 25 -131 25q-145 0 -235 -100
t-91 -273z" />
    <glyph glyph-name="ccaron" unicode="&#x10d;" horiz-adv-x="482" 
d="M517 696l-148 -120h-76l-109 119l42 34l112 -104l146 104zM113 203q0 -159 137 -159q80 0 143 37l18 -54q-63 -39 -165 -39q-201 0 -201 205q0 166 83 247t209 81q74 0 135 -27l-17 -123l-48 3l-3 66q0 23 -84 23t-146 -64q-61 -64 -61 -196z" />
    <glyph glyph-name="Dcaron" unicode="&#x10e;" horiz-adv-x="757" 
d="M582 875l-129 -99h-76l-103 99l40 34l107 -84l131 84zM321 57q165 1 254 97t89 272q0 130 -66 186t-192 56h-129l-84 -611h128zM312 0h-270l6 40l62 7q15 2 17 18l83 593q3 18 -13 20l-61 7l6 39h283q157 0 233 -78t76 -217q0 -197 -106 -313t-316 -116z" />
    <glyph glyph-name="dcaron" unicode="&#x10f;" horiz-adv-x="644" 
d="M615 678q0 34 -7 55l61 28q20 -23 20 -54t-70 -147l-37 15q33 69 33 103zM110 179q0 -132 97 -132q33 0 71 23q38 22 63 46q24 24 58 62l32 223q-57 62 -146 62q-45 1 -81 -27t-66 -93q-28 -65 -28 -164zM203 -12q-158 0 -158 187q0 123 52 227q61 118 203 119
q74 0 140 -56l29 220q2 17 -10 20l-55 13l5 37h136l-97 -689q-2 -12 0 -16t14 -4l50 -7l-5 -39h-129l13 92l-3 2q-106 -106 -185 -106z" />
    <glyph glyph-name="Dcroat" unicode="&#x110;" horiz-adv-x="762" 
d="M326 57q165 1 254 97t89 272q-1 130 -67 186t-191 56h-129l-38 -270h207l-7 -56h-207l-39 -285h128zM317 0h-270l6 40l62 7q15 2 17 18l39 277h-100l7 56h101l36 260q3 18 -13 20l-61 7l6 39h283q156 0 232 -78t77 -217q0 -197 -106 -313t-316 -116z" />
    <glyph glyph-name="dcroat" unicode="&#x111;" horiz-adv-x="574" 
d="M282 443q-44 -1 -80 -25t-64 -82t-28 -157q0 -132 97 -132q33 0 71 23q38 22 63 46q24 24 58 62l29 203q-58 62 -146 62zM203 -12q-158 0 -158 187q0 121 57 224q57 102 187 102q82 0 148 -56l17 131h-200l7 56h201l7 53q2 17 -10 20l-55 13l5 37h136l-18 -123h65l-7 -56
h-66l-71 -510q-2 -12 0 -16t14 -4l50 -7l-5 -39h-129l13 92l-3 2q-106 -106 -185 -106z" />
    <glyph glyph-name="Emacron" unicode="&#x112;" horiz-adv-x="614" 
d="M562 797h-303l8 57h303zM538 668h-261l-37 -274h274l-8 -56h-274l-39 -282h282q14 0 17 11l28 87h45l-21 -154h-501l4 39l63 7q10 1 13 5t5 15l82 591q2 11 0 15t-13 5l-60 7l5 40h480l-21 -150l-45 3l-3 78q-1 13 -15 13z" />
    <glyph glyph-name="emacron" unicode="&#x113;" horiz-adv-x="470" 
d="M480 616h-303l8 57h303zM384 401q0 61 -73 61t-124 -58t-68 -141q265 27 265 138zM234 -12q-189 0 -189 203q1 133 77 231t196 99q70 0 101 -32t31 -76q0 -45 -17 -75t-50 -50q-70 -44 -144 -59t-127 -22q0 -81 28 -121t102 -40t147 37l15 -56q-74 -39 -170 -39z" />
    <glyph glyph-name="Ebreve" unicode="&#x114;" horiz-adv-x="614" 
d="M403 782q-120 0 -135 112l50 17q16 -74 92 -74q36 0 63 15t49 60l47 -18q-46 -112 -166 -112zM538 668h-261l-37 -274h274l-8 -56h-274l-39 -282h282q14 0 17 11l28 87h45l-21 -154h-501l4 39l63 7q10 1 13 5t5 15l82 591q2 11 0 15t-13 5l-60 7l5 40h480l-21 -150l-45 3
l-3 78q-1 13 -15 13z" />
    <glyph glyph-name="ebreve" unicode="&#x115;" horiz-adv-x="470" 
d="M322 573q-130 0 -146 132l50 19q10 -50 34 -73t70 -23q85 0 130 96l46 -19q-54 -132 -184 -132zM384 401q0 61 -73 61t-124 -58t-68 -141q265 27 265 138zM234 -12q-189 0 -189 203q1 133 77 231t196 99q70 0 101 -32t31 -76q0 -45 -17 -75t-50 -50q-70 -44 -144 -59
t-127 -22q0 -81 28 -121t102 -40t147 37l15 -56q-74 -39 -170 -39z" />
    <glyph glyph-name="Edotaccent" unicode="&#x116;" horiz-adv-x="614" 
d="M423 888q47 0 47 -44q0 -26 -17 -44t-42 -18q-51 0 -51 44q0 26 17 44t46 18zM538 668h-261l-37 -274h274l-8 -56h-274l-39 -282h282q14 0 17 11l28 87h45l-21 -154h-501l4 39l63 7q10 1 13 5t5 15l82 591q2 11 0 15t-13 5l-60 7l5 40h480l-21 -150l-45 3l-3 78
q-1 13 -15 13z" />
    <glyph glyph-name="edotaccent" unicode="&#x117;" horiz-adv-x="470" 
d="M347 741q47 0 47 -44q0 -26 -17 -44t-42 -18q-51 0 -51 44q0 27 17 45t46 17zM384 401q0 61 -73 61t-124 -58t-68 -141q265 27 265 138zM234 -12q-189 0 -189 203q1 133 77 231t196 99q70 0 101 -32t31 -76q0 -45 -17 -75t-50 -50q-70 -44 -144 -59t-127 -22
q0 -81 28 -121t102 -40t147 37l15 -56q-74 -39 -170 -39z" />
    <glyph glyph-name="Eogonek" unicode="&#x118;" horiz-adv-x="614" 
d="M408 -212q-74 0 -74 65q0 78 116 147h-407l4 39l63 7q10 1 13 5t5 15l82 591q2 11 0 15t-13 5l-60 7l5 40h480l-21 -150l-45 3l-3 78q-1 13 -15 13h-261l-37 -274h274l-8 -56h-274l-39 -282h282q14 0 17 11l28 87h45l-21 -154q-55 -20 -96 -56t-41 -68q0 -31 27 -31
q20 0 49 12l11 -49q-45 -20 -86 -20z" />
    <glyph glyph-name="eogonek" unicode="&#x119;" horiz-adv-x="470" 
d="M384 401q0 61 -73 61t-124 -58t-68 -141q265 27 265 138zM254 -129q0 -26 27 -26q20 0 49 12l11 -49q-45 -20 -86 -20q-74 0 -74 60q0 69 92 142q-26 -2 -39 -2q-189 0 -189 203q1 133 77 231t196 99q70 0 101 -32t31 -76q0 -45 -17 -75t-50 -50q-70 -44 -144 -59
t-127 -22q0 -81 28 -121t102 -40t147 37l15 -56q-150 -82 -150 -156z" />
    <glyph glyph-name="Ecaron" unicode="&#x11a;" horiz-adv-x="614" 
d="M567 875l-129 -99h-76l-103 99l40 34l107 -84l131 84zM538 668h-261l-37 -274h274l-8 -56h-274l-39 -282h282q14 0 17 11l28 87h45l-21 -154h-501l4 39l63 7q10 1 13 5t5 15l82 591q2 11 0 15t-13 5l-60 7l5 40h480l-21 -150l-45 3l-3 78q-1 13 -15 13z" />
    <glyph glyph-name="ecaron" unicode="&#x11b;" horiz-adv-x="470" 
d="M506 696l-148 -120h-76l-109 119l42 34l112 -104l146 104zM384 401q0 61 -73 61t-124 -58t-68 -141q265 27 265 138zM234 -12q-189 0 -189 203q1 133 77 231t196 99q70 0 101 -32t31 -76q0 -45 -17 -75t-50 -50q-70 -44 -144 -59t-127 -22q0 -81 28 -121t102 -40t147 37
l15 -56q-74 -39 -170 -39z" />
    <glyph glyph-name="Gcircumflex" unicode="&#x11c;" horiz-adv-x="714" 
d="M615 800l-40 -34l-107 84l-131 -84l-30 34l129 99h76zM133 310q0 -263 253 -263q91 0 156 18q14 4 16 17l26 195h-143l18 55h255l-7 -45l-41 -4q-17 -1 -18 -14l-33 -243q-85 -38 -241 -38t-233 84t-77 220q0 134 45 232t138 155q93 58 226 58t203 -53l-19 -146l-50 3
l-4 94q0 14 -10 18q-62 25 -139 25q-144 0 -232 -98t-89 -270z" />
    <glyph glyph-name="gcircumflex" unicode="&#x11d;" horiz-adv-x="559" 
d="M494 609l-43 -33l-114 104l-144 -104l-33 33l146 120h76zM110 179q0 -132 97 -132q33 0 71 23q38 22 63 46q24 24 58 62l32 223q-57 62 -146 62q-45 1 -81 -27t-66 -93q-28 -65 -28 -164zM45 158q1 77 13 134q12 56 39 110t77 86t126 33q74 0 140 -56l15 46h66
q-21 -78 -28 -130l-57 -422q-26 -182 -209 -182q-116 0 -185 39l27 55q17 -12 59 -25t91 -13q131 0 151 130l20 133q-108 -108 -187 -108t-119 46t-39 124z" />
    <glyph glyph-name="Gbreve" unicode="&#x11e;" horiz-adv-x="714" 
d="M458 782q-120 0 -135 112l50 17q16 -74 92 -74q36 0 63 15t49 60l47 -18q-46 -112 -166 -112zM133 310q0 -263 253 -263q91 0 156 18q14 4 16 17l26 195h-143l18 55h255l-7 -45l-41 -4q-17 -1 -18 -14l-33 -243q-85 -38 -241 -38t-233 84t-77 220q0 134 45 232t138 155
q93 58 226 58t203 -53l-19 -146l-50 3l-4 94q0 14 -10 18q-62 25 -139 25q-144 0 -232 -98t-89 -270z" />
    <glyph glyph-name="gbreve" unicode="&#x11f;" horiz-adv-x="559" 
d="M320 573q-130 0 -146 132l50 19q10 -50 34 -73t70 -23q85 0 130 96l46 -19q-54 -132 -184 -132zM110 179q0 -132 97 -132q33 0 71 23q38 22 63 46q24 24 58 62l32 223q-57 62 -146 62q-45 1 -81 -27t-66 -93q-28 -65 -28 -164zM45 158q1 77 13 134q12 56 39 110t77 86
t126 33q74 0 140 -56l15 46h66q-21 -78 -28 -130l-57 -422q-26 -182 -209 -182q-116 0 -185 39l27 55q17 -12 59 -25t91 -13q131 0 151 130l20 133q-108 -108 -187 -108t-119 46t-39 124z" />
    <glyph glyph-name="Gdotaccent" unicode="&#x120;" horiz-adv-x="714" 
d="M478 888q47 0 47 -44q0 -26 -17 -44t-42 -18q-51 0 -51 44q0 26 17 44t46 18zM133 310q0 -263 253 -263q91 0 156 18q14 4 16 17l26 195h-143l18 55h255l-7 -45l-41 -4q-17 -1 -18 -14l-33 -243q-85 -38 -241 -38t-233 84t-77 220q0 134 45 232t138 155q93 58 226 58
t203 -53l-19 -146l-50 3l-4 94q0 14 -10 18q-62 25 -139 25q-144 0 -232 -98t-89 -270z" />
    <glyph glyph-name="gdotaccent" unicode="&#x121;" horiz-adv-x="559" 
d="M334 741q47 0 47 -44q0 -26 -17 -44t-42 -18q-51 0 -51 44q0 27 17 45t46 17zM110 179q0 -132 97 -132q33 0 71 23q38 22 63 46q24 24 58 62l32 223q-57 62 -146 62q-45 1 -81 -27t-66 -93q-28 -65 -28 -164zM45 158q1 77 13 134q12 56 39 110t77 86t126 33q74 0 140 -56
l15 46h66q-21 -78 -28 -130l-57 -422q-26 -182 -209 -182q-116 0 -185 39l27 55q17 -12 59 -25t91 -13q131 0 151 130l20 133q-108 -108 -187 -108t-119 46t-39 124z" />
    <glyph glyph-name="Gcommaaccent" unicode="&#x122;" horiz-adv-x="714" 
d="M419 -108q0 -26 -22 -57l-59 -85l-34 15l33 81q3 6 -3 9l-29 14l31 70q44 -3 64 -12t19 -35zM133 310q0 -263 253 -263q91 0 156 18q14 4 16 17l26 195h-143l18 55h255l-7 -45l-41 -4q-17 -1 -18 -14l-33 -243q-85 -38 -241 -38t-233 84t-77 220q0 134 45 232t138 155
q93 58 226 58t203 -53l-19 -146l-50 3l-4 94q0 14 -10 18q-62 25 -139 25q-144 0 -232 -98t-89 -270z" />
    <glyph glyph-name="gcommaaccent" unicode="&#x123;" horiz-adv-x="559" 
d="M263 617q0 26 23 59l61 88l36 -15l-34 -84q-3 -7 3 -10l30 -14l-32 -73q-45 3 -66 13t-21 36zM110 179q0 -132 97 -132q33 0 71 23q38 22 63 46q24 24 58 62l32 223q-57 62 -146 62q-45 1 -81 -27t-66 -93q-28 -65 -28 -164zM45 158q1 77 13 134q12 56 39 110t77 86
t126 33q74 0 140 -56l15 46h66q-21 -78 -28 -130l-57 -422q-26 -182 -209 -182q-116 0 -185 39l27 55q17 -12 59 -25t91 -13q131 0 151 130l20 133q-108 -108 -187 -108t-119 46t-39 124z" />
    <glyph glyph-name="Hcircumflex" unicode="&#x124;" horiz-adv-x="788" 
d="M634 800l-40 -34l-107 84l-131 -84l-30 34l129 99h76zM697 0h-224l6 39l62 7q10 1 13 5t5 15l39 280h-364l-40 -279q-2 -11 0 -15t13 -5l65 -8l-6 -39h-224l5 39l63 7q10 1 13 5t5 15l83 592q1 12 -1 16t-12 4l-60 7l5 39h224l-5 -39l-67 -8q-11 -2 -14 -5t-4 -14
l-35 -256h364l36 256q3 18 -12 20l-61 7l4 39h224l-4 -39l-66 -8q-11 -1 -14 -5t-5 -14l-82 -591q-2 -11 0 -15t12 -5l65 -8z" />
    <glyph glyph-name="hcircumflex" unicode="&#x125;" horiz-adv-x="617" 
d="M358 820l-40 -34l-107 84l-131 -84l-30 34l129 99h76zM468 393q0 66 -59 66q-47 0 -97 -32t-119 -95l-36 -265q-1 -11 1 -15t13 -5l67 -8l-6 -39h-217l6 40l50 7q11 1 15 5t5 15l86 616q3 18 -9 21l-56 14l5 37h136l-50 -348q71 59 119 87t100 27q114 0 114 -119
q0 -29 -5 -62l-39 -273q-2 -11 0 -15t14 -5l58 -8l-6 -39h-144l-2 3l19 100l31 217q6 39 6 73z" />
    <glyph glyph-name="Hbar" unicode="&#x126;" horiz-adv-x="788" 
d="M242 402h364l16 117h-364zM697 0h-224l6 39l62 7q10 1 13 5t5 15l39 280h-364l-40 -279q-2 -11 0 -15t13 -5l65 -8l-6 -39h-224l5 39l63 7q10 1 13 5t5 15l63 453h-73l7 56h74l12 83q1 12 -1 16t-12 4l-60 7l5 39h224l-5 -39l-67 -8q-11 -2 -14 -5t-4 -14l-12 -83h365
l12 83q3 18 -12 20l-61 7l4 39h224l-4 -39l-66 -8q-11 -1 -14 -5t-5 -14l-12 -83h72l-7 -56h-73l-62 -452q-2 -11 0 -15t12 -5l65 -8z" />
    <glyph glyph-name="hbar" unicode="&#x127;" horiz-adv-x="617" 
d="M466 373q0 66 -59 66q-47 0 -97 -32t-119 -95l-36 -245q-1 -11 1 -15t13 -5l69 -8l-6 -39h-217l6 40l50 7q11 1 15 5t5 15l71 509h-70l7 56h71l7 51q3 18 -9 21l-56 14l5 37h136l-18 -123h195l-7 -56h-196l-26 -189q71 59 119 87t100 27q114 0 114 -119q0 -29 -5 -62
l-37 -253q-2 -11 0 -15t14 -5l58 -8l-6 -39h-144l-2 3l19 100l29 197q6 39 6 73z" />
    <glyph glyph-name="Itilde" unicode="&#x128;" horiz-adv-x="357" 
d="M356 782q-22 0 -36 4l-132 36q-10 3 -16 -3l-48 -41l-32 27l35 41q33 39 63 39q10 0 24 -3l137 -37q10 -3 17 3l44 39l33 -27l-28 -32q-39 -46 -61 -46zM277 0h-244l4 39l73 7q10 0 13 4t5 16l83 592q1 12 -1 16t-12 4l-70 7l4 39h244l-4 -39l-77 -8q-11 -2 -14 -5
t-4 -14l-83 -591q-2 -11 0 -15t13 -5l74 -8z" />
    <glyph glyph-name="itilde" unicode="&#x129;" horiz-adv-x="286" 
d="M227 0h-150l-2 4l20 106l47 330q3 17 -11 21l-54 13l5 37h136l-63 -444q-1 -11 1 -15t13 -5l64 -8zM240 591q-22 0 -36 4l-105 36q-10 3 -16 -3l-48 -41l-32 27l35 41q33 39 54 39t41 -5l102 -35q11 -3 17 3l44 39l33 -27l-28 -32q-39 -46 -61 -46z" />
    <glyph glyph-name="Imacron" unicode="&#x12a;" horiz-adv-x="357" 
d="M416 797h-303l8 57h303zM277 0h-244l4 39l73 7q10 0 13 4t5 16l83 592q1 12 -1 16t-12 4l-70 7l4 39h244l-4 -39l-77 -8q-11 -2 -14 -5t-4 -14l-83 -591q-2 -11 0 -15t13 -5l74 -8z" />
    <glyph glyph-name="imacron" unicode="&#x12b;" horiz-adv-x="286" 
d="M227 0h-150l-2 4l20 106l47 330q3 17 -11 21l-54 13l5 37h136l-63 -444q-1 -11 1 -15t13 -5l64 -8zM304 616h-263l8 57h263z" />
    <glyph glyph-name="Ibreve" unicode="&#x12c;" horiz-adv-x="357" 
d="M257 782q-120 0 -135 112l50 17q16 -74 92 -74q36 0 63 15t49 60l47 -18q-46 -112 -166 -112zM277 0h-244l4 39l73 7q10 0 13 4t5 16l83 592q1 12 -1 16t-12 4l-70 7l4 39h244l-4 -39l-77 -8q-11 -2 -14 -5t-4 -14l-83 -591q-2 -11 0 -15t13 -5l74 -8z" />
    <glyph glyph-name="ibreve" unicode="&#x12d;" horiz-adv-x="286" 
d="M227 0h-150l-2 4l20 106l47 330q3 17 -11 21l-54 13l5 37h136l-63 -444q-1 -11 1 -15t13 -5l64 -8zM175 573q-117 0 -130 132l50 19q17 -96 89 -96t111 96l46 -19q-49 -132 -166 -132z" />
    <glyph glyph-name="Iogonek" unicode="&#x12e;" horiz-adv-x="357" 
d="M113 -212q-74 0 -74 60q0 74 105 152h-111l4 39l73 7q10 0 13 4t5 16l83 592q1 12 -1 16t-12 4l-70 7l4 39h244l-4 -39l-77 -8q-11 -2 -14 -5t-4 -14l-83 -591q-2 -11 0 -15t13 -5l74 -8l-4 -39h-61q-104 -74 -104 -129q0 -26 27 -26q20 0 49 12l11 -49q-45 -20 -86 -20z
" />
    <glyph glyph-name="iogonek" unicode="&#x12f;" horiz-adv-x="286" 
d="M200 741q47 0 47 -44q0 -26 -17 -44t-42 -18q-51 0 -51 44q0 27 17 45t46 17zM112 -212q-74 0 -74 60q0 80 110 152h-71l-2 4l20 106l47 330q3 17 -11 21l-54 13l5 37h136l-63 -444q-1 -11 1 -15t13 -5l64 -8l-6 -39q-42 -22 -79 -59t-37 -67t27 -29q20 0 49 12l11 -49
q-45 -20 -86 -20z" />
    <glyph glyph-name="Idotaccent" unicode="&#x130;" horiz-adv-x="357" 
d="M277 888q47 0 47 -44q0 -26 -17 -44t-42 -18q-51 0 -51 44q0 26 17 44t46 18zM277 0h-244l4 39l73 7q10 0 13 4t5 16l83 592q1 12 -1 16t-12 4l-70 7l4 39h244l-4 -39l-77 -8q-11 -2 -14 -5t-4 -14l-83 -591q-2 -11 0 -15t13 -5l74 -8z" />
    <glyph glyph-name="dotlessi" unicode="&#x131;" horiz-adv-x="286" 
d="M227 0h-150l-2 4l20 106l47 330q3 17 -11 21l-54 13l5 37h136l-63 -444q-1 -11 1 -15t13 -5l64 -8z" />
    <glyph glyph-name="IJ" unicode="&#x132;" horiz-adv-x="835" 
d="M444 69q0 -27 71 -27t93 26t30 81l71 510q1 11 -1 15t-12 4l-81 7l5 39h245l-5 -39l-67 -8q-11 -1 -14 -4t-4 -14l-73 -518q-20 -153 -156 -153q-121 0 -164 34l16 122l46 -3v-72zM277 0h-244l4 39l73 7q10 0 13 4t5 16l83 592q1 12 -1 16t-12 4l-70 7l4 39h244l-4 -39
l-77 -8q-11 -2 -14 -5t-4 -14l-83 -591q-2 -11 0 -15t13 -5l74 -8z" />
    <glyph glyph-name="ij" unicode="&#x133;" horiz-adv-x="560" 
d="M487 741q47 0 47 -44q0 -26 -17 -44t-42 -18q-51 0 -51 44q0 27 17 45t46 17zM266 -166q46 0 64 26t26 85l70 494q3 18 -9 21l-60 14l6 37h139l-81 -581q-21 -153 -134 -153q-95 0 -136 41l32 47q37 -31 83 -31zM227 0h-150l-2 4l20 106l47 330q3 17 -11 21l-54 13l5 37
h136l-63 -444q-1 -11 1 -15t13 -5l64 -8zM200 741q47 0 47 -44q0 -26 -17 -44t-42 -18q-51 0 -51 44q0 27 17 45t46 17z" />
    <glyph glyph-name="Jcircumflex" unicode="&#x134;" horiz-adv-x="478" 
d="M555 800l-40 -34l-107 84l-131 -84l-30 34l129 99h76zM87 69q0 -27 71 -27t93 26t30 81l71 510q2 11 0 15t-13 4l-81 7l5 39h245l-5 -39l-67 -8q-12 -1 -14 -4t-4 -14l-73 -518q-21 -153 -157 -153q-121 0 -163 34l16 122l46 -3v-72z" />
    <glyph glyph-name="jcircumflex" unicode="&#x135;" horiz-adv-x="274" 
d="M335 599l-43 -33l-114 104l-144 -104l-33 33l146 120h76zM-20 -166q46 0 64 26t26 85l70 494q3 18 -9 21l-60 14l6 37h139l-81 -581q-21 -153 -134 -153q-95 0 -136 41l32 47q37 -31 83 -31z" />
    <glyph glyph-name="Kcommaaccent" unicode="&#x136;" horiz-adv-x="698" 
d="M396 -88q0 -26 -22 -57l-59 -85l-34 15l33 81q2 6 -3 9l-29 14l31 70q43 -3 63 -12t20 -35zM660 0h-119l-4 4l-63 110l-155 247l-95 -90l-30 -204q-2 -11 0 -15t13 -5l68 -8l-6 -39h-224l5 39l60 7q16 2 18 21l83 591q1 12 -1 16t-12 4l-60 7l6 39h224l-6 -39l-67 -8
q-10 -1 -13 -5t-5 -14l-44 -303l332 321l-56 8l6 40h206l-6 -39l-54 -10q-19 -3 -32 -16l-259 -250l212 -344q8 -12 26 -16l58 -10z" />
    <glyph glyph-name="kcommaaccent" unicode="&#x137;" 
d="M319 -88q0 -26 -22 -57l-59 -85l-34 15l33 81q3 6 -3 9l-29 14l31 70q44 -3 64 -12t19 -35zM511 521q17 0 38 -3l-6 -49q-31 1 -55 -9t-55 -40l-96 -93l107 -260q6 -14 18 -15l68 -13l-6 -39h-123l-3 3l-36 96l-77 179l-115 -109l-14 -102q-2 -11 0 -15t13 -5l69 -8
l-6 -39h-217l6 40l51 7q10 1 13 5t5 15l87 617q3 16 -10 20l-55 14l5 37h136l-71 -497l224 217q48 46 105 46z" />
    <glyph glyph-name="kgreenlandic" unicode="&#x138;" 
d="M511 521q17 0 38 -3l-6 -49q-31 1 -55 -9t-55 -40l-96 -93l107 -260q6 -14 18 -15l68 -13l-6 -39h-123l-3 3l-36 96l-77 179l-115 -109l-14 -102q-2 -11 0 -15t13 -5l69 -8l-6 -39h-217l6 40l51 7q10 1 13 5t5 15l52 373q3 16 -10 20l-55 14l5 37h136l-36 -253l224 217
q48 46 105 46z" />
    <glyph glyph-name="Lacute" unicode="&#x139;" horiz-adv-x="597" 
d="M399 872l-212 -106l-22 38l200 131zM476 56q14 0 17 11l28 87h45l-21 -154h-501l5 39l61 7q10 1 13 5t5 15l83 591q1 11 -1 15t-12 5l-60 7l5 40h240l-5 -40l-83 -8q-10 0 -13 -4t-5 -15l-85 -601h284z" />
    <glyph glyph-name="lacute" unicode="&#x13a;" horiz-adv-x="284" 
d="M324 892l-212 -106l-22 38l200 131zM222 0h-150l-2 4l20 106l81 574q3 17 -11 21l-54 13l5 37h136l-97 -688q-2 -11 0 -15t14 -5l64 -8z" />
    <glyph glyph-name="Lcommaaccent" unicode="&#x13b;" horiz-adv-x="597" 
d="M356 -108q0 -26 -22 -57l-59 -85l-34 15l33 81q2 6 -3 9l-29 14l31 70q43 -3 63 -12t20 -35zM476 56q14 0 17 11l28 87h45l-21 -154h-501l5 39l61 7q10 1 13 5t5 15l83 591q1 11 -1 15t-12 5l-60 7l5 40h240l-5 -40l-83 -8q-10 0 -13 -4t-5 -15l-85 -601h284z" />
    <glyph glyph-name="lcommaaccent" unicode="&#x13c;" horiz-adv-x="284" 
d="M180 -108q0 -26 -22 -57l-59 -85l-34 15l33 81q2 6 -3 9l-29 14l31 70q43 -3 63 -12t20 -35zM222 0h-150l-2 4l20 106l81 574q3 17 -11 21l-54 13l5 37h136l-97 -688q-2 -11 0 -15t14 -5l64 -8z" />
    <glyph glyph-name="Lcaron" unicode="&#x13d;" horiz-adv-x="597" 
d="M484 652q0 34 -7 55l61 28q20 -23 20 -54t-70 -147l-37 15q33 69 33 103zM476 56q14 0 17 11l28 87h45l-21 -154h-501l5 39l61 7q10 1 13 5t5 15l83 591q1 11 -1 15t-12 5l-60 7l5 40h240l-5 -40l-83 -8q-10 0 -13 -4t-5 -15l-85 -601h284z" />
    <glyph glyph-name="lcaron" unicode="&#x13e;" horiz-adv-x="325" 
d="M312 678q0 34 -7 55l61 28q20 -23 20 -54t-70 -147l-37 15q33 69 33 103zM222 0h-150l-2 4l20 106l81 574q3 17 -11 21l-54 13l5 37h136l-97 -688q-2 -11 0 -15t14 -5l64 -8z" />
    <glyph glyph-name="Ldot" unicode="&#x13f;" horiz-adv-x="597" 
d="M509 440q47 0 47 -44q0 -26 -17 -44t-42 -18q-51 0 -51 44q0 26 17 44t46 18zM476 56q14 0 17 11l28 87h45l-21 -154h-501l5 39l61 7q10 1 13 5t5 15l83 591q1 11 -1 15t-12 5l-60 7l5 40h240l-5 -40l-83 -8q-10 0 -13 -4t-5 -15l-85 -601h284z" />
    <glyph glyph-name="ldot" unicode="&#x140;" horiz-adv-x="312" 
d="M321 420q47 0 47 -44q0 -26 -17 -44t-42 -18q-51 0 -51 44q0 26 17 44t46 18zM222 0h-150l-2 4l20 106l81 574q3 17 -11 21l-54 13l5 37h136l-97 -688q-2 -11 0 -15t14 -5l64 -8z" />
    <glyph glyph-name="Lslash" unicode="&#x141;" horiz-adv-x="597" 
d="M476 56q14 0 17 11l28 87h45l-21 -154h-501l5 39l61 7q10 1 13 5t5 15l33 242l-113 -45l8 57l113 45l42 292q1 11 -1 15t-12 5l-60 7l5 40h240l-5 -40l-83 -8q-10 0 -13 -4t-5 -15l-39 -272l245 99l-9 -59l-244 -98l-38 -271h284z" />
    <glyph glyph-name="lslash" unicode="&#x142;" horiz-adv-x="293" 
d="M222 0h-150l-2 4l20 106l33 238l-89 -41l8 61l90 41l39 275q3 17 -11 21l-54 13l5 37h136l-46 -321l105 48l-8 -61l-105 -48l-43 -306q-2 -11 0 -15t14 -5l64 -8z" />
    <glyph glyph-name="Nacute" unicode="&#x143;" horiz-adv-x="816" 
d="M647 872l-212 -106l-22 38l200 131zM645 0h-82l-288 646l-81 -579q-2 -11 0 -15t13 -5l65 -8l-4 -39h-224l3 39l63 7q10 1 13 5t5 15l83 591q1 11 -1 15t-12 5l-60 7l5 40h170l281 -641l78 575q2 12 0 16t-13 4l-61 7l5 39h224l-5 -39l-67 -8q-11 -1 -14 -5t-5 -14z" />
    <glyph glyph-name="nacute" unicode="&#x144;" horiz-adv-x="619" 
d="M478 701l-184 -132l-29 35l166 153zM420 521q118 0 118 -120q0 -29 -5 -61l-39 -273q-2 -11 0 -15t14 -5l58 -8l-6 -39h-145l-2 3l19 108l30 209q6 39 6 73t-13 50t-48 16q-74 0 -213 -127l-36 -265q-2 -11 0 -15t14 -5l67 -8l-6 -39h-216l6 40l50 7q11 1 15 5t4 15
l51 371q3 18 -9 21l-55 15l5 37h133l-15 -104q136 114 218 114z" />
    <glyph glyph-name="Ncommaaccent" unicode="&#x145;" horiz-adv-x="816" 
d="M436 -108q0 -26 -22 -57l-59 -85l-34 15l33 81q2 6 -3 9l-29 14l31 70q43 -3 63 -12t20 -35zM645 0h-82l-288 646l-81 -579q-2 -11 0 -15t13 -5l65 -8l-4 -39h-224l3 39l63 7q10 1 13 5t5 15l83 591q1 11 -1 15t-12 5l-60 7l5 40h170l281 -641l78 575q2 12 0 16t-13 4
l-61 7l5 39h224l-5 -39l-67 -8q-11 -1 -14 -5t-5 -14z" />
    <glyph glyph-name="ncommaaccent" unicode="&#x146;" horiz-adv-x="619" 
d="M335 -108q0 -26 -22 -57l-59 -85l-34 15l33 81q3 6 -3 9l-29 14l31 70q44 -3 64 -12t19 -35zM420 521q118 0 118 -120q0 -29 -5 -61l-39 -273q-2 -11 0 -15t14 -5l58 -8l-6 -39h-145l-2 3l19 108l30 209q6 39 6 73t-13 50t-48 16q-74 0 -213 -127l-36 -265q-2 -11 0 -15
t14 -5l67 -8l-6 -39h-216l6 40l50 7q11 1 15 5t4 15l51 371q3 18 -9 21l-55 15l5 37h133l-15 -104q136 114 218 114z" />
    <glyph glyph-name="Ncaron" unicode="&#x147;" horiz-adv-x="816" 
d="M660 875l-129 -99h-76l-103 99l40 34l107 -84l131 84zM645 0h-82l-288 646l-81 -579q-2 -11 0 -15t13 -5l65 -8l-4 -39h-224l3 39l63 7q10 1 13 5t5 15l83 591q1 11 -1 15t-12 5l-60 7l5 40h170l281 -641l78 575q2 12 0 16t-13 4l-61 7l5 39h224l-5 -39l-67 -8
q-11 -1 -14 -5t-5 -14z" />
    <glyph glyph-name="ncaron" unicode="&#x148;" horiz-adv-x="619" 
d="M531 696l-148 -120h-76l-109 119l42 34l112 -104l146 104zM420 521q118 0 118 -120q0 -29 -5 -61l-39 -273q-2 -11 0 -15t14 -5l58 -8l-6 -39h-145l-2 3l19 108l30 209q6 39 6 73t-13 50t-48 16q-74 0 -213 -127l-36 -265q-2 -11 0 -15t14 -5l67 -8l-6 -39h-216l6 40
l50 7q11 1 15 5t4 15l51 371q3 18 -9 21l-55 15l5 37h133l-15 -104q136 114 218 114z" />
    <glyph glyph-name="napostrophe" unicode="&#x149;" horiz-adv-x="619" 
d="M151 658q0 -19 -16 -42l-58 -86l-30 14l36 76q2 6 -2 9l-24 11l25 56q69 -3 69 -38zM420 521q118 0 118 -120q0 -29 -5 -61l-39 -273q-2 -11 0 -15t14 -5l58 -8l-6 -39h-145l-2 3l19 108l30 209q6 39 6 73t-13 50t-48 16q-74 0 -213 -127l-36 -265q-2 -11 0 -15t14 -5
l67 -8l-6 -39h-216l6 40l50 7q11 1 15 5t4 15l51 371q3 18 -9 21l-55 15l5 37h133l-15 -104q136 114 218 114z" />
    <glyph glyph-name="Eng" unicode="&#x14a;" horiz-adv-x="816" 
d="M486 -223q-54 0 -96 15q-41 15 -55 29l32 47q13 -10 45 -22t61 -12q82 0 97 111l7 56l-302 645l-81 -579q-2 -11 0 -15t13 -5l65 -8l-4 -39h-224l3 39l63 7q10 1 13 5t5 15l83 591q1 11 -1 15t-12 5l-60 7l5 40h170l284 -619l75 553q2 12 0 16t-13 4l-61 7l5 39h224
l-5 -39l-67 -8q-11 -1 -14 -5t-5 -14l-101 -728q-11 -77 -53 -115t-96 -38z" />
    <glyph glyph-name="eng" unicode="&#x14b;" horiz-adv-x="619" 
d="M320 -166q46 0 64 26t26 85l52 375q6 39 6 73t-13 50t-48 16q-74 0 -213 -127l-36 -265q-2 -11 0 -15t14 -5l67 -8l-6 -39h-216l6 40l50 7q11 1 15 5t4 15l51 371q3 18 -9 21l-55 15l5 37h133l-15 -104q136 114 218 114q118 0 118 -120q0 -29 -5 -61l-58 -410
q-21 -153 -134 -153q-95 0 -136 41l32 47q37 -31 83 -31z" />
    <glyph glyph-name="Omacron" unicode="&#x14c;" horiz-adv-x="750" 
d="M614 797h-303l8 57h303zM132 298q0 -251 222 -251q134 0 220 101t87 285q0 57 -14 104q-42 141 -202 141q-137 0 -225 -100t-88 -280zM346 -12q-142 0 -213 82t-71 219q0 200 102 324t289 124q137 -1 207 -81t70 -211q0 -213 -103 -335t-281 -122z" />
    <glyph glyph-name="omacron" unicode="&#x14d;" horiz-adv-x="552" 
d="M490 616h-303l8 57h303zM112 200q0 -157 140 -157q91 1 144 71t53 209t-135 139q-94 0 -148 -68t-54 -194zM258 -12q-214 0 -213 206q0 146 72 236t205 91q100 -1 148 -57t47 -150q0 -152 -72 -239q-73 -87 -187 -87z" />
    <glyph glyph-name="Obreve" unicode="&#x14e;" horiz-adv-x="750" 
d="M455 782q-120 0 -135 112l50 17q16 -74 92 -74q36 0 63 15t49 60l47 -18q-46 -112 -166 -112zM132 298q0 -251 222 -251q134 0 220 101t87 285q0 57 -14 104q-42 141 -202 141q-137 0 -225 -100t-88 -280zM346 -12q-142 0 -213 82t-71 219q0 200 102 324t289 124
q137 -1 207 -81t70 -211q0 -213 -103 -335t-281 -122z" />
    <glyph glyph-name="obreve" unicode="&#x14f;" horiz-adv-x="552" 
d="M332 573q-130 0 -146 132l50 19q10 -50 34 -73t70 -23q85 0 130 96l46 -19q-54 -132 -184 -132zM112 200q0 -157 140 -157q91 1 144 71t53 209t-135 139q-94 0 -148 -68t-54 -194zM258 -12q-214 0 -213 206q0 146 72 236t205 91q100 -1 148 -57t47 -150q0 -152 -72 -239
q-73 -87 -187 -87z" />
    <glyph glyph-name="Ohungarumlaut" unicode="&#x150;" horiz-adv-x="750" 
d="M697 916l-186 -150l-29 31l168 170zM535 916l-186 -150l-28 31l167 171zM132 298q0 -251 222 -251q134 0 220 101t87 285q0 57 -14 104q-42 141 -202 141q-137 0 -225 -100t-88 -280zM346 -12q-142 0 -213 82t-71 219q0 200 102 324t289 124q137 -1 207 -81t70 -211
q0 -213 -103 -335t-281 -122z" />
    <glyph glyph-name="ohungarumlaut" unicode="&#x151;" horiz-adv-x="552" 
d="M556 730l-178 -159l-32 27l159 178zM394 730l-178 -159l-31 27l158 179zM112 200q0 -157 140 -157q91 1 144 71t53 209t-135 139q-94 0 -148 -68t-54 -194zM258 -12q-214 0 -213 206q0 146 72 236t205 91q100 -1 148 -57t47 -150q0 -152 -72 -239q-73 -87 -187 -87z" />
    <glyph glyph-name="OE" unicode="&#x152;" horiz-adv-x="981" 
d="M132 306q0 -259 224 -259q114 0 187 98t73 281q0 252 -197 252q-123 0 -205 -100t-82 -272zM842 56q15 0 17 11l28 87h45l-21 -154h-485q-45 -12 -93 -12q-131 0 -201 85t-70 253t100 290t267 121q49 0 98 -13h462l-21 -150l-45 3l-3 78q0 13 -16 13h-296q77 -81 77 -234
l-1 -40h197l-8 -56h-195q-25 -191 -143 -282h307z" />
    <glyph glyph-name="oe" unicode="&#x153;" horiz-adv-x="857" 
d="M771 401q0 61 -73 61t-124 -58t-68 -141q265 27 265 138zM449 315q1 147 -153 147q-78 0 -131 -68t-53 -194q0 -157 140 -157q91 1 144 71t53 201zM496 392q76 129 208 129t133 -120q0 -56 -45 -98q-72 -67 -293 -96q0 -81 28 -121q27 -40 101 -40t148 37l15 -56
q-73 -39 -170 -39q-138 0 -168 108q-70 -108 -208 -108q-101 0 -151 55t-49 151q0 145 72 236t201 91q71 1 118 -35t60 -94z" />
    <glyph glyph-name="Racute" unicode="&#x154;" horiz-adv-x="655" 
d="M523 872l-212 -106l-22 38l200 131zM342 373q96 0 154 43q58 44 58 122t-44 103t-146 25h-87l-40 -293h105zM365 314h-136l-36 -247q-1 -11 1 -15t12 -5l68 -8l-6 -39h-224l5 39l61 7q12 0 14 4t4 17l83 590q1 11 -1 15t-12 5l-60 7l5 40h282q199 0 199 -173
q0 -160 -172 -218q20 -11 30 -31t19 -58l45 -176q4 -15 27 -19l59 -10l-6 -39h-128l-5 5l-70 262q-12 47 -58 47z" />
    <glyph glyph-name="racute" unicode="&#x155;" horiz-adv-x="424" 
d="M419 701l-184 -132l-29 35l166 153zM348 460q-43 0 -154 -129l-36 -265q-2 -12 0 -16t14 -4l87 -7l-6 -39h-236l6 40l52 6q14 1 17 20l51 372q3 18 -9 21l-55 15l5 37h129l-13 -105q87 115 170 115q28 0 59 -9l-19 -139l-49 3l-3 75q0 9 -10 9z" />
    <glyph glyph-name="Rcommaaccent" unicode="&#x156;" horiz-adv-x="655" 
d="M373 -108q0 -26 -22 -57l-59 -85l-34 15l33 81q3 6 -3 9l-29 14l31 70q44 -3 64 -12t19 -35zM342 373q96 0 154 43q58 44 58 122t-44 103t-146 25h-87l-40 -293h105zM365 314h-136l-36 -247q-1 -11 1 -15t12 -5l68 -8l-6 -39h-224l5 39l61 7q12 0 14 4t4 17l83 590
q1 11 -1 15t-12 5l-60 7l5 40h282q199 0 199 -173q0 -160 -172 -218q20 -11 30 -31t19 -58l45 -176q4 -15 27 -19l59 -10l-6 -39h-128l-5 5l-70 262q-12 47 -58 47z" />
    <glyph glyph-name="rcommaaccent" unicode="&#x157;" horiz-adv-x="424" 
d="M165 -108q0 -26 -22 -57l-59 -85l-34 15l33 81q3 6 -3 9l-29 14l31 70q44 -3 64 -12t19 -35zM348 460q-43 0 -154 -129l-36 -265q-2 -12 0 -16t14 -4l87 -7l-6 -39h-236l6 40l52 6q14 1 17 20l51 372q3 18 -9 21l-55 15l5 37h129l-13 -105q87 115 170 115q28 0 59 -9
l-19 -139l-49 3l-3 75q0 9 -10 9z" />
    <glyph glyph-name="Rcaron" unicode="&#x158;" horiz-adv-x="655" 
d="M548 875l-129 -99h-76l-103 99l40 34l107 -84l131 84zM342 373q96 0 154 43q58 44 58 122t-44 103t-146 25h-87l-40 -293h105zM365 314h-136l-36 -247q-1 -11 1 -15t12 -5l68 -8l-6 -39h-224l5 39l61 7q12 0 14 4t4 17l83 590q1 11 -1 15t-12 5l-60 7l5 40h282
q199 0 199 -173q0 -160 -172 -218q20 -11 30 -31t19 -58l45 -176q4 -15 27 -19l59 -10l-6 -39h-128l-5 5l-70 262q-12 47 -58 47z" />
    <glyph glyph-name="rcaron" unicode="&#x159;" horiz-adv-x="424" 
d="M454 696l-148 -120h-76l-109 119l42 34l112 -104l146 104zM348 460q-43 0 -154 -129l-36 -265q-2 -12 0 -16t14 -4l87 -7l-6 -39h-236l6 40l52 6q14 1 17 20l51 372q3 18 -9 21l-55 15l5 37h129l-13 -105q87 115 170 115q28 0 59 -9l-19 -139l-49 3l-3 75q0 9 -10 9z" />
    <glyph glyph-name="Sacute" unicode="&#x15a;" horiz-adv-x="562" 
d="M526 872l-212 -106l-22 38l200 131zM392 676q-197 0 -197 -143q-1 -55 33 -81t87 -46t70 -26q61 -25 92 -63q32 -38 32 -103q-1 -118 -77 -172t-200 -54q-62 0 -120 12t-80 25l20 151h48l6 -91q1 -12 27 -25t109 -13q195 0 195 158q-1 79 -81 115q-18 8 -77 30t-86 40
q-70 45 -70 142q-1 97 75 151t178 54t186 -33l-23 -160l-49 5l-4 93q0 34 -94 34z" />
    <glyph glyph-name="sacute" unicode="&#x15b;" horiz-adv-x="440" 
d="M412 701l-184 -132l-29 35l166 153zM284 468q-138 0 -137 -86q0 -32 23 -52q24 -20 84 -46t95 -54t35 -96t-54 -108q-54 -38 -124 -38q-128 0 -185 32l18 123l47 -3l3 -69q0 -10 26 -20t81 -10t88 25t33 58q-1 54 -37 79q-37 24 -72 37q-57 20 -92 48t-35 93t55 103
q54 38 140 37q86 0 144 -26l-17 -123l-47 3l-3 67q-1 26 -69 26z" />
    <glyph glyph-name="Scircumflex" unicode="&#x15c;" horiz-adv-x="562" 
d="M544 800l-40 -34l-107 84l-131 -84l-30 34l129 99h76zM392 676q-197 0 -197 -143q-1 -55 33 -81t87 -46t70 -26q61 -25 92 -63q32 -38 32 -103q-1 -118 -77 -172t-200 -54q-62 0 -120 12t-80 25l20 151h48l6 -91q1 -12 27 -25t109 -13q195 0 195 158q-1 79 -81 115
q-18 8 -77 30t-86 40q-70 45 -70 142q-1 97 75 151t178 54t186 -33l-23 -160l-49 5l-4 93q0 34 -94 34z" />
    <glyph glyph-name="scircumflex" unicode="&#x15d;" horiz-adv-x="440" 
d="M447 609l-43 -33l-114 104l-144 -104l-33 33l146 120h76zM284 468q-138 0 -137 -86q0 -32 23 -52q24 -20 84 -46t95 -54t35 -96t-54 -108q-54 -38 -124 -38q-128 0 -185 32l18 123l47 -3l3 -69q0 -10 26 -20t81 -10t88 25t33 58q-1 54 -37 79q-37 24 -72 37
q-57 20 -92 48t-35 93t55 103q54 38 140 37q86 0 144 -26l-17 -123l-47 3l-3 67q-1 26 -69 26z" />
    <glyph glyph-name="Scedilla" unicode="&#x15e;" horiz-adv-x="562" 
d="M392 676q-197 0 -197 -143q-1 -55 33 -81t87 -46t70 -26q61 -25 92 -63q32 -38 32 -103q-1 -106 -63 -160t-167 -64l-9 -35q62 -17 62 -67t-34 -82q-34 -34 -84 -34t-69 6l12 44q15 -3 44 -3q29 1 51 17t21 42q0 42 -66 43l18 67q-60 1 -116 13t-77 24l20 151h48l6 -91
q1 -12 27 -25t109 -13q195 0 195 158q-1 79 -81 115q-18 8 -77 30t-86 40q-70 45 -70 142q-1 97 75 151t178 54t186 -33l-23 -160l-49 5l-4 93q0 34 -94 34z" />
    <glyph glyph-name="scedilla" unicode="&#x15f;" horiz-adv-x="440" 
d="M129 -179q27 0 51 14t23 43q0 43 -67 43l19 69q-98 7 -134 30l18 123l47 -3l3 -69q0 -10 26 -20t81 -10t88 25t33 58q-1 54 -37 79q-37 24 -72 37q-57 20 -92 48t-35 93t55 103q54 38 140 37q86 0 144 -26l-17 -123l-47 3l-3 67q-1 26 -69 26q-138 0 -137 -86
q0 -32 23 -52q24 -20 84 -46t95 -54t35 -95t-50 -105t-126 -41l-9 -33q62 -16 62 -71q-1 -55 -39 -84t-82 -29t-65 7l11 46q16 -4 43 -4z" />
    <glyph glyph-name="Scaron" unicode="&#x160;" horiz-adv-x="562" 
d="M551 875l-129 -99h-76l-103 99l40 34l107 -84l131 84zM392 676q-197 0 -197 -143q-1 -55 33 -81t87 -46t70 -26q61 -25 92 -63q32 -38 32 -103q-1 -118 -77 -172t-200 -54q-62 0 -120 12t-80 25l20 151h48l6 -91q1 -12 27 -25t109 -13q195 0 195 158q-1 79 -81 115
q-18 8 -77 30t-86 40q-70 45 -70 142q-1 97 75 151t178 54t186 -33l-23 -160l-49 5l-4 93q0 34 -94 34z" />
    <glyph glyph-name="scaron" unicode="&#x161;" horiz-adv-x="440" 
d="M466 696l-148 -120h-76l-109 119l42 34l112 -104l146 104zM284 468q-138 0 -137 -86q0 -32 23 -52q24 -20 84 -46t95 -54t35 -96t-54 -108q-54 -38 -124 -38q-128 0 -185 32l18 123l47 -3l3 -69q0 -10 26 -20t81 -10t88 25t33 58q-1 54 -37 79q-37 24 -72 37
q-57 20 -92 48t-35 93t55 103q54 38 140 37q86 0 144 -26l-17 -123l-47 3l-3 67q-1 26 -69 26z" />
    <glyph glyph-name="uni0162" unicode="&#x162;" horiz-adv-x="619" 
d="M232 -181q28 1 50 17t22 42q0 42 -66 43l21 79h-124l6 40l99 7q10 1 13 5t5 15l84 601h-175q-14 0 -17 -11l-27 -87h-45l20 154h571l-21 -154h-45l-4 87q-1 11 -14 11h-177l-84 -601q-2 -11 0 -15t13 -4l109 -8l-6 -40h-127l-12 -45q62 -17 62 -67q-1 -50 -35 -82
q-34 -34 -104 -34q-28 0 -48 6l12 44q15 -3 44 -3z" />
    <glyph glyph-name="uni0163" unicode="&#x163;" horiz-adv-x="391" 
d="M145 -179q27 0 51 14t23 43q0 43 -67 43l20 70q-78 13 -78 94q0 9 2 27l46 333q2 10 -6 10h-73l7 46q50 7 76 35t44 99h45l-16 -114q-2 -10 6 -10h146l-8 -56h-154l-43 -318q-3 -21 -3 -43q0 -48 62 -48q40 0 98 22l15 -52q-53 -24 -114 -27l-9 -33q62 -16 62 -71
q-1 -55 -39 -84t-82 -29t-65 7l11 46q16 -4 43 -4z" />
    <glyph glyph-name="Tcaron" unicode="&#x164;" horiz-adv-x="619" 
d="M547 875l-129 -99h-76l-103 99l40 34l107 -84l131 84zM167 668q-14 0 -17 -11l-27 -87h-45l20 154h571l-21 -154h-45l-4 87q-1 11 -14 11h-177l-84 -601q-2 -11 0 -15t13 -4l109 -8l-6 -40h-305l6 40l99 7q10 1 13 5t5 15l84 601h-175z" />
    <glyph glyph-name="tcaron" unicode="&#x165;" horiz-adv-x="391" 
d="M322 672q0 34 -7 55l61 28q20 -23 20 -54t-70 -147l-37 15q33 69 33 103zM208 -12q-114 0 -114 97q0 9 2 27l46 333q2 10 -6 10h-73l7 46q50 7 76 35t44 99h45l-16 -114q-2 -10 6 -10h146l-8 -56h-154l-43 -318q-3 -21 -3 -43q0 -48 62 -48q40 0 98 22l15 -52
q-61 -28 -130 -28z" />
    <glyph glyph-name="Tbar" unicode="&#x166;" horiz-adv-x="619" 
d="M167 668q-14 0 -17 -11l-27 -87h-45l20 154h571l-21 -154h-45l-4 87q-1 11 -14 11h-177l-39 -278h136l-9 -57h-135l-37 -266q-2 -11 0 -15t13 -4l109 -8l-6 -40h-305l6 40l99 7q10 1 13 5t5 15l37 266h-122l9 57h121l39 278h-175z" />
    <glyph glyph-name="tbar" unicode="&#x167;" horiz-adv-x="391" 
d="M208 -12q-114 0 -114 97q0 9 2 27l18 133h-77l7 55h78l20 145q2 10 -6 10h-73l7 46q50 7 76 35t44 99h45l-16 -114q-2 -10 6 -10h146l-8 -56h-154l-21 -155h152l-7 -55h-153l-14 -108q-3 -21 -3 -43q0 -48 62 -48q40 0 98 22l15 -52q-61 -28 -130 -28z" />
    <glyph glyph-name="Utilde" unicode="&#x168;" horiz-adv-x="769" 
d="M562 782q-22 0 -36 4l-132 36q-10 3 -16 -3l-48 -41l-32 27l35 41q33 39 63 39q10 0 24 -3l137 -37q10 -3 17 3l44 39l33 -27l-28 -32q-39 -46 -61 -46zM355 -12q-219 0 -219 191q0 30 4 57l56 422q3 18 -12 20l-61 7l6 39h224l-6 -39l-66 -8q-11 -1 -14 -5t-5 -14
l-57 -418q-4 -25 -4 -53q0 -77 41 -109q40 -32 128 -31q88 0 138 43t65 148l57 420q1 12 -1 16t-12 4l-61 7l6 39h224l-6 -39l-66 -8q-10 -1 -14 -5t-5 -14l-58 -425q-17 -129 -85 -187t-197 -58z" />
    <glyph glyph-name="utilde" unicode="&#x169;" horiz-adv-x="616" 
d="M436 591q-22 0 -36 4l-132 36q-10 3 -16 -3l-48 -41l-32 27l35 41q33 39 54 39t41 -5l129 -35q10 -3 17 3l44 39l33 -27l-28 -32q-39 -46 -61 -46zM164 117q0 -67 62 -67q34 0 81 27t71 47t61 55l36 265q1 12 -1 16t-13 4l-62 8l6 39h144l2 -3l-62 -443q-3 -17 9 -18
l57 -9l-5 -38h-134l16 104q-65 -56 -116 -86t-102 -30q-118 0 -118 120q0 29 5 61l39 275q2 12 0 16t-14 4l-53 8l6 39h134l2 -3l-45 -319q-6 -39 -6 -72z" />
    <glyph glyph-name="Umacron" unicode="&#x16a;" horiz-adv-x="769" 
d="M622 797h-303l8 57h303zM355 -12q-219 0 -219 191q0 30 4 57l56 422q3 18 -12 20l-61 7l6 39h224l-6 -39l-66 -8q-11 -1 -14 -5t-5 -14l-57 -418q-4 -25 -4 -53q0 -77 41 -109q40 -32 128 -31q88 0 138 43t65 148l57 420q1 12 -1 16t-12 4l-61 7l6 39h224l-6 -39l-66 -8
q-10 -1 -14 -5t-5 -14l-58 -425q-17 -129 -85 -187t-197 -58z" />
    <glyph glyph-name="umacron" unicode="&#x16b;" horiz-adv-x="616" 
d="M500 616h-303l8 57h303zM164 117q0 -67 62 -67q34 0 81 27t71 47t61 55l36 265q1 12 -1 16t-13 4l-62 8l6 39h144l2 -3l-62 -443q-3 -17 9 -18l57 -9l-5 -38h-134l16 104q-65 -56 -116 -86t-102 -30q-118 0 -118 120q0 29 5 61l39 275q2 12 0 16t-14 4l-53 8l6 39h134
l2 -3l-45 -319q-6 -39 -6 -72z" />
    <glyph glyph-name="Ubreve" unicode="&#x16c;" horiz-adv-x="769" 
d="M463 782q-120 0 -135 112l50 17q16 -74 92 -74q36 0 63 15t49 60l47 -18q-46 -112 -166 -112zM355 -12q-219 0 -219 191q0 30 4 57l56 422q3 18 -12 20l-61 7l6 39h224l-6 -39l-66 -8q-11 -1 -14 -5t-5 -14l-57 -418q-4 -25 -4 -53q0 -77 41 -109q40 -32 128 -31
q88 0 138 43t65 148l57 420q1 12 -1 16t-12 4l-61 7l6 39h224l-6 -39l-66 -8q-10 -1 -14 -5t-5 -14l-58 -425q-17 -129 -85 -187t-197 -58z" />
    <glyph glyph-name="ubreve" unicode="&#x16d;" horiz-adv-x="616" 
d="M350 573q-130 0 -146 132l50 19q10 -50 34 -73t70 -23q85 0 130 96l46 -19q-54 -132 -184 -132zM164 117q0 -67 62 -67q34 0 81 27t71 47t61 55l36 265q1 12 -1 16t-13 4l-62 8l6 39h144l2 -3l-62 -443q-3 -17 9 -18l57 -9l-5 -38h-134l16 104q-65 -56 -116 -86t-102 -30
q-118 0 -118 120q0 29 5 61l39 275q2 12 0 16t-14 4l-53 8l6 39h134l2 -3l-45 -319q-6 -39 -6 -72z" />
    <glyph glyph-name="Uring" unicode="&#x16e;" horiz-adv-x="769" 
d="M469 797q19 1 31 15t12 36q0 30 -33 30q-19 0 -31 -14t-12 -35q0 -32 33 -32zM463 758q-72 0 -72 68q1 39 27 66t63 27q76 0 76 -66q1 -43 -25 -69t-69 -26zM355 -12q-219 0 -219 191q0 30 4 57l56 422q3 18 -12 20l-61 7l6 39h224l-6 -39l-66 -8q-11 -1 -14 -5t-5 -14
l-57 -418q-4 -25 -4 -53q0 -77 41 -109q40 -32 128 -31q88 0 138 43t65 148l57 420q1 12 -1 16t-12 4l-61 7l6 39h224l-6 -39l-66 -8q-10 -1 -14 -5t-5 -14l-58 -425q-17 -129 -85 -187t-197 -58z" />
    <glyph glyph-name="uring" unicode="&#x16f;" horiz-adv-x="616" 
d="M350 605q20 -1 32 13t13 36q0 31 -35 31q-21 0 -33 -13t-12 -34q0 -33 35 -33zM343 564q-76 0 -76 71q0 41 27 67q28 26 68 27q82 0 81 -69q-1 -44 -27 -70t-73 -26zM164 117q0 -67 62 -67q34 0 81 27t71 47t61 55l36 265q1 12 -1 16t-13 4l-62 8l6 39h144l2 -3l-62 -443
q-3 -17 9 -18l57 -9l-5 -38h-134l16 104q-65 -56 -116 -86t-102 -30q-118 0 -118 120q0 29 5 61l39 275q2 12 0 16t-14 4l-53 8l6 39h134l2 -3l-45 -319q-6 -39 -6 -72z" />
    <glyph glyph-name="Uhungarumlaut" unicode="&#x170;" horiz-adv-x="769" 
d="M715 916l-186 -150l-29 31l168 170zM553 916l-186 -150l-28 31l167 171zM355 -12q-219 0 -219 191q0 30 4 57l56 422q3 18 -12 20l-61 7l6 39h224l-6 -39l-66 -8q-11 -1 -14 -5t-5 -14l-57 -418q-4 -25 -4 -53q0 -77 41 -109q40 -32 128 -31q88 0 138 43t65 148l57 420
q1 12 -1 16t-12 4l-61 7l6 39h224l-6 -39l-66 -8q-10 -1 -14 -5t-5 -14l-58 -425q-17 -129 -85 -187t-197 -58z" />
    <glyph glyph-name="uhungarumlaut" unicode="&#x171;" horiz-adv-x="616" 
d="M584 730l-178 -159l-32 27l159 178zM422 730l-178 -159l-31 27l158 179zM164 117q0 -67 62 -67q34 0 81 27t71 47t61 55l36 265q1 12 -1 16t-13 4l-62 8l6 39h144l2 -3l-62 -443q-3 -17 9 -18l57 -9l-5 -38h-134l16 104q-65 -56 -116 -86t-102 -30q-118 0 -118 120
q0 29 5 61l39 275q2 12 0 16t-14 4l-53 8l6 39h134l2 -3l-45 -319q-6 -39 -6 -72z" />
    <glyph glyph-name="Uogonek" unicode="&#x172;" horiz-adv-x="769" 
d="M355 -12q-219 0 -219 191q0 30 4 57l56 422q3 18 -12 20l-61 7l6 39h224l-6 -39l-66 -8q-11 -1 -14 -5t-5 -14l-57 -418q-4 -25 -4 -53q0 -77 41 -109q40 -32 128 -31q88 0 138 43t65 148l57 420q1 12 -1 16t-12 4l-61 7l6 39h224l-6 -39l-66 -8q-10 -1 -14 -5t-5 -14
l-58 -425q-21 -150 -124 -215q-39 -24 -83 -68t-44 -74t27 -31q20 0 49 12l11 -49q-45 -20 -86 -20q-74 0 -74 60q0 69 93 143q-24 -3 -51 -3z" />
    <glyph glyph-name="uogonek" unicode="&#x173;" horiz-adv-x="616" 
d="M164 117q0 -67 62 -67q34 0 81 27t71 47t61 55l36 265q1 12 -1 16t-13 4l-62 8l6 39h144l2 -3l-62 -443q-3 -17 9 -18l57 -9l-5 -38q-42 -25 -76 -60t-34 -65t27 -30q20 0 49 12l11 -49q-45 -20 -86 -20q-74 0 -74 60q0 74 105 152h-56l16 104q-65 -56 -116 -86t-102 -30
q-118 0 -118 120q0 29 5 61l39 275q2 12 0 16t-14 4l-53 8l6 39h134l2 -3l-45 -319q-6 -39 -6 -72z" />
    <glyph glyph-name="Wcircumflex" unicode="&#x174;" horiz-adv-x="937" 
d="M703 800l-40 -34l-107 84l-131 -84l-30 34l129 99h76zM672 0h-86l-73 493l-212 -493h-78l-79 656q-1 16 -16 19l-60 10l8 39h230l-6 -39l-90 -10l65 -592l208 490h80l74 -502l227 604l-87 10l6 39h225l-6 -39l-54 -9q-16 -3 -25 -24z" />
    <glyph glyph-name="wcircumflex" unicode="&#x175;" horiz-adv-x="794" 
d="M604 609l-43 -33l-114 104l-144 -104l-33 33l146 120h76zM565 0h-82l-59 426l-181 -426h-80l-69 446q-2 14 -15 17l-44 9l6 39h111l4 -5l8 -82l48 -355l185 442h78l60 -449l176 401l-64 9l6 39h139l4 -5z" />
    <glyph glyph-name="Ycircumflex" unicode="&#x176;" horiz-adv-x="584" 
d="M537 800l-40 -34l-107 84l-131 -84l-30 34l129 99h76zM416 0h-283l5 39l93 7q14 2 17 21l30 217l-146 373q-7 12 -21 17l-43 11l6 39h200l-6 -39l-73 -9l123 -329l209 329l-71 9l6 39h196l-6 -39l-42 -11q-17 -5 -28 -21l-238 -366l-29 -220q-2 -13 0 -16t13 -4l93 -8z
" />
    <glyph glyph-name="ycircumflex" unicode="&#x177;" horiz-adv-x="506" 
d="M457 609l-43 -33l-114 104l-144 -104l-33 33l146 120h76zM28 -166q45 0 68 23t55 84l42 79l-102 427q-3 13 -17 17l-41 10l8 37h111l3 -4l22 -125l61 -279l176 360l-62 11l4 37h148l5 -7l-295 -579q-42 -82 -78 -115t-109 -33q-72 0 -113 41l32 47q37 -31 82 -31z" />
    <glyph glyph-name="Ydieresis" unicode="&#x178;" horiz-adv-x="584" 
d="M497 880q44 0 44 -41q0 -25 -16 -41t-42 -16q-44 0 -44 41q0 25 16 41t42 16zM298 880q44 0 44 -41q0 -25 -16 -41t-42 -16q-44 0 -44 41q0 25 16 41t42 16zM416 0h-283l5 39l93 7q14 2 17 21l30 217l-146 373q-7 12 -21 17l-43 11l6 39h200l-6 -39l-73 -9l123 -329
l209 329l-71 9l6 39h196l-6 -39l-42 -11q-17 -5 -28 -21l-238 -366l-29 -220q-2 -13 0 -16t13 -4l93 -8z" />
    <glyph glyph-name="Zacute" unicode="&#x179;" horiz-adv-x="620" 
d="M517 872l-212 -106l-22 38l200 131zM211 668q-14 0 -17 -11l-31 -93l-49 -3l23 163h492l-6 -48l-506 -620h353q15 0 18 11l33 107h48l-23 -174h-522l6 46l505 622h-324z" />
    <glyph glyph-name="zacute" unicode="&#x17a;" horiz-adv-x="491" 
d="M427 701l-184 -132l-29 35l166 153zM168 455q-9 0 -12 -13l-21 -66l-49 -3l18 138h377l-6 -44l-358 -411h232q9 0 12 13l23 76l49 3l-20 -148h-393l5 42l360 413h-217z" />
    <glyph glyph-name="Zdotaccent" unicode="&#x17b;" horiz-adv-x="620" 
d="M398 888q47 0 47 -44q0 -26 -17 -44t-42 -18q-51 0 -51 44q0 26 17 44t46 18zM211 668q-14 0 -17 -11l-31 -93l-49 -3l23 163h492l-6 -48l-506 -620h353q15 0 18 11l33 107h48l-23 -174h-522l6 46l505 622h-324z" />
    <glyph glyph-name="zdotaccent" unicode="&#x17c;" horiz-adv-x="491" 
d="M322 741q47 0 47 -44q0 -26 -17 -44t-42 -18q-51 0 -51 44q0 27 17 45t46 17zM168 455q-9 0 -12 -13l-21 -66l-49 -3l18 138h377l-6 -44l-358 -411h232q9 0 12 13l23 76l49 3l-20 -148h-393l5 42l360 413h-217z" />
    <glyph glyph-name="Zcaron" unicode="&#x17d;" horiz-adv-x="620" 
d="M542 875l-129 -99h-76l-103 99l40 34l107 -84l131 84zM211 668q-14 0 -17 -11l-31 -93l-49 -3l23 163h492l-6 -48l-506 -620h353q15 0 18 11l33 107h48l-23 -174h-522l6 46l505 622h-324z" />
    <glyph glyph-name="zcaron" unicode="&#x17e;" horiz-adv-x="491" 
d="M481 696l-148 -120h-76l-109 119l42 34l112 -104l146 104zM168 455q-9 0 -12 -13l-21 -66l-49 -3l18 138h377l-6 -44l-358 -411h232q9 0 12 13l23 76l49 3l-20 -148h-393l5 42l360 413h-217z" />
    <glyph glyph-name="longs" unicode="&#x17f;" horiz-adv-x="380" 
d="M366 766q89 0 139 -47l-32 -48q-53 38 -103 38q-50 1 -73 -27t-31 -85l-114 -809h-66l117 825q22 153 163 153z" />
    <glyph glyph-name="florin" unicode="&#x192;" horiz-adv-x="489" 
d="M38 -83q-97 0 -137 35l28 48q41 -28 99 -28t84 82l80 257q3 10 -7 10h-90l17 56h102l35 114q26 81 67 117q42 36 112 37q70 0 117 -29l-37 -121l-44 4l9 70q2 20 -48 20q-49 1 -73 -27t-42 -84l-29 -91q-3 -10 5 -10h144l-17 -56h-152l-78 -253q-25 -83 -59 -117t-86 -34
z" />
    <glyph glyph-name="Scommaaccent" unicode="&#x218;" horiz-adv-x="562" 
d="M318 -108q0 -26 -22 -57l-59 -85l-34 15l33 81q2 6 -3 9l-29 14l31 70q43 -3 63 -12t20 -35zM392 676q-197 0 -197 -143q-1 -55 33 -81t87 -46t70 -26q61 -25 92 -63q32 -38 32 -103q-1 -118 -77 -172t-200 -54q-62 0 -120 12t-80 25l20 151h48l6 -91q1 -12 27 -25
t109 -13q195 0 195 158q-1 79 -81 115q-18 8 -77 30t-86 40q-70 45 -70 142q-1 97 75 151t178 54t186 -33l-23 -160l-49 5l-4 93q0 34 -94 34z" />
    <glyph glyph-name="scommaaccent" unicode="&#x219;" horiz-adv-x="440" 
d="M243 -108q0 -26 -22 -57l-59 -85l-34 15l33 81q3 6 -3 9l-29 14l31 70q44 -3 64 -12t19 -35zM284 468q-138 0 -137 -86q0 -32 23 -52q24 -20 84 -46t95 -54t35 -96t-54 -108q-54 -38 -124 -38q-128 0 -185 32l18 123l47 -3l3 -69q0 -10 26 -20t81 -10t88 25t33 58
q-1 54 -37 79q-37 24 -72 37q-57 20 -92 48t-35 93t55 103q54 38 140 37q86 0 144 -26l-17 -123l-47 3l-3 67q-1 26 -69 26z" />
    <glyph glyph-name="uni021A" unicode="&#x21a;" horiz-adv-x="619" 
d="M331 -108q0 -26 -22 -57l-59 -85l-34 15l33 81q3 6 -3 9l-29 14l31 70q44 -3 64 -12t19 -35zM167 668q-14 0 -17 -11l-27 -87h-45l20 154h571l-21 -154h-45l-4 87q-1 11 -14 11h-177l-84 -601q-2 -11 0 -15t13 -4l109 -8l-6 -40h-305l6 40l99 7q10 1 13 5t5 15l84 601
h-175z" />
    <glyph glyph-name="uni021B" unicode="&#x21b;" horiz-adv-x="391" 
d="M249 -108q0 -26 -22 -57l-59 -85l-34 15l33 81q3 6 -3 9l-29 14l31 70q44 -3 64 -12t19 -35zM208 -12q-114 0 -114 97q0 9 2 27l46 333q2 10 -6 10h-73l7 46q50 7 76 35t44 99h45l-16 -114q-2 -10 6 -10h146l-8 -56h-154l-43 -318q-3 -21 -3 -43q0 -48 62 -48q40 0 98 22
l15 -52q-61 -28 -130 -28z" />
    <glyph glyph-name="dotlessj" unicode="&#x237;" horiz-adv-x="274" 
d="M-20 -166q46 0 64 26t26 85l70 494q3 18 -9 21l-60 14l6 37h139l-81 -581q-21 -153 -134 -153q-95 0 -136 41l32 47q37 -31 83 -31z" />
    <glyph glyph-name="apostrophe" unicode="&#x2bc;" horiz-adv-x="500" 
d="M386 649q0 -19 -16 -42l-58 -86l-30 14l36 76q2 6 -2 9l-24 11l25 56q69 -3 69 -38z" />
    <glyph glyph-name="circumflex" unicode="&#x2c6;" horiz-adv-x="500" 
d="M502 609l-43 -33l-114 104l-144 -104l-33 33l146 120h76z" />
    <glyph glyph-name="caron" unicode="&#x2c7;" horiz-adv-x="500" 
d="M513 696l-148 -120h-76l-109 119l42 34l112 -104l146 104z" />
    <glyph glyph-name="uni02C9" unicode="&#x2c9;" horiz-adv-x="500" 
d="M487 616h-303l8 57h303z" />
    <glyph glyph-name="breve" unicode="&#x2d8;" horiz-adv-x="500" 
d="M330 573q-130 0 -146 132l50 19q10 -50 34 -73t70 -23q85 0 130 96l46 -19q-54 -132 -184 -132z" />
    <glyph glyph-name="dotaccent" unicode="&#x2d9;" horiz-adv-x="500" 
d="M354 741q47 0 47 -44q0 -26 -17 -44t-42 -18q-51 0 -51 44q0 27 17 45t46 17z" />
    <glyph glyph-name="ring" unicode="&#x2da;" horiz-adv-x="500" 
d="M349 641q21 -1 33 13t12 36q0 31 -35 31q-21 0 -33 -13t-12 -34q0 -33 35 -33zM342 600q-76 0 -76 71q0 41 27 67t67 27q82 0 82 -69q0 -44 -26 -70t-74 -26z" />
    <glyph glyph-name="ogonek" unicode="&#x2db;" horiz-adv-x="500" 
d="M228 -212q-74 0 -74 62t68 120q24 20 64 49l51 -15q-110 -79 -110 -133q0 -26 27 -26q20 0 49 12l11 -49q-45 -20 -86 -20z" />
    <glyph glyph-name="tilde" unicode="&#x2dc;" horiz-adv-x="500" 
d="M426 591q-22 0 -35 4l-132 36q-10 3 -16 -3l-48 -41l-32 27l35 41q33 39 54 39t41 -5l129 -35q10 -3 17 3l44 39l33 -27l-28 -32q-40 -46 -62 -46z" />
    <glyph glyph-name="hungarumlaut" unicode="&#x2dd;" horiz-adv-x="500" 
d="M528 730l-178 -159l-32 27l159 178zM366 730l-178 -159l-31 27l158 179z" />
    <glyph glyph-name="uni0394" unicode="&#x394;" horiz-adv-x="652" 
d="M520 58l-118 611l-291 -611h409zM605 0h-592l348 724h92z" />
    <glyph glyph-name="uni03A9" unicode="&#x3a9;" horiz-adv-x="851" 
d="M129 56h134l8 54q-75 34 -115 102t-40 152q0 164 107 268t266 105q159 -1 233 -77t74 -198t-66 -214q-66 -91 -176 -139l-7 -53h127q14 0 17 11l29 87h50l-22 -154h-270l19 134q76 30 129 84q100 101 100 222q0 122 -60 180t-163 58q-145 0 -231 -81t-86 -231
q0 -174 150 -232l-19 -134h-278l22 154h50l3 -87q0 -11 15 -11z" />
    <glyph glyph-name="uni03BC" unicode="&#x3bc;" horiz-adv-x="629" 
d="M166 121q0 -76 86 -76t187 103l51 363h67l-61 -441q-3 -20 10 -21l54 -7l-6 -42h-130l10 71h-4q-110 -83 -184 -83t-103 43l-22 -207h-67l96 687h67l-47 -336q-4 -25 -4 -54z" />
    <glyph glyph-name="pi" unicode="&#x3c0;" horiz-adv-x="696" 
d="M586 0h-134l63 450h-268l-63 -450h-134l6 44l52 7q16 1 17 12l53 377q2 12 0 16t-13 4l-62 7l6 44h564l-6 -44l-68 -8q-11 -1 -14 -5t-5 -14l-52 -369q-2 -11 0 -15t14 -5l50 -7z" />
    <glyph glyph-name="Wgrave" unicode="&#x1e80;" horiz-adv-x="937" 
d="M612 765l-182 106l48 63l163 -131zM672 0h-86l-73 493l-212 -493h-78l-79 656q-1 16 -16 19l-60 10l8 39h230l-6 -39l-90 -10l65 -592l208 490h80l74 -502l227 604l-87 10l6 39h225l-6 -39l-54 -9q-16 -3 -25 -24z" />
    <glyph glyph-name="wgrave" unicode="&#x1e81;" horiz-adv-x="794" 
d="M525 601l-37 -32l-155 139l59 53zM565 0h-82l-59 426l-181 -426h-80l-69 446q-2 14 -15 17l-44 9l6 39h111l4 -5l8 -82l48 -355l185 442h78l60 -449l176 401l-64 9l6 39h139l4 -5z" />
    <glyph glyph-name="Wacute" unicode="&#x1e82;" horiz-adv-x="937" 
d="M685 872l-212 -106l-22 38l200 131zM672 0h-86l-73 493l-212 -493h-78l-79 656q-1 16 -16 19l-60 10l8 39h230l-6 -39l-90 -10l65 -592l208 490h80l74 -502l227 604l-87 10l6 39h225l-6 -39l-54 -9q-16 -3 -25 -24z" />
    <glyph glyph-name="wacute" unicode="&#x1e83;" horiz-adv-x="794" 
d="M569 701l-184 -132l-29 35l166 153zM565 0h-82l-59 426l-181 -426h-80l-69 446q-2 14 -15 17l-44 9l6 39h111l4 -5l8 -82l48 -355l185 442h78l60 -449l176 401l-64 9l6 39h139l4 -5z" />
    <glyph glyph-name="Wdieresis" unicode="&#x1e84;" horiz-adv-x="937" 
d="M663 880q44 0 44 -41q0 -25 -16 -41t-42 -16q-44 0 -44 41q0 25 16 41t42 16zM464 880q44 0 44 -41q0 -25 -16 -41t-42 -16q-44 0 -44 41q0 25 16 41t42 16zM672 0h-86l-73 493l-212 -493h-78l-79 656q-1 16 -16 19l-60 10l8 39h230l-6 -39l-90 -10l65 -592l208 490h80
l74 -502l227 604l-87 10l6 39h225l-6 -39l-54 -9q-16 -3 -25 -24z" />
    <glyph glyph-name="wdieresis" unicode="&#x1e85;" horiz-adv-x="794" 
d="M339 609q-45 0 -45 41q0 25 16 41t42 16q44 0 44 -41q0 -24 -16 -40t-41 -17zM538 609q-45 0 -45 41q0 25 16 41t42 16q44 0 44 -41q1 -24 -15 -40t-42 -17zM565 0h-82l-59 426l-181 -426h-80l-69 446q-2 14 -15 17l-44 9l6 39h111l4 -5l8 -82l48 -355l185 442h78
l60 -449l176 401l-64 9l6 39h139l4 -5z" />
    <glyph glyph-name="Ygrave" unicode="&#x1ef2;" horiz-adv-x="584" 
d="M446 765l-182 106l48 63l163 -131zM416 0h-283l5 39l93 7q14 2 17 21l30 217l-146 373q-7 12 -21 17l-43 11l6 39h200l-6 -39l-73 -9l123 -329l209 329l-71 9l6 39h196l-6 -39l-42 -11q-17 -5 -28 -21l-238 -366l-29 -220q-2 -13 0 -16t13 -4l93 -8z" />
    <glyph glyph-name="ygrave" unicode="&#x1ef3;" horiz-adv-x="506" 
d="M378 601l-37 -32l-155 139l59 53zM28 -166q45 0 68 23t55 84l42 79l-102 427q-3 13 -17 17l-41 10l8 37h111l3 -4l22 -125l61 -279l176 360l-62 11l4 37h148l5 -7l-295 -579q-42 -82 -78 -115t-109 -33q-72 0 -113 41l32 47q37 -31 82 -31z" />
    <glyph glyph-name="endash" unicode="&#x2013;" horiz-adv-x="500" 
d="M506 255h-499l8 54h499z" />
    <glyph glyph-name="emdash" unicode="&#x2014;" horiz-adv-x="1000" 
d="M1006 255h-999l8 54h999z" />
    <glyph glyph-name="quoteleft" unicode="&#x2018;" horiz-adv-x="172" 
d="M95 608q0 19 19 47l68 101l34 -15l-43 -94q-3 -6 4 -9l27 -13l-29 -66q-80 6 -80 49z" />
    <glyph glyph-name="quoteright" unicode="&#x2019;" horiz-adv-x="177" 
d="M212 705q0 -19 -19 -47l-68 -101l-34 15l43 94q3 6 -4 9l-27 13l29 66q80 -6 80 -49z" />
    <glyph glyph-name="quotesinglbase" unicode="&#x201a;" horiz-adv-x="166" 
d="M121 30q0 -19 -19 -47l-68 -101l-34 15l43 94q3 6 -4 9l-27 13l29 66q80 -6 80 -49z" />
    <glyph glyph-name="quotedblleft" unicode="&#x201c;" horiz-adv-x="315" 
d="M95 608q0 19 19 47l68 101l34 -15l-43 -94q-3 -6 4 -9l27 -13l-29 -66q-80 6 -80 49zM238 608q0 19 19 47l68 101l34 -15l-43 -94q-3 -6 4 -9l27 -13l-29 -66q-80 6 -80 49z" />
    <glyph glyph-name="quotedblright" unicode="&#x201d;" horiz-adv-x="320" 
d="M212 705q0 -19 -19 -47l-68 -101l-34 15l43 94q3 6 -4 9l-27 13l29 66q80 -6 80 -49zM355 705q0 -19 -19 -47l-68 -101l-34 15l43 94q3 6 -4 9l-27 13l29 66q80 -6 80 -49z" />
    <glyph glyph-name="quotedblbase" unicode="&#x201e;" horiz-adv-x="309" 
d="M121 30q0 -19 -19 -47l-68 -101l-34 15l43 94q3 6 -4 9l-27 13l29 66q80 -6 80 -49zM264 30q0 -19 -19 -47l-68 -101l-34 15l43 94q3 6 -4 9l-27 13l29 66q80 -6 80 -49z" />
    <glyph glyph-name="dagger" unicode="&#x2020;" horiz-adv-x="389" 
d="M396 417h-74l-82 15l9 -112l-42 -212l-27 -191h-57l27 192l16 211l41 112l-86 -15h-74l9 63h74l82 -15l-2 96l12 84h63l-12 -84l-28 -96l86 15h74zM245 465h-33l-5 -33h33z" />
    <glyph glyph-name="daggerdbl" unicode="&#x2021;" horiz-adv-x="407" 
d="M364 82h-74l-82 15l2 -96l-12 -84h-63l12 84l28 96l-86 -15h-74l9 63h74l82 -15l-9 116l11 78l40 108l-86 -15h-74l9 63h74l82 -15l-2 96l12 84h63l-12 -84l-28 -96l86 15h74l-9 -63h-74l-82 15l10 -108l-11 -78l-41 -116l86 15h74zM255 432l5 33h-33l-5 -33h33zM175 97
h33l5 33h-33z" />
    <glyph glyph-name="bullet" unicode="&#x2022;" horiz-adv-x="365" 
d="M78 280q0 129 132 129t131 -129q1 -129 -131 -129t-132 129z" />
    <glyph glyph-name="ellipsis" unicode="&#x2026;" horiz-adv-x="549" 
d="M25 32q0 70 67 70q51 0 51 -45q1 -29 -17 -49t-50 -20q-51 0 -51 44zM391 32q0 70 67 70q51 0 51 -45q1 -29 -17 -49t-50 -20q-51 0 -51 44zM208 32q0 70 67 70q51 0 51 -45q0 -29 -18 -49t-49 -20q-51 0 -51 44z" />
    <glyph glyph-name="perthousand" unicode="&#x2030;" horiz-adv-x="1056" 
d="M838 38q99 0 99 141q0 83 -64 83q-36 0 -68 -33t-32 -112t65 -79zM879 313q120 0 120 -128q0 -89 -44 -143t-124 -54q-119 0 -119 127q0 87 44 143t123 55zM515 38q99 0 99 141q0 83 -64 83q-36 0 -68 -33t-32 -112t65 -79zM558 313q118 0 118 -128q0 -89 -44 -143
t-124 -54q-119 0 -119 127q0 86 45 142t124 56zM203 345q99 0 99 143q0 81 -64 81q-36 0 -68 -32t-32 -112t65 -80zM175 -17h-66l466 638h65zM245 620q119 0 119 -126q0 -89 -44 -144t-114 -55t-100 36q-30 35 -29 107t45 127t123 55z" />
    <glyph glyph-name="guilsinglleft" unicode="&#x2039;" horiz-adv-x="278" 
d="M145 259q0 -3 2 -9l53 -147h-66l-66 157l110 148h68l-95 -139q-6 -7 -6 -10z" />
    <glyph glyph-name="guilsinglright" unicode="&#x203a;" horiz-adv-x="278" 
d="M153 258q0 4 -2 9l-53 141h66l66 -153l-107 -152h-71l96 145q5 6 5 10z" />
    <glyph glyph-name="fraction" unicode="&#x2044;" horiz-adv-x="162" 
d="M-95 -12h-64l458 736h63z" />
    <glyph glyph-name="zerosuperior" unicode="&#x2070;" horiz-adv-x="405" 
d="M234 391q48 -1 73 43t35 114t10 111q0 87 -69 87q-57 0 -83 -42q-46 -75 -46 -218q0 -46 16 -70t64 -25zM220 342q-132 0 -132 146q0 166 66 251q44 58 125 58q81 1 109 -37t29 -88t-11 -132t-53 -140t-133 -58z" />
    <glyph glyph-name="foursuperior" unicode="&#x2074;" horiz-adv-x="369" 
d="M265 515l30 204l-164 -204h134zM302 350h-60l17 118h-197l6 38l222 279h75l-39 -270h57l-7 -48h-57z" />
    <glyph glyph-name="fivesuperior" unicode="&#x2075;" horiz-adv-x="340" 
d="M244 623q108 1 108 -123q0 -64 -46 -112q-46 -46 -133 -46q-88 0 -137 56l43 39q39 -44 93 -44t85 28q32 28 32 73q0 79 -67 79q-46 0 -88 -34l-42 19l47 228h233l-7 -52h-182l-31 -139q40 28 92 28z" />
    <glyph glyph-name="sixsuperior" unicode="&#x2076;" horiz-adv-x="380" 
d="M160 500q0 -109 72 -109q43 0 66 31t23 80q0 72 -57 72q-51 0 -102 -38q-2 -18 -2 -36zM278 622q108 0 108 -124q0 -64 -44 -110t-117 -46q-128 0 -128 168q0 88 33 157q62 129 173 129q69 0 111 -41l-35 -40q-33 30 -69 30q-68 0 -102 -55t-42 -105q58 37 112 37z" />
    <glyph glyph-name="sevensuperior" unicode="&#x2077;" horiz-adv-x="350" 
d="M162 735q-7 0 -10 -7l-19 -56l-45 -3l16 117h300l-5 -45q-67 -55 -131 -174t-81 -217h-68q27 120 87 226t115 159h-159z" />
    <glyph glyph-name="eightsuperior" unicode="&#x2078;" horiz-adv-x="350" 
d="M316 699q0 51 -60 51q-36 0 -58 -20t-21 -56q0 -36 69 -75q70 57 70 100zM124 448q0 -24 18 -42t58 -17t66 25t25 54q0 30 -21 49q-21 20 -66 42q-80 -54 -80 -111zM356 476q0 -62 -48 -98t-113 -36q-64 0 -97 26t-33 74q0 77 98 143q-49 34 -49 89t42 89t100 34t88 -25
t31 -65q0 -63 -85 -132q66 -38 66 -99z" />
    <glyph glyph-name="ninesuperior" unicode="&#x2079;" horiz-adv-x="389" 
d="M315 714q-12 36 -55 35q-44 0 -67 -34t-23 -87q0 -75 58 -75q51 0 96 38q3 19 3 53t-12 70zM217 504q-113 0 -113 130q0 68 45 116t116 47q127 0 127 -167q0 -94 -28 -161q-52 -127 -164 -127q-82 0 -124 45l36 41q38 -35 86 -35q99 0 122 147q-49 -36 -103 -36z" />
    <glyph glyph-name="plussuperior" unicode="&#x207a;" horiz-adv-x="308" 
d="M215 446h-57l14 98h-96l8 54h96l13 95h57l-13 -95h96l-8 -54h-96z" />
    <glyph glyph-name="minussuperior" unicode="&#x207b;" horiz-adv-x="308" 
d="M325 544h-249l8 54h249z" />
    <glyph glyph-name="equalsuperior" unicode="&#x207c;" horiz-adv-x="307" 
d="M329 575h-247l8 56h247zM314 469h-247l8 56h247z" />
    <glyph glyph-name="parenleftsuperior" unicode="&#x207d;" horiz-adv-x="236" 
d="M101 481q0 166 151 337l43 -29q-68 -87 -98 -157t-30 -160t49 -197l-53 -27q-62 109 -62 233z" />
    <glyph glyph-name="parenrightsuperior" unicode="&#x207e;" horiz-adv-x="227" 
d="M147 593q0 90 -49 197l53 28q62 -111 62 -233q0 -166 -151 -337l-43 29q68 86 98 156t30 160z" />
    <glyph glyph-name="zeroinferior" unicode="&#x2080;" horiz-adv-x="405" 
d="M169 -106q48 0 73 44t35 112q10 70 10 112q0 87 -69 87q-56 -1 -82 -43q-46 -75 -47 -217q0 -47 16 -71t64 -24zM155 -155q-132 0 -132 146q-1 166 65 251q44 58 126 58t110 -38t28 -86q0 -50 -12 -133t-52 -141q-41 -58 -133 -57z" />
    <glyph glyph-name="oneinferior" unicode="&#x2081;" horiz-adv-x="245" 
d="M179 -147h-205l5 36l61 4q11 1 12 13l47 322q2 12 -7 14l-61 11l8 37h132l-55 -384q-3 -11 9 -13l59 -4z" />
    <glyph glyph-name="twoinferior" unicode="&#x2082;" horiz-adv-x="332" 
d="M13 192q17 108 149 108q131 0 131 -95q-1 -55 -55 -117q-16 -18 -52 -56l-130 -133h148q9 0 11 7l18 54h46l-15 -107h-292l6 41l146 152q6 6 19 20t19 18q6 6 16 18t14 16q4 6 12 16q24 31 24 66q0 51 -65 51q-43 1 -64 -13t-27 -53z" />
    <glyph glyph-name="threeinferior" unicode="&#x2083;" horiz-adv-x="337" 
d="M275 -2q-1 -70 -45 -112t-128 -41q-84 0 -134 58l42 41q39 -46 91 -46q108 0 108 93q0 68 -77 68q-23 0 -48 -4l6 49l41 4q99 10 99 89q0 54 -62 54q-38 1 -56 -13t-24 -53l-61 7q9 64 49 86t99 22q120 0 120 -95q0 -85 -90 -116l-1 -3q71 -18 71 -88z" />
    <glyph glyph-name="fourinferior" unicode="&#x2084;" horiz-adv-x="369" 
d="M195 18l30 204l-164 -204h134zM232 -147h-60l17 118h-197l6 38l222 279h75l-39 -270h57l-7 -48h-57z" />
    <glyph glyph-name="fiveinferior" unicode="&#x2085;" horiz-adv-x="340" 
d="M178 126q108 0 109 -124q1 -64 -45 -110t-134 -47q-88 0 -137 56l43 39q38 -44 92 -44t86 28t32 73q0 79 -67 79q-46 0 -88 -34l-42 19l47 228h233l-7 -52h-182l-31 -139q39 28 91 28z" />
    <glyph glyph-name="sixinferior" unicode="&#x2086;" horiz-adv-x="380" 
d="M97 3q0 -109 72 -109q43 0 66 31t23 80q0 72 -57 72q-51 0 -102 -38q-2 -18 -2 -36zM214 125q108 -1 109 -125q1 -64 -43 -109q-44 -46 -118 -46q-128 0 -128 168q0 88 33 157q62 129 173 129q69 0 111 -41l-35 -40q-34 30 -70 30q-68 0 -101 -55q-34 -55 -42 -105
q57 37 111 37z" />
    <glyph glyph-name="seveninferior" unicode="&#x2087;" horiz-adv-x="350" 
d="M97 238q-7 0 -10 -7l-19 -56l-45 -3l16 117h300l-5 -45q-66 -55 -130 -174t-82 -217h-68q26 119 86 225t116 160h-159z" />
    <glyph glyph-name="eightinferior" unicode="&#x2088;" horiz-adv-x="350" 
d="M252 202q0 51 -60 51q-36 0 -58 -20q-22 -19 -21 -55q0 -36 69 -76q70 57 70 100zM60 -49q0 -23 18 -41t58 -18t66 24t25 54q0 30 -21 50t-66 42q-80 -54 -80 -111zM292 -22q0 -60 -48 -96t-113 -37q-64 1 -97 27t-33 73q0 77 98 143q-49 34 -49 89t42 89t100 34t88 -25
t31 -65q0 -63 -85 -132q66 -40 66 -100z" />
    <glyph glyph-name="nineinferior" unicode="&#x2089;" horiz-adv-x="389" 
d="M252 216q-12 35 -55 36q-44 0 -67 -34t-23 -87q0 -75 58 -75q51 0 96 38q3 19 3 53q0 33 -12 69zM154 7q-113 0 -113 130q0 67 45 115t116 48q127 0 127 -167q1 -94 -27 -161q-52 -127 -165 -127q-82 0 -124 45l36 41q38 -35 86 -35q99 0 122 147q-49 -36 -103 -36z" />
    <glyph glyph-name="parenleftinferior" unicode="&#x208d;" horiz-adv-x="236" 
d="M36 -16q0 166 151 337l43 -29q-68 -87 -98 -157t-30 -160t49 -197l-53 -27q-62 109 -62 233z" />
    <glyph glyph-name="parenrightinferior" unicode="&#x208e;" horiz-adv-x="227" 
d="M82 96q0 90 -49 197l53 28q62 -111 62 -233q0 -166 -151 -337l-43 29q68 86 98 156t30 160z" />
    <glyph glyph-name="Euro" unicode="&#x20ac;" horiz-adv-x="507" 
d="M386 586q-165 0 -218 -182h220l-17 -56h-215q-4 -33 -6 -69h201l-17 -56h-183q11 -179 150 -179q90 0 96 26l22 77l47 4l-18 -134q-71 -29 -162 -29q-90 0 -144 61t-60 174h-78l17 56h61q1 25 7 69h-51l17 56h45q32 120 110 180t170 61q92 0 152 -30l-19 -135l-44 5
l-3 77q0 24 -80 24z" />
    <glyph glyph-name="afii61352" unicode="&#x2116;" horiz-adv-x="1081" 
d="M843 261q55 0 87 41t31 124q0 83 -81 83q-56 0 -88 -40t-32 -124t83 -84zM836 214q-135 0 -135 135q1 93 49 151t127 57q144 0 144 -134q0 -97 -48 -153t-137 -56zM672 113l8 55h308l-8 -55h-308zM570 0h-80l-254 552l-66 -480q-2 -12 0 -16t13 -4l66 -8l-7 -44h-226
l7 44l64 7q10 1 13 5t5 15l68 484q2 11 0 15t-13 5l-62 7l7 45h174l241 -538l65 466q2 11 0 15t-13 5l-62 7l6 44h225l-6 -44l-68 -8q-11 -1 -14 -4t-5 -15z" />
    <glyph glyph-name="trademark" unicode="&#x2122;" horiz-adv-x="823" 
d="M874 348h-144v32l50 5v237l-103 -193h-40l-101 194v-238l53 -5v-32h-145v32l42 5v299l-42 5v35h95l120 -239l123 239h90v-35l-43 -5v-299l45 -5v-32zM343 348h-181v33l62 5v294h-90l-10 -55h-33v99h319v-99h-33l-9 55h-92v-294l67 -5v-33z" />
    <glyph glyph-name="Omega" unicode="&#x2126;" horiz-adv-x="851" 
d="M129 56h134l8 54q-75 34 -115 102t-40 152q0 164 107 268t266 105q159 -1 233 -77t74 -198t-66 -214q-66 -91 -176 -139l-7 -53h127q14 0 17 11l29 87h50l-22 -154h-270l19 134q76 30 129 84q100 101 100 222q0 122 -60 180t-163 58q-145 0 -231 -81t-86 -231
q0 -174 150 -232l-19 -134h-278l22 154h50l3 -87q0 -11 15 -11z" />
    <glyph glyph-name="onethird" unicode="&#x2153;" horiz-adv-x="855" 
d="M776 145q0 -69 -44 -111t-129 -42q-84 0 -134 58l42 41q39 -46 91 -46q108 0 108 93q0 68 -77 68q-23 0 -48 -4l6 49l41 4q99 10 99 89q0 54 -62 54q-37 0 -55 -14t-25 -52l-61 7q8 63 48 85t100 23q120 0 120 -95q0 -85 -90 -116l-1 -3q71 -18 71 -88zM216 -12h-64
l458 736h63zM276 281h-205l5 36l61 4q11 1 12 13l47 322q2 12 -7 14l-61 11l8 37h132l-55 -384q-3 -11 9 -13l59 -4z" />
    <glyph glyph-name="twothirds" unicode="&#x2154;" horiz-adv-x="855" 
d="M819 145q-1 -69 -45 -111t-128 -42t-134 58l42 41q39 -46 91 -46q108 0 108 93q0 68 -77 68q-23 0 -48 -4l6 49l41 4q99 10 99 89q0 54 -62 54q-38 0 -56 -14t-24 -52l-61 7q9 63 49 85t99 23q120 0 120 -95q0 -85 -90 -116l-1 -3q71 -18 71 -88zM274 -12h-64l458 736h63
zM88 620q17 108 149 108q131 0 131 -95q0 -55 -54 -117q-16 -18 -53 -56l-130 -133h148q9 0 11 7l18 54h46l-15 -107h-292l6 41l146 152q6 6 19 20q12 14 18 18q6 6 16 18t16 16q4 6 12 16q24 31 23 66q0 51 -65 51q-43 1 -64 -13t-27 -53z" />
    <glyph glyph-name="oneeighth" unicode="&#x215b;" horiz-adv-x="855" 
d="M746 349q0 51 -60 51q-36 0 -58 -20t-21 -56q0 -36 69 -75q70 57 70 100zM554 98q0 -24 18 -42t58 -17t66 25t25 54q0 30 -21 49q-21 20 -66 42q-80 -54 -80 -111zM786 126q0 -62 -48 -98t-113 -36q-64 0 -97 26t-33 74q0 77 98 143q-49 34 -49 89t42 89t100 34t88 -25
t31 -65q0 -63 -85 -132q66 -38 66 -99zM227 -12h-64l458 736h63zM278 281h-205l5 36l61 4q11 1 12 13l47 322q2 12 -7 14l-61 11l8 37h132l-55 -384q-3 -11 9 -13l59 -4z" />
    <glyph glyph-name="threeeighths" unicode="&#x215c;" horiz-adv-x="855" 
d="M766 349q0 51 -60 51q-36 0 -58 -20t-21 -56q0 -36 69 -75q70 57 70 100zM574 98q0 -24 18 -42t58 -17t66 25t25 54q0 30 -21 49q-21 20 -66 42q-80 -54 -80 -111zM806 126q0 -62 -48 -98t-113 -36q-64 0 -97 26t-33 74q0 77 98 143q-49 34 -49 89t42 89t100 34t88 -25
t31 -65q0 -63 -85 -132q66 -38 66 -99zM259 -12h-64l458 736h63zM354 426q0 -70 -44 -112t-129 -41q-84 0 -134 58l42 41q39 -46 91 -46q108 0 108 93q0 68 -77 68q-23 0 -48 -4l6 49l41 4q99 10 99 89q0 54 -62 54q-37 1 -55 -13t-25 -53l-61 7q8 64 48 86t100 22
q120 0 120 -95q0 -85 -90 -116l-1 -3q71 -18 71 -88z" />
    <glyph glyph-name="fiveeighths" unicode="&#x215d;" horiz-adv-x="855" 
d="M790 349q0 51 -60 51q-36 0 -58 -20t-21 -56q0 -36 69 -75q70 57 70 100zM598 98q0 -24 18 -42t58 -17t66 25t25 54q0 30 -21 49q-21 20 -66 42q-80 -54 -80 -111zM830 126q0 -62 -48 -98t-113 -36q-64 0 -97 26t-33 74q0 77 98 143q-49 34 -49 89t42 89t100 34t88 -25
t31 -65q0 -63 -85 -132q66 -38 66 -99zM281 -12h-64l458 736h63zM272 554q108 0 108 -124q0 -64 -46 -110t-133 -47q-88 0 -137 56l43 39q39 -44 93 -44t85 28q32 28 32 73q0 79 -67 79q-46 0 -88 -34l-42 19l47 228h233l-7 -52h-182l-31 -139q40 28 92 28z" />
    <glyph glyph-name="seveneighths" unicode="&#x215e;" horiz-adv-x="855" 
d="M754 349q0 51 -60 51q-36 0 -58 -20t-21 -56q0 -36 69 -75q70 57 70 100zM562 98q0 -24 18 -42t58 -17t66 25t25 54q0 30 -21 49q-21 20 -66 42q-80 -54 -80 -111zM794 126q0 -62 -48 -98t-113 -36q-64 0 -97 26t-33 74q0 77 98 143q-49 34 -49 89t42 89t100 34t88 -25
t31 -65q0 -63 -85 -132q66 -38 66 -99zM212 -12h-64l458 736h63zM179 666q-7 0 -10 -7l-19 -56l-45 -3l16 117h300l-5 -45q-66 -55 -130 -174t-82 -217h-68q26 119 86 225t116 160h-159z" />
    <glyph glyph-name="partialdiff" unicode="&#x2202;" horiz-adv-x="569" 
d="M127 157q0 -53 25 -83t73 -30q97 0 147 77t67 155q-57 77 -153 77q-52 0 -92 -33q-68 -58 -67 -163zM220 -12q-163 0 -163 180q0 92 65 168q64 76 166 75q102 0 165 -71q12 53 12 134q0 140 -112 140q-79 0 -162 -50l-24 49q97 59 195 59q167 0 167 -216t-98 -357
q-77 -111 -211 -111z" />
    <glyph glyph-name="Delta" unicode="&#x2206;" horiz-adv-x="652" 
d="M520 58l-118 611l-291 -611h409zM605 0h-592l348 724h92z" />
    <glyph glyph-name="product" unicode="&#x220f;" horiz-adv-x="766" 
d="M665 -176h-229l6 41l64 7q10 2 14 6t5 14l108 776h-372l-108 -775q-2 -11 0 -15t13 -5l66 -8l-6 -41h-229l6 41l64 7q11 2 15 6t4 14l106 761q2 11 0 15t-13 5l-62 7l6 44h668l-6 -44l-68 -8q-11 -2 -14 -5t-5 -14l-106 -760q-2 -11 0 -15t13 -5l66 -8z" />
    <glyph glyph-name="summation" unicode="&#x2211;" horiz-adv-x="627" 
d="M556 668h-358l155 -388l-284 -400h379q14 0 17 11l28 87h50l-21 -154h-542l6 46l295 413l-161 394l6 47h520l-21 -150l-50 3l-3 78q-1 13 -16 13z" />
    <glyph glyph-name="minus" unicode="&#x2212;" 
d="M481 288h-373l9 66h373z" />
    <glyph glyph-name="uni2215" unicode="&#x2215;" horiz-adv-x="454" 
d="M100 -17h-64l404 648h63z" />
    <glyph glyph-name="uni2219" unicode="&#x2219;" horiz-adv-x="289" 
d="M180 245q-58 0 -49 57q7 57 65 57t51 -57q-9 -57 -67 -57z" />
    <glyph glyph-name="radical" unicode="&#x221a;" horiz-adv-x="552" 
d="M318 0h-77l-100 235q-5 12 -17 8l-65 -20l-13 45l130 58l105 -251l273 668l60 -15z" />
    <glyph glyph-name="infinity" unicode="&#x221e;" horiz-adv-x="678" 
d="M506 399q-49 0 -113 -82q57 -76 112 -76q31 0 51 24t20 58q0 76 -70 76zM135 321q0 -79 75 -79q54 0 112 75q-59 83 -116 83q-32 0 -52 -21t-19 -58zM206 453q54 0 86 -21t68 -63q72 84 139 84q67 -1 105 -33t37 -94t-39 -100t-108 -38t-141 82q-69 -82 -138 -82t-107 33
t-38 95t41 99q41 38 95 38z" />
    <glyph glyph-name="integral" unicode="&#x222b;" horiz-adv-x="530" 
d="M214 -133q70 0 64 74l-55 651q-6 69 33 102q38 33 92 33t99 -19l-18 -60q-37 19 -73 19q-74 0 -68 -71l55 -650q12 -135 -124 -135q-60 0 -100 21l18 53q35 -18 77 -18z" />
    <glyph glyph-name="approxequal" unicode="&#x2248;" horiz-adv-x="530" 
d="M413 395q-40 0 -118 23t-103 23t-41 -12t-40 -43l-40 18q29 48 57 72t68 23q40 0 112 -23q74 -23 101 -23q27 1 39 13t28 43l42 -14q-20 -50 -42 -75t-63 -25zM387 220q-39 0 -117 23t-104 23t-41 -12q-16 -12 -40 -43l-39 18q30 49 57 72t67 23t114 -23t100 -23t39 12
q12 12 27 44l42 -14q-19 -48 -42 -74t-63 -26z" />
    <glyph glyph-name="notequal" unicode="&#x2260;" 
d="M103 240h128l52 83h-169l10 69h203l64 100h68l-64 -100h98l-10 -69h-132l-52 -83h173l-10 -69h-207l-63 -99h-68l63 99h-94z" />
    <glyph glyph-name="lessequal" unicode="&#x2264;" 
d="M444 0h-373l9 66h373zM456 98l-352 148l12 84l387 159l15 -64l-344 -136l311 -130z" />
    <glyph glyph-name="greaterequal" unicode="&#x2265;" 
d="M441 0h-373l9 66h373zM476 246l-394 -148l-9 65l347 130l-306 136l31 60l343 -159z" />
    <glyph glyph-name="triangle" unicode="&#x25b3;" horiz-adv-x="425" 
d="M352 320l-185 -117v231z" />
    <glyph glyph-name="lozenge" unicode="&#x25ca;" horiz-adv-x="530" 
d="M245 55l157 252l-86 251l-156 -251zM265 -17h-60l-111 324l202 324h60l112 -324z" />
    <glyph glyph-name="circle" unicode="&#x25cb;" horiz-adv-x="610" 
d="M321 119q-85 0 -145 60t-60 145t60 145t145 60t145 -60t60 -145t-60 -145t-145 -60z" />
    <glyph glyph-name="ordfeminine.smcp" unicode="&#xf640;" horiz-adv-x="400" 
d="M248 550q-44 0 -79 -40t-35 -123t55 -83q46 0 118 74l20 137q-35 35 -79 35zM175 254q-99 0 -99 122q0 87 40 154t125 67q52 0 94 -36l11 30h54q-15 -65 -17 -78l-29 -203q-1 -7 0 -9t9 -3l32 -5l-5 -31h-95l8 57l-2 1q-68 -66 -126 -66z" />
    <glyph glyph-name="ordmasculine.smcp" unicode="&#xf641;" horiz-adv-x="395" 
d="M218 300q54 0 86 42t32 125q0 84 -80 84q-55 0 -88 -41q-33 -42 -33 -126t83 -84zM211 254q-135 0 -135 135q0 93 48 151t128 57q144 0 144 -134q0 -97 -48 -153t-137 -56z" />
    <glyph glyph-name="zero.tosf" unicode="&#xf81e;" 
d="M256 44q165 0 196 240q6 44 6 81q0 157 -130 157q-90 0 -136 -62q-68 -90 -68 -253t132 -163zM337 581q188 0 188 -210q1 -178 -75 -291q-62 -92 -198 -92q-195 0 -195 211q-1 181 81 292q66 90 199 90z" />
    <glyph glyph-name="one.tosf" unicode="&#xf81f;" 
d="M424 0h-336l6 44l131 7q9 1 11 5t5 15l58 416q2 18 -12 21l-91 17l7 41h172l-69 -495q-2 -11 0 -15t14 -5l110 -9z" />
    <glyph glyph-name="two.tosf" unicode="&#xf820;" 
d="M415 438q0 86 -113 86q-70 0 -100 -22t-36 -88l-63 9q10 101 70 129q60 29 138 29q169 0 169 -139q0 -53 -20 -85q-20 -31 -30 -47t-34 -40t-38 -35q-12 -11 -42 -37t-41 -34l-127 -108h229q14 0 17 11l28 87h49l-22 -154h-396l7 50l174 153q13 12 40 35t37 32
q9 10 29 28t28 28q31 39 39 61t8 51z" />
    <glyph glyph-name="three.tosf" unicode="&#xf821;" 
d="M452 122q0 -91 -60 -148t-169 -57q-65 1 -117 25t-77 60l47 45q54 -69 136 -69q170 0 171 142q0 112 -134 112q-29 0 -68 -6l7 57l62 6q78 7 119 46t41 98q0 91 -105 91q-69 0 -99 -22t-38 -88l-64 8q13 159 207 159q168 0 168 -139q0 -62 -35 -108t-101 -69v-4
q109 -27 109 -139z" />
    <glyph glyph-name="four.tosf" unicode="&#xf822;" 
d="M395 -67h-65l21 151h-300l8 53l289 433l51 -33l-264 -394h225l28 208l66 10l-30 -218h89l-8 -59h-91z" />
    <glyph glyph-name="five.tosf" unicode="&#xf823;" 
d="M318 333q74 0 119 -45t45 -139t-67 -163t-191 -69t-189 84l48 45q59 -70 141 -70t136 45q53 45 53 121q0 134 -115 134q-63 0 -136 -50l-50 24l64 316h332l-7 -58h-274l-46 -214q63 39 137 39z" />
    <glyph glyph-name="six.tosf" unicode="&#xf824;" 
d="M162 217q0 -174 119 -174q71 0 111 49t41 138q0 114 -98 114q-82 0 -171 -77q-2 -30 -2 -50zM393 585q-53 0 -89 -18q-61 -31 -94 -100t-42 -134q86 69 172 69q162 0 162 -163q0 -113 -60 -182t-168 -69q-181 0 -181 247q1 125 59 255q30 68 90 111q60 44 148 44t147 -60
l-41 -48q-49 48 -103 48z" />
    <glyph glyph-name="seven.tosf" unicode="&#xf825;" 
d="M186 508q-14 0 -17 -11l-30 -93l-45 -3l21 165h419l-7 -50q-97 -88 -191 -262t-119 -321h-71q40 184 123 330t176 245h-259z" />
    <glyph glyph-name="eight.tosf" unicode="&#xf826;" 
d="M440 513q0 75 -103 75q-52 0 -88 -27t-36 -73q-1 -46 27 -72t93 -61q107 83 107 158zM140 142q0 -46 33 -72t94 -25t103 37t43 88t-33 83t-105 65q-135 -88 -135 -176zM481 180q0 -90 -65 -140q-64 -52 -156 -52t-140 38t-49 104q1 68 41 118t111 98q-79 48 -79 127
t60 125t140 47t122 -35t43 -92q0 -98 -124 -189q96 -59 96 -149z" />
    <glyph glyph-name="nine.tosf" unicode="&#xf827;" 
d="M426 352q0 174 -119 174q-70 0 -111 -51t-41 -140q0 -117 98 -117q89 0 171 77q2 14 2 57zM205 -23q56 1 91 19q104 55 126 233q-84 -69 -172 -69q-164 0 -164 166q0 114 60 184t169 71q180 0 180 -247q0 -184 -80 -310q-29 -46 -81 -76q-52 -31 -106 -31q-116 0 -178 67
l41 48q58 -55 114 -55z" />
    <glyph glyph-name="st" unicode="&#xfb06;" horiz-adv-x="813" 
d="M284 468q-138 0 -137 -86q0 -32 23 -52q24 -20 84 -46t95 -54t35 -96t-54 -108q-54 -38 -124 -38q-128 0 -185 32l18 123l47 -3l3 -69q0 -10 26 -20t81 -10t88 25t33 58q-1 54 -37 79q-37 24 -72 37q-57 20 -92 48t-35 93t55 103q56 38 116 37q60 0 113 -11
q12 119 26 141q14 21 34 39t76 18t164 -27l-24 -160q-2 -10 8 -10h144l-8 -56h-154l-43 -318q-3 -21 -3 -43q0 -48 62 -48q40 0 98 22l15 -52q-61 -28 -130 -28q-114 0 -114 97q0 7 8 71l68 485q-44 14 -96 14t-61 -59q-7 -41 -15 -101l-17 -123l-47 3l-3 67q-1 26 -69 26z
" />
    <glyph glyph-name="CR" horiz-adv-x="500" 
 />
    <glyph glyph-name="hyphen.case" horiz-adv-x="311" 
d="M308 315h-271l11 74h271z" />
    <glyph glyph-name="ct" horiz-adv-x="854" 
d="M246 -12q-201 0 -201 205q0 166 83 247t209 81q41 0 79 -9q12 133 42 165q30 31 86 31t162 -27l-24 -160q-1 -10 6 -10h146l-8 -56h-154l-43 -318q-3 -21 -3 -43q0 -48 62 -48q40 0 98 22l15 -52q-61 -28 -130 -28q-114 0 -114 97q0 9 2 27l75 530q-48 13 -82 13t-50 -21
q-14 -21 -24 -84t-23 -179l-48 3l-3 66q0 23 -84 23t-146 -64q-61 -64 -61 -196q0 -159 137 -159q80 0 143 37l18 -54q-63 -39 -165 -39z" />
    <glyph glyph-name="ch" horiz-adv-x="1086" 
d="M246 -12q-201 0 -201 205q0 166 83 247t209 81q37 0 75 -9q10 123 17 144q9 20 17 42q11 28 43 50q33 22 95 22t137 -19l-49 -344q50 42 76 61q73 53 143 53q114 0 114 -119q0 -29 -5 -62l-39 -273q-1 -11 1 -15t13 -5l58 -8l-6 -39h-144l-2 3l19 100l31 217q6 39 6 73
q0 65 -59 66q-46 0 -96 -32t-120 -95l-36 -265q-2 -11 0 -15t14 -5l67 -8l-6 -39h-217l6 40l50 7q16 2 20 20l90 641q-40 8 -84 8t-60 -30q-22 -40 -32 -150q-11 -109 -17 -165l-50 3l-3 66q0 23 -84 23t-146 -64q-61 -64 -61 -196q0 -159 137 -159q80 0 143 37l18 -54
q-63 -39 -165 -39z" />
    <glyph glyph-name="ck" horiz-adv-x="1038" 
d="M246 -12q-201 0 -201 205q0 166 83 247t209 81q37 0 75 -9q10 123 17 144q9 20 17 42q11 28 43 50q33 22 95 22t137 -19l-71 -493l224 217q48 46 105 46q17 0 38 -3l-6 -49q-31 1 -55 -9t-55 -40l-96 -93l108 -262q5 -13 27 -16l58 -10l-6 -39h-123l-3 3l-36 96l-77 179
l-115 -109l-14 -102q-2 -11 0 -15t13 -5l69 -8l-6 -39h-217l6 40l51 7q15 2 18 20l91 641q-40 8 -68 8t-44 -6q-30 -12 -45 -61q-16 -49 -35 -278l-50 3l-3 66q0 23 -84 23t-146 -64q-61 -64 -61 -196q0 -159 137 -159q80 0 143 37l18 -54q-63 -39 -165 -39z" />
    <glyph glyph-name="Th" horiz-adv-x="1118" 
d="M169 668q-14 0 -17 -11l-28 -87h-46l21 154h576q8 0 12 11l7 20h60l-50 -348q50 42 76 61q73 53 143 53q114 0 114 -119q0 -29 -5 -62l-39 -273q-1 -11 1 -15t13 -5l58 -8l-6 -39h-144l-2 3l19 100l31 217q6 39 6 74q0 64 -59 65q-46 0 -96 -32t-120 -95l-36 -265
q-2 -11 0 -15t14 -5l67 -8l-6 -39h-217l6 40l50 7q10 1 14 5t5 15l85 601h-265l-84 -601q-2 -11 0 -15t13 -4l109 -8l-5 -40h-312l5 40l104 7q16 2 19 20l84 601h-175z" />
    <glyph glyph-name="hyphensuperior" horiz-adv-x="218" 
d="M241 506h-179l9 61h179z" />
    <glyph glyph-name="commasuperior" horiz-adv-x="114" 
d="M131 388q0 -16 -16 -42l-48 -71l-31 10l30 68q1 4 -3 7l-22 9l23 55q67 -3 67 -36z" />
    <glyph glyph-name="periodsuperior" horiz-adv-x="128" 
d="M143 391q0 -49 -50 -49q-39 0 -39 30q0 53 51 53q38 0 38 -34z" />
    <glyph glyph-name="a.sup" horiz-adv-x="382" 
d="M241 638q-44 0 -79 -40t-35 -123t55 -83q46 0 118 74l20 137q-35 35 -79 35zM168 342q-99 0 -99 122q1 87 41 154t124 67q52 0 94 -36l11 30h54q-15 -65 -17 -78l-29 -203q-1 -7 0 -9t9 -3l32 -5l-5 -31h-95l8 57l-2 1q-68 -66 -126 -66z" />
    <glyph glyph-name="b.sup" horiz-adv-x="382" 
d="M244 389q48 0 74 51q26 50 26 122t-52 72q-45 0 -119 -71l-20 -131q43 -43 91 -43zM311 685q92 0 92 -123q0 -88 -40 -154t-105 -65q-65 0 -114 41h-2l-8 -34h-57q14 47 21 92l49 338q1 11 -6 13l-36 10l4 30h102l-31 -213q76 65 131 65z" />
    <glyph glyph-name="c.sup" horiz-adv-x="321" 
d="M253 640q-51 0 -87 -39t-37 -126q0 -87 84 -87q48 0 92 23l13 -41q-46 -28 -114 -28t-101 36q-34 36 -34 98q0 105 55 157q54 52 128 52t106 -20l-12 -84l-40 2l-2 42q0 15 -51 15z" />
    <glyph glyph-name="d.sup" horiz-adv-x="384" 
d="M242 638q-44 0 -80 -40q-35 -40 -35 -123q1 -83 53 -83t120 75l21 136q-35 35 -79 35zM169 342q-100 0 -100 122q1 79 27 129q49 92 137 92q52 0 95 -33l17 129q1 11 -6 13l-36 9l5 30h102l-63 -435q-1 -7 0 -9t9 -3l32 -5l-4 -31h-96l8 56l-2 1q-69 -65 -125 -65z" />
    <glyph glyph-name="e.sup" horiz-adv-x="317" 
d="M290 605q0 34 -44 34q-44 -1 -74 -33t-40 -81q158 18 158 80zM198 342q-129 0 -129 132q0 89 52 150t132 61q49 0 71 -21t22 -55q0 -104 -218 -127q0 -47 17 -70t62 -23t98 24l11 -43q-58 -28 -118 -28z" />
    <glyph glyph-name="f.sup" horiz-adv-x="254" 
d="M126 635h-46l6 44h52l9 58q16 103 114 103q61 0 97 -31l-25 -39q-34 24 -66 24q-31 0 -45 -14t-19 -49l-7 -46q0 -6 5 -6h106l-6 -44h-112l-61 -421h-58l61 415q1 6 -5 6z" />
    <glyph glyph-name="g.sup" horiz-adv-x="376" 
d="M248 638q-120 0 -120 -179q0 -66 52 -66t121 74l20 136q-33 35 -73 35zM170 343q-100 0 -100 121q0 79 26 129q47 92 137 92q56 0 96 -36l11 30h54q-13 -52 -18 -84l-37 -267q-18 -121 -144 -121q-77 0 -128 29l21 41q39 -25 100 -25q83 0 96 80l12 73l-3 1
q-67 -63 -123 -63z" />
    <glyph glyph-name="h.sup" horiz-adv-x="407" 
d="M341 601q0 33 -39 33t-123 -72l-23 -163q-1 -12 9 -13l41 -5l-4 -31h-153l5 32l32 4q8 2 10 4t3 9l55 381q1 11 -6 13l-36 10l4 30h101l-32 -218q47 38 76 54t63 16q74 0 76 -75q0 -20 -3 -39l-25 -172q-3 -11 9 -13l36 -5l-4 -31h-107l-1 2l12 63l20 146q4 32 4 40z" />
    <glyph glyph-name="i.sup" horiz-adv-x="190" 
d="M199 350h-111l-1 3l14 73l29 200q2 11 -7 13l-35 9l5 31h102l-40 -280q-1 -12 9 -13l39 -5zM166 750q-37 0 -37 34q-1 21 13 34t36 13q36 0 36 -33q0 -20 -13 -34t-35 -14z" />
    <glyph glyph-name="j.sup" horiz-adv-x="187" 
d="M167 750q-37 0 -37 34q0 21 13 34t36 13q36 0 36 -33q1 -20 -13 -34t-35 -14zM46 207q-68 0 -96 28l24 37q24 -19 54 -19q30 -1 40 15q11 16 17 52l45 305q1 12 -6 14l-39 9l5 31h105l-54 -371q-15 -101 -95 -101z" />
    <glyph glyph-name="k.sup" horiz-adv-x="382" 
d="M382 686q9 0 30 -3l-4 -38q-40 0 -72 -30l-57 -53l67 -162q5 -12 16 -13l39 -6l-5 -31h-92l-2 2l-23 64l-47 108l-67 -61l-9 -64q-3 -11 8 -13l42 -5l-4 -31h-153l5 32l32 4q11 1 12 13l56 381q2 11 -7 13l-36 10l5 30h103l-45 -305l136 126q35 32 72 32z" />
    <glyph glyph-name="l.sup" horiz-adv-x="193" 
d="M197 350h-111l-1 3l14 73l52 354q2 11 -8 14l-34 9l4 30h103l-63 -434q-1 -10 9 -13l39 -5z" />
    <glyph glyph-name="m.sup" horiz-adv-x="591" 
d="M515 685q69 0 69 -67q0 -12 -4 -46l-25 -173q-1 -10 9 -13l37 -5l-5 -31h-107l-1 3l12 67l24 161q2 16 2 20q0 32 -33 32t-112 -71l-23 -163q-1 -10 9 -13l37 -5l-5 -31h-107l-1 1l36 231q2 14 2 24q0 28 -30 28t-53 -18t-29 -22t-20 -18q-14 -12 -17 -14l-23 -163
q-1 -12 9 -13l42 -5l-5 -31h-153l5 32l32 4q11 1 12 13l32 226q1 11 -6 13l-35 10l4 31h99l-9 -63q44 36 74 52t63 17q64 0 63 -70h1q80 70 130 70z" />
    <glyph glyph-name="n.sup" horiz-adv-x="408" 
d="M342 608q0 26 -40 26t-122 -72l-23 -163q-1 -12 9 -13l42 -5l-5 -31h-153l5 32l32 4q11 1 12 13l32 226q1 12 -6 13l-35 10l4 31h99l-9 -63q88 69 139 69q78 0 78 -76q0 -20 -3 -38l-25 -172q-1 -10 9 -13l36 -5l-4 -31h-107l-2 3l13 72l21 155q3 18 3 28z" />
    <glyph glyph-name="o.sup" horiz-adv-x="368" 
d="M211 388q55 0 87 42t31 125q0 84 -80 84q-55 0 -88 -41q-33 -42 -33 -126t83 -84zM204 342q-135 0 -135 135q1 93 49 151t127 57q144 0 144 -134q0 -97 -48 -153t-137 -56z" />
    <glyph glyph-name="p.sup" horiz-adv-x="385" 
d="M242 389q40 0 72 38t33 123q0 84 -51 84q-43 0 -120 -71l-19 -132q45 -42 85 -42zM314 685q93 0 93 -125q1 -92 -41 -154t-103 -62t-113 38l-17 -117q-2 -10 9 -12l60 -5l-5 -34h-129l-2 3l19 108l42 300q2 11 -6 13l-35 10l4 31h100l-9 -61q77 67 133 67z" />
    <glyph glyph-name="q.sup" horiz-adv-x="375" 
d="M242 638q-44 0 -80 -40q-35 -40 -35 -123q1 -83 53 -83t120 75l21 136q-35 35 -79 35zM171 343q-102 0 -102 121q0 86 40 153q39 67 107 67t113 -35l10 30h55q-14 -47 -19 -84l-46 -330q-2 -10 9 -12l32 -4l-5 -35h-157l5 34l49 5q11 1 12 12l22 142q-74 -64 -125 -64z
" />
    <glyph glyph-name="r.sup" horiz-adv-x="287" 
d="M293 685q25 0 42 -6l-13 -96l-44 2l-2 44q0 6 -7 6q-25 0 -89 -69l-23 -167q-3 -11 9 -13l59 -5l-5 -31h-170l5 32l33 4q10 1 11 13l32 226q1 11 -6 13l-35 10l4 31h97l-9 -66q54 72 111 72z" />
    <glyph glyph-name="s.sup" horiz-adv-x="296" 
d="M210 644q-63 0 -63 -49q0 -26 33 -41q10 -6 32 -14q40 -16 66 -34q26 -19 26 -65q0 -47 -38 -73t-105 -26q-66 0 -106 22l11 81l42 -3v-41q0 -19 70 -19t71 55q0 29 -33 45q-12 6 -34 12q-37 13 -63 31q-27 17 -27 63t38 72t99 25q61 0 98 -17l-12 -83l-40 3l-2 38
q0 18 -63 18z" />
    <glyph glyph-name="t.sup" horiz-adv-x="265" 
d="M180 342q-80 0 -80 66q0 6 2 20l29 201q0 6 -5 6h-47l6 38q35 5 54 24t31 66h38l-12 -78q0 -6 4 -6h95l-6 -44h-100l-27 -189q-2 -18 -2 -23q0 -34 40 -34q23 0 62 13l10 -40q-44 -20 -92 -20z" />
    <glyph glyph-name="u.sup" horiz-adv-x="406" 
d="M182 343q-81 0 -81 77q0 19 3 37l25 173q1 10 -9 13l-34 5l5 31h101l1 -2l-30 -206q-4 -32 -4 -38q0 -38 41 -38t122 72l24 163q1 12 -9 13l-39 5l5 31h106l1 -2l-41 -279q-1 -10 6 -12l37 -5l-4 -31h-100l10 64q-90 -71 -136 -71z" />
    <glyph glyph-name="v.sup" horiz-adv-x="357" 
d="M234 350h-68l-63 281q-2 8 -12 11l-27 6l5 31h88l4 -4l9 -65l40 -207l122 239l-43 6l4 31h106l4 -9z" />
    <glyph glyph-name="w.sup" horiz-adv-x="534" 
d="M431 350h-69l-36 256l-108 -256h-71l-44 281q-2 10 -11 11l-28 6l5 31h86l3 -4l5 -54l30 -215l113 271h63l40 -272l106 237l-40 6l5 31h96l4 -8z" />
    <glyph glyph-name="x.sup" horiz-adv-x="368" 
d="M382 350h-87l-5 4l-70 128l-83 -95l42 -6l-4 -31h-141l4 31l35 6q8 2 16 11l107 121l-62 113q-6 10 -14 11l-26 4l4 32h74l4 -4l63 -119l79 87l-36 5l5 31h128l-5 -31l-27 -7q-10 -2 -18 -12l-102 -109l67 -120q5 -11 16 -12l41 -7z" />
    <glyph glyph-name="y.sup" horiz-adv-x="346" 
d="M70 207q-50 0 -81 28l25 37q25 -19 54 -19q29 -1 44 13t34 48l25 46l-71 271q-2 10 -11 11l-27 7l6 30h84l3 -4l16 -81l39 -166l110 214l-40 7l3 30h105l4 -9l-195 -369q-28 -51 -53 -73q-24 -22 -74 -21z" />
    <glyph glyph-name="z.sup" horiz-adv-x="327" 
d="M156 636q-6 0 -8 -8l-14 -41l-41 -2l12 94h259l-5 -36l-226 -250h138q6 0 8 8l15 47l42 2l-14 -100h-269l4 34l228 252h-129z" />
    <glyph glyph-name="hypheninferior" horiz-adv-x="218" 
d="M176 9h-179l9 61h179z" />
    <glyph glyph-name="commainferior" horiz-adv-x="114" 
d="M66 -109q0 -16 -16 -42l-48 -71l-31 10l30 68q1 4 -3 7l-22 9l23 55q67 -3 67 -36z" />
    <glyph glyph-name="periodinferior" horiz-adv-x="128" 
d="M78 -106q0 -49 -50 -49q-39 0 -39 30q0 53 51 53q38 0 38 -34z" />
    <glyph glyph-name="minusinferior" horiz-adv-x="308" 
d="M260 47h-249l8 54h249z" />
    <glyph glyph-name="plusinferior" horiz-adv-x="308" 
d="M150 -51h-57l14 98h-96l8 54h96l13 95h57l-13 -95h96l-8 -54h-96z" />
    <glyph glyph-name="equalinferior" horiz-adv-x="307" 
d="M264 78h-247l8 56h247zM249 -28h-247l8 56h247z" />
    <glyph glyph-name="a.sinf" horiz-adv-x="382" 
d="M176 141q-44 0 -79 -40t-35 -123t55 -83q46 0 118 74l20 137q-35 35 -79 35zM103 -155q-99 0 -99 122q0 87 40 154t125 67q52 0 94 -36l11 30h54q-15 -65 -17 -78l-29 -203q-1 -7 0 -9t9 -3l32 -5l-5 -31h-95l8 57l-2 1q-68 -66 -126 -66z" />
    <glyph glyph-name="b.sinf" horiz-adv-x="382" 
d="M179 -108q48 0 74 51t26 123t-52 71q-45 0 -119 -71l-20 -131q43 -43 91 -43zM246 188q92 0 92 -123q0 -87 -40 -153t-105 -66t-114 41h-2l-8 -34h-57q14 47 21 92l49 338q2 11 -6 13l-36 10l4 30h102l-31 -213q76 65 131 65z" />
    <glyph glyph-name="c.sinf" horiz-adv-x="321" 
d="M188 143q-52 0 -88 -39t-36 -126t84 -87q48 0 92 23l13 -41q-45 -28 -113 -28q-68 -1 -102 35t-34 99q0 105 55 157t128 52t106 -20l-12 -84l-40 2l-2 42q0 15 -51 15z" />
    <glyph glyph-name="d.sinf" horiz-adv-x="384" 
d="M176 141q-44 0 -79 -40t-35 -123t52 -83t121 75l21 136q-36 35 -80 35zM104 -155q-100 0 -100 122q0 79 26 129q49 92 138 92q52 0 95 -33l17 129q2 10 -6 13l-36 9l5 30h102l-63 -435q-1 -7 0 -9t9 -3l32 -5l-4 -31h-96l8 56l-2 1q-69 -65 -125 -65z" />
    <glyph glyph-name="e.sinf" horiz-adv-x="317" 
d="M225 108q1 34 -43 34t-74 -32t-41 -82q158 18 158 80zM133 -155q-129 0 -129 132q0 89 52 150t132 61q48 0 70 -21t23 -55q0 -104 -218 -127q0 -47 17 -70t62 -23t98 24l11 -43q-58 -28 -118 -28z" />
    <glyph glyph-name="f.sinf" horiz-adv-x="254" 
d="M61 138h-46l6 44h52l9 58q16 103 114 103q61 0 97 -31l-25 -39q-34 24 -66 24q-32 -1 -46 -15t-18 -48l-7 -46q0 -6 5 -6h106l-6 -44h-112l-61 -421h-58l61 415q1 6 -5 6z" />
    <glyph glyph-name="g.sinf" horiz-adv-x="376" 
d="M182 141q-120 0 -119 -179q-1 -66 51 -66t122 74l20 136q-34 35 -74 35zM105 -154q-100 0 -100 121q0 79 26 129q47 92 137 92q56 0 96 -36l11 30h54q-13 -52 -18 -84l-37 -267q-18 -121 -144 -121q-77 0 -128 29l21 41q39 -25 100 -25q83 0 96 80l12 73l-3 1
q-67 -63 -123 -63z" />
    <glyph glyph-name="h.sinf" horiz-adv-x="407" 
d="M276 104q0 33 -39 33t-123 -72l-23 -163q-1 -12 9 -13l41 -5l-4 -31h-153l5 32l32 4q10 1 13 13l55 381q1 11 -6 13l-36 10l4 30h101l-32 -218q47 38 76 54t63 16q74 0 76 -75q0 -19 -3 -39l-25 -172q-3 -11 9 -13l36 -5l-4 -31h-107l-1 2l12 63l20 146q4 32 4 40z" />
    <glyph glyph-name="i.sinf" horiz-adv-x="190" 
d="M134 -147h-111l-1 3l14 73l29 200q2 11 -7 13l-35 9l5 31h102l-40 -280q-1 -12 9 -13l39 -5zM101 253q-37 0 -37 34q0 21 14 34t35 13q36 0 36 -33q0 -21 -13 -35t-35 -13z" />
    <glyph glyph-name="j.sinf" horiz-adv-x="187" 
d="M102 253q-37 0 -37 34q0 21 13 34t36 13q36 0 36 -33q0 -21 -14 -35t-34 -13zM-20 -290q-68 0 -95 28l24 37q23 -19 53 -19t41 16t17 51l45 305q1 12 -6 14l-39 9l5 31h105l-54 -371q-16 -101 -96 -101z" />
    <glyph glyph-name="k.sinf" horiz-adv-x="382" 
d="M317 189q9 0 30 -3l-4 -38q-40 0 -72 -30l-57 -53l67 -162q5 -12 16 -13l39 -6l-5 -31h-92l-2 2l-23 64l-47 108l-67 -61l-9 -64q-3 -11 8 -13l42 -5l-4 -31h-153l5 32l32 4q11 1 12 13l56 381q2 11 -7 13l-36 10l5 30h103l-45 -305l136 126q35 32 72 32z" />
    <glyph glyph-name="l.sinf" horiz-adv-x="193" 
d="M132 -147h-111l-1 3l14 73l52 354q2 11 -8 14l-34 9l4 30h103l-63 -434q-1 -10 9 -13l39 -5z" />
    <glyph glyph-name="m.sinf" horiz-adv-x="591" 
d="M450 188q69 0 69 -67q0 -12 -4 -46l-25 -173q-1 -10 9 -13l37 -5l-5 -31h-107l-1 3l12 67l24 161q2 16 2 20q0 32 -33 32t-112 -71l-23 -163q-1 -10 9 -13l37 -5l-5 -31h-107l-1 1l36 231q2 14 2 24q0 28 -30 28t-53 -18q-23 -19 -29 -23t-20 -16t-17 -15l-23 -163
q-1 -12 9 -13l42 -5l-5 -31h-153l5 32l32 4q11 1 12 13l32 226q2 10 -6 13l-35 10l4 31h99l-9 -63q44 37 74 53t63 16q64 0 63 -70h1q80 70 130 70z" />
    <glyph glyph-name="n.sinf" horiz-adv-x="408" 
d="M277 111q-1 26 -41 26t-121 -72l-23 -163q-1 -12 9 -13l42 -5l-5 -31h-153l5 32l32 4q11 1 12 13l32 226q1 12 -6 13l-35 10l4 31h99l-9 -63q88 69 139 69q78 0 78 -76q0 -20 -3 -38l-25 -172q-1 -10 9 -13l36 -5l-4 -31h-107l-2 3l13 72l21 155q3 18 3 28z" />
    <glyph glyph-name="o.sinf" horiz-adv-x="368" 
d="M146 -109q54 -1 86 41t32 126t-80 84q-55 0 -88 -41t-33 -125t83 -85zM139 -155q-135 0 -135 135q0 92 48 150t128 58q144 0 144 -134q0 -97 -48 -153t-137 -56z" />
    <glyph glyph-name="p.sinf" horiz-adv-x="385" 
d="M177 -108q41 0 73 38t32 123q0 84 -51 84q-43 0 -120 -71l-19 -132q45 -42 85 -42zM249 188q93 0 93 -125q0 -92 -42 -154t-102 -62q-61 0 -113 38l-17 -117q-2 -10 9 -12l60 -5l-5 -34h-129l-2 3l19 108l42 300q2 11 -6 13l-35 10l4 31h100l-9 -61q77 67 133 67z" />
    <glyph glyph-name="q.sinf" horiz-adv-x="375" 
d="M176 141q-44 0 -79 -40t-35 -123t52 -83t121 75l21 136q-36 35 -80 35zM106 -154q-102 0 -102 121q0 86 40 153t108 67t112 -35l10 30h55q-14 -47 -19 -84l-46 -330q-2 -10 9 -12l32 -4l-5 -35h-157l5 34l49 5q11 1 12 12l22 142q-74 -64 -125 -64z" />
    <glyph glyph-name="r.sinf" horiz-adv-x="287" 
d="M228 188q26 0 42 -6l-13 -96l-44 2l-2 44q0 6 -7 6q-25 0 -89 -69l-23 -167q-3 -11 9 -13l59 -5l-5 -31h-170l5 32l33 4q10 1 11 13l32 226q1 11 -6 13l-35 10l4 31h97l-9 -66q54 72 111 72z" />
    <glyph glyph-name="s.sinf" horiz-adv-x="296" 
d="M145 147q-63 0 -63 -49q0 -26 33 -41q11 -5 33 -13q40 -16 65 -35q26 -19 26 -65q-1 -46 -39 -72t-104 -27q-66 0 -106 22l11 81l42 -3v-41q1 -19 71 -19t70 55q0 28 -33 44q-11 6 -33 14q-37 13 -64 30t-27 63q0 45 38 71t99 26t98 -17l-12 -83l-40 3l-2 38q0 18 -63 18
z" />
    <glyph glyph-name="t.sinf" horiz-adv-x="265" 
d="M115 -155q-80 0 -80 66q0 6 2 20l29 201q0 6 -5 6h-47l6 38q35 5 54 24t31 66h38l-12 -78q0 -6 4 -6h95l-6 -44h-100l-27 -189q-2 -18 -2 -23q0 -34 40 -34q23 0 62 13l10 -40q-44 -20 -92 -20z" />
    <glyph glyph-name="u.sinf" horiz-adv-x="406" 
d="M36 -77q0 19 3 37l25 173q1 10 -9 13l-34 5l5 31h101l1 -2l-30 -206q-4 -32 -4 -38q0 -38 41 -38t122 72l24 163q1 12 -9 13l-39 5l5 31h106l1 -2l-41 -279q-2 -11 6 -12l37 -5l-4 -31h-100l10 64q-90 -71 -136 -71q-81 0 -81 77z" />
    <glyph glyph-name="v.sinf" horiz-adv-x="357" 
d="M169 -147h-68l-63 281q-2 8 -12 11l-27 6l5 31h88l4 -4l9 -65l40 -207l122 239l-43 6l4 31h106l4 -9z" />
    <glyph glyph-name="w.sinf" horiz-adv-x="534" 
d="M366 -147h-69l-36 256l-108 -256h-71l-44 281q-2 10 -11 11l-28 6l5 31h86l3 -4l5 -54l30 -215l113 271h63l40 -272l106 237l-40 6l5 31h96l4 -8z" />
    <glyph glyph-name="x.sinf" horiz-adv-x="368" 
d="M317 -147h-87l-5 4l-70 128l-83 -95l42 -6l-4 -31h-141l4 31l35 6q8 2 16 11l107 121l-62 113q-6 10 -14 11l-26 4l4 32h74l4 -4l63 -119l79 87l-36 5l5 31h128l-5 -31l-27 -7q-10 -2 -18 -12l-102 -109l67 -120q5 -11 16 -12l41 -7z" />
    <glyph glyph-name="y.sinf" horiz-adv-x="346" 
d="M4 -290q-50 0 -80 28l25 37q25 -19 54 -19t44 14t34 47l25 46l-71 271q-2 10 -11 11l-27 7l6 30h84l3 -4l16 -81l39 -166l110 214l-40 7l3 30h105l4 -9l-195 -369q-28 -50 -53 -72t-75 -22z" />
    <glyph glyph-name="z.sinf" horiz-adv-x="327" 
d="M91 139q-6 0 -8 -8l-14 -41l-41 -2l12 94h259l-5 -36l-226 -250h138q6 0 8 8l15 47l42 2l-14 -100h-269l4 34l228 252h-129z" />
    <glyph glyph-name="zero.num" horiz-adv-x="405" 
d="M234 322q48 0 73 44t35 112q10 70 10 112q0 87 -69 87q-57 -1 -83 -43q-46 -75 -46 -217q0 -47 16 -71t64 -24zM220 273q-132 0 -132 146q0 166 66 251q44 58 125 58t109 -38t29 -86q1 -50 -11 -133t-53 -141t-133 -57z" />
    <glyph glyph-name="one.num" horiz-adv-x="245" 
d="M244 281h-205l5 36l61 4q11 1 12 13l47 322q2 12 -7 14l-61 11l8 37h132l-55 -384q-3 -11 9 -13l59 -4z" />
    <glyph glyph-name="two.num" horiz-adv-x="332" 
d="M78 620q17 108 149 108q131 0 131 -95q0 -55 -54 -117q-16 -18 -53 -56l-130 -133h148q9 0 11 7l18 54h46l-15 -107h-292l6 41l146 152q6 6 19 20q12 14 18 18q6 6 16 18t16 16q4 6 12 16q24 31 23 66q0 51 -65 51q-43 1 -64 -13t-27 -53z" />
    <glyph glyph-name="three.num" horiz-adv-x="337" 
d="M340 426q0 -70 -44 -112t-129 -41q-84 0 -134 58l42 41q39 -46 91 -46q108 0 108 93q0 68 -77 68q-23 0 -48 -4l6 49l41 4q99 10 99 89q0 54 -62 54q-37 1 -55 -13t-25 -53l-61 7q8 64 48 86t100 22q120 0 120 -95q0 -85 -90 -116l-1 -3q71 -18 71 -88z" />
    <glyph glyph-name="four.num" horiz-adv-x="369" 
d="M260 446l30 204l-164 -204h134zM297 281h-60l17 118h-197l6 38l222 279h75l-39 -270h57l-7 -48h-57z" />
    <glyph glyph-name="five.num" horiz-adv-x="340" 
d="M244 554q108 0 108 -124q0 -64 -46 -110t-133 -47q-88 0 -137 56l43 39q39 -44 93 -44t85 28q32 28 32 73q0 79 -67 79q-46 0 -88 -34l-42 19l47 228h233l-7 -52h-182l-31 -139q40 28 92 28z" />
    <glyph glyph-name="six.num" horiz-adv-x="380" 
d="M162 431q0 -109 72 -109q43 0 66 31t23 80q0 72 -57 72q-51 0 -102 -38q-2 -18 -2 -36zM280 553q108 -1 108 -125q0 -64 -44 -109q-44 -46 -117 -46q-128 0 -128 168q0 88 33 157q62 129 173 129q69 0 111 -41l-35 -40q-33 30 -69 30q-68 0 -102 -55t-42 -105
q58 37 112 37z" />
    <glyph glyph-name="seven.num" horiz-adv-x="350" 
d="M162 666q-7 0 -10 -7l-19 -56l-45 -3l16 117h300l-5 -45q-67 -55 -131 -174t-81 -217h-68q27 119 87 225t115 160h-159z" />
    <glyph glyph-name="eight.num" horiz-adv-x="350" 
d="M317 630q0 51 -60 51q-35 0 -57 -20q-22 -19 -22 -55t69 -76q70 57 70 100zM125 379q1 -23 19 -41t58 -18t64 24q26 24 26 54t-21 50t-66 42q-80 -54 -80 -111zM357 406q-1 -60 -49 -96t-112 -37q-64 1 -97 27t-33 73q0 77 98 143q-49 34 -49 89q1 55 43 89t100 34
t88 -25t30 -65q0 -63 -85 -132q66 -40 66 -100z" />
    <glyph glyph-name="nine.num" horiz-adv-x="389" 
d="M317 644q-12 36 -55 36q-44 0 -67 -34t-23 -87q0 -75 58 -75q51 0 96 38q3 20 3 54q0 32 -12 68zM219 435q-113 0 -113 130q0 67 45 115t116 48q127 0 127 -167q0 -94 -28 -161q-52 -127 -164 -127q-82 0 -124 45l36 41q38 -35 86 -35q99 0 122 147q-49 -36 -103 -36z
" />
    <glyph glyph-name="parenleft.ordn" horiz-adv-x="236" 
d="M101 412q0 166 151 337l43 -29q-68 -87 -98 -157t-30 -160t49 -197l-53 -27q-62 109 -62 233z" />
    <glyph glyph-name="parenright.ordn" horiz-adv-x="227" 
d="M147 524q0 90 -49 197l53 28q62 -111 62 -233q0 -166 -151 -337l-43 29q68 86 98 156t30 160z" />
    <glyph glyph-name="hyphen.ordn" horiz-adv-x="218" 
d="M241 437h-179l9 61h179z" />
    <glyph glyph-name="comma.ordn" horiz-adv-x="114" 
d="M131 319q0 -16 -16 -42l-48 -71l-31 10l30 68q1 4 -3 7l-22 9l23 55q67 -3 67 -36z" />
    <glyph glyph-name="period.ordn" horiz-adv-x="128" 
d="M143 322q0 -49 -50 -49q-39 0 -39 30q0 53 51 53q38 0 38 -34z" />
    <glyph glyph-name="minus.ordn" horiz-adv-x="308" 
d="M325 475h-249l8 54h249z" />
    <glyph glyph-name="plus.ordn" horiz-adv-x="308" 
d="M215 377h-57l14 98h-96l8 54h96l13 95h57l-13 -95h96l-8 -54h-96z" />
    <glyph glyph-name="equal.ordn" horiz-adv-x="307" 
d="M329 506h-247l8 56h247zM314 400h-247l8 56h247z" />
    <glyph glyph-name="a.ordn" horiz-adv-x="382" 
d="M241 569q-44 0 -79 -40t-35 -123t55 -83q46 0 118 74l20 137q-35 35 -79 35zM168 273q-99 0 -99 122q1 87 41 154t124 67q52 0 94 -36l11 30h54q-15 -65 -17 -78l-29 -203q-1 -7 0 -9t9 -3l32 -5l-5 -31h-95l8 57l-2 1q-68 -66 -126 -66z" />
    <glyph glyph-name="b.ordn" horiz-adv-x="382" 
d="M244 320q48 0 74 51t26 123t-52 71q-45 0 -119 -71l-20 -131q43 -43 91 -43zM311 616q92 0 92 -123q0 -87 -40 -153t-105 -66t-114 41h-2l-8 -34h-57q14 47 21 92l49 338q1 11 -6 13l-36 10l4 30h102l-31 -213q76 65 131 65z" />
    <glyph glyph-name="c.ordn" horiz-adv-x="321" 
d="M253 571q-51 0 -87 -39t-37 -126q0 -87 84 -87q48 0 92 23l13 -41q-46 -28 -114 -28q-68 -1 -101 35q-34 36 -34 99q0 105 55 157q54 52 128 52t106 -20l-12 -84l-40 2l-2 42q0 15 -51 15z" />
    <glyph glyph-name="d.ordn" horiz-adv-x="384" 
d="M242 569q-44 0 -80 -40q-35 -40 -35 -123q1 -83 53 -83t120 75l21 136q-35 35 -79 35zM169 273q-100 0 -100 122q1 79 27 129q49 92 137 92q52 0 95 -33l17 129q1 10 -6 13l-36 9l5 30h102l-63 -435q-1 -7 0 -9t9 -3l32 -5l-4 -31h-96l8 56l-2 1q-69 -65 -125 -65z" />
    <glyph glyph-name="e.ordn" horiz-adv-x="317" 
d="M290 536q0 34 -44 34t-74 -32t-40 -82q158 18 158 80zM198 273q-129 0 -129 132q0 89 52 150t132 61q49 0 71 -21t22 -55q0 -104 -218 -127q0 -47 17 -70t62 -23t98 24l11 -43q-58 -28 -118 -28z" />
    <glyph glyph-name="f.ordn" horiz-adv-x="254" 
d="M126 566h-46l6 44h52l9 58q16 103 114 103q61 0 97 -31l-25 -39q-34 24 -66 24q-31 -1 -45 -15t-19 -48l-7 -46q0 -6 5 -6h106l-6 -44h-112l-61 -421h-58l61 415q1 6 -5 6z" />
    <glyph glyph-name="g.ordn" horiz-adv-x="376" 
d="M248 569q-120 0 -120 -179q0 -66 52 -66t121 74l20 136q-33 35 -73 35zM170 274q-100 0 -100 121q0 79 26 129q47 92 137 92q56 0 96 -36l11 30h54q-13 -52 -18 -84l-37 -267q-18 -121 -144 -121q-77 0 -128 29l21 41q39 -25 100 -25q83 0 96 80l12 73l-3 1
q-67 -63 -123 -63z" />
    <glyph glyph-name="h.ordn" horiz-adv-x="407" 
d="M341 532q0 33 -39 33t-123 -72l-23 -163q-1 -12 9 -13l41 -5l-4 -31h-153l5 32l32 4q8 1 10 3t3 10l55 381q1 11 -6 13l-36 10l4 30h101l-32 -218q47 38 76 54t63 16q74 0 76 -75q0 -19 -3 -39l-25 -172q-3 -11 9 -13l36 -5l-4 -31h-107l-1 2l12 63l20 146q4 32 4 40z
" />
    <glyph glyph-name="i.ordn" horiz-adv-x="192" 
d="M199 281h-111l-1 3l14 73l29 200q2 11 -7 13l-35 9l5 31h102l-40 -280q-1 -12 9 -13l39 -5zM166 681q-37 0 -37 34q-1 21 13 34t36 13q36 0 36 -33q0 -21 -13 -35t-35 -13z" />
    <glyph glyph-name="j.ordn" horiz-adv-x="187" 
d="M167 681q-37 0 -37 34q0 21 13 34t36 13q36 0 36 -33q1 -21 -13 -35t-35 -13zM46 138q-68 0 -96 28l24 37q24 -19 54 -19t40 16q11 16 17 51l45 305q1 12 -6 14l-39 9l5 31h105l-54 -371q-15 -101 -95 -101z" />
    <glyph glyph-name="k.ordn" horiz-adv-x="382" 
d="M382 617q9 0 30 -3l-4 -38q-40 0 -72 -30l-57 -53l67 -162q5 -12 16 -13l39 -6l-5 -31h-92l-2 2l-23 64l-47 108l-67 -61l-9 -64q-3 -11 8 -13l42 -5l-4 -31h-153l5 32l32 4q11 1 12 13l56 381q2 11 -7 13l-36 10l5 30h103l-45 -305l136 126q35 32 72 32z" />
    <glyph glyph-name="l.ordn" horiz-adv-x="193" 
d="M197 281h-111l-1 3l14 73l52 354q2 11 -8 14l-34 9l4 30h103l-63 -434q-1 -10 9 -13l39 -5z" />
    <glyph glyph-name="m.ordn" horiz-adv-x="591" 
d="M515 616q69 0 69 -67q0 -12 -4 -46l-25 -173q-1 -10 9 -13l37 -5l-5 -31h-107l-1 3l12 67l24 161q2 16 2 20q0 32 -33 32t-112 -71l-23 -163q-1 -10 9 -13l37 -5l-5 -31h-107l-1 1l36 231q2 14 2 24q0 28 -30 28t-53 -18q-23 -19 -29 -23t-20 -16t-17 -15l-23 -163
q-1 -12 9 -13l42 -5l-5 -31h-153l5 32l32 4q11 1 12 13l32 226q1 10 -6 13l-35 10l4 31h99l-9 -63q44 37 74 53t63 16q64 0 63 -70h1q80 70 130 70z" />
    <glyph glyph-name="n.ordn" horiz-adv-x="408" 
d="M342 539q0 26 -40 26t-122 -72l-23 -163q-1 -12 9 -13l42 -5l-5 -31h-153l5 32l32 4q11 1 12 13l32 226q1 12 -6 13l-35 10l4 31h99l-9 -63q88 69 139 69q78 0 78 -76q0 -20 -3 -38l-25 -172q-1 -10 9 -13l36 -5l-4 -31h-107l-2 3l13 72l21 155q3 18 3 28z" />
    <glyph glyph-name="o.ordn" horiz-adv-x="368" 
d="M211 319q55 -1 87 41t31 126q0 84 -80 84q-55 0 -88 -41t-33 -125t83 -85zM204 273q-135 0 -135 135q1 92 49 150t127 58q144 0 144 -134q0 -97 -48 -153t-137 -56z" />
    <glyph glyph-name="p.ordn" horiz-adv-x="385" 
d="M242 320q40 0 72 38t33 123q0 84 -51 84q-43 0 -120 -71l-19 -132q45 -42 85 -42zM314 616q93 0 93 -125q1 -92 -41 -154t-103 -62t-113 38l-17 -117q-2 -10 9 -12l60 -5l-5 -34h-129l-2 3l19 108l42 300q2 11 -6 13l-35 10l4 31h100l-9 -61q77 67 133 67z" />
    <glyph glyph-name="q.ordn" horiz-adv-x="375" 
d="M242 569q-44 0 -80 -40q-35 -40 -35 -123q1 -83 53 -83t120 75l21 136q-35 35 -79 35zM171 274q-102 0 -102 121q0 86 40 153q39 67 107 67t113 -35l10 30h55q-14 -47 -19 -84l-46 -330q-2 -10 9 -12l32 -4l-5 -35h-157l5 34l49 5q11 1 12 12l22 142q-74 -64 -125 -64z
" />
    <glyph glyph-name="r.ordn" horiz-adv-x="287" 
d="M293 616q25 0 42 -6l-13 -96l-44 2l-2 44q0 6 -7 6q-25 0 -89 -69l-23 -167q-3 -11 9 -13l59 -5l-5 -31h-170l5 32l33 4q10 1 11 13l32 226q1 11 -6 13l-35 10l4 31h97l-9 -66q54 72 111 72z" />
    <glyph glyph-name="s.ordn" horiz-adv-x="296" 
d="M210 575q-63 0 -63 -49q0 -26 33 -41q10 -5 32 -13q40 -16 66 -35t26 -65t-38 -72t-105 -27q-66 0 -106 22l11 81l42 -3v-41q0 -19 70 -19t71 55q0 28 -33 44q-12 6 -34 14q-37 13 -63 30q-27 17 -27 63q0 45 38 71t99 26t98 -17l-12 -83l-40 3l-2 38q0 18 -63 18z" />
    <glyph glyph-name="t.ordn" horiz-adv-x="265" 
d="M180 273q-80 0 -80 66q0 6 2 20l29 201q0 6 -5 6h-47l6 38q35 5 54 24t31 66h38l-12 -78q0 -6 4 -6h95l-6 -44h-100l-27 -189q-2 -18 -2 -23q0 -34 40 -34q23 0 62 13l10 -40q-44 -20 -92 -20z" />
    <glyph glyph-name="u.ordn" horiz-adv-x="406" 
d="M182 274q-81 0 -81 77q0 19 3 37l25 173q1 10 -9 13l-34 5l5 31h101l1 -2l-30 -206q-4 -32 -4 -38q0 -38 41 -38t122 72l24 163q1 12 -9 13l-39 5l5 31h106l1 -2l-41 -279q-1 -11 6 -12l37 -5l-4 -31h-100l10 64q-90 -71 -136 -71z" />
    <glyph glyph-name="v.ordn" horiz-adv-x="357" 
d="M234 281h-68l-63 281q-2 8 -12 11l-27 6l5 31h88l4 -4l9 -65l40 -207l122 239l-43 6l4 31h106l4 -9z" />
    <glyph glyph-name="w.ordn" horiz-adv-x="534" 
d="M431 281h-69l-36 256l-108 -256h-71l-44 281q-2 10 -11 11l-28 6l5 31h86l3 -4l5 -54l30 -215l113 271h63l40 -272l106 237l-40 6l5 31h96l4 -8z" />
    <glyph glyph-name="x.ordn" horiz-adv-x="368" 
d="M382 281h-87l-5 4l-70 128l-83 -95l42 -6l-4 -31h-141l4 31l35 6q8 2 16 11l107 121l-62 113q-6 10 -14 11l-26 4l4 32h74l4 -4l63 -119l79 87l-36 5l5 31h128l-5 -31l-27 -7q-10 -2 -18 -12l-102 -109l67 -120q5 -11 16 -12l41 -7z" />
    <glyph glyph-name="y.ordn" horiz-adv-x="346" 
d="M70 138q-50 0 -81 28l25 37q25 -19 54 -19t44 14t34 47l25 46l-71 271q-2 10 -11 11l-27 7l6 30h84l3 -4l16 -81l39 -166l110 214l-40 7l3 30h105l4 -9l-195 -369q-28 -50 -53 -72q-24 -22 -74 -22z" />
    <glyph glyph-name="z.ordn" horiz-adv-x="327" 
d="M156 567q-6 0 -8 -8l-14 -41l-41 -2l12 94h259l-5 -36l-226 -250h138q6 0 8 8l15 47l42 2l-14 -100h-269l4 34l228 252h-129z" />
    <glyph glyph-name="zero.denom" horiz-adv-x="405" 
d="M184 41q48 -1 73 43t35 114t10 111q0 87 -69 87q-57 0 -83 -42q-46 -75 -46 -218q0 -46 16 -70t64 -25zM170 -8q-132 0 -132 146q0 166 66 251q44 58 125 58q81 1 109 -37t29 -88t-11 -132t-53 -140t-133 -58z" />
    <glyph glyph-name="one.denom" horiz-adv-x="245" 
d="M199 0h-205l5 36l61 4q11 1 12 13l47 322q2 12 -7 14l-61 11l8 37h132l-55 -384q-3 -11 9 -13l59 -4z" />
    <glyph glyph-name="two.denom" horiz-adv-x="332" 
d="M33 339q17 108 149 108q131 0 131 -95q-1 -56 -55 -118q-16 -18 -52 -55l-130 -133h148q9 0 11 7l18 54h46l-15 -107h-292l6 41l146 152q6 5 19 19t19 20l16 16q10 12 14 18t12 15q24 31 24 66q0 51 -65 51q-43 0 -64 -14t-27 -52z" />
    <glyph glyph-name="three.denom" horiz-adv-x="337" 
d="M295 145q-1 -69 -45 -111t-128 -42t-134 58l42 41q39 -46 91 -46q108 0 108 93q0 68 -77 68q-23 0 -48 -4l6 49l41 4q99 10 99 89q0 54 -62 54q-38 0 -56 -14t-24 -52l-61 7q9 63 49 85t99 23q120 0 120 -95q0 -85 -90 -116l-1 -3q71 -18 71 -88z" />
    <glyph glyph-name="four.denom" horiz-adv-x="369" 
d="M215 165l30 204l-164 -204h134zM252 0h-60l17 118h-197l6 38l222 279h75l-39 -270h57l-7 -48h-57z" />
    <glyph glyph-name="five.denom" horiz-adv-x="340" 
d="M198 273q108 1 109 -123q1 -64 -45 -112q-46 -46 -134 -46t-137 56l43 39q38 -44 92 -44t86 28t32 73q0 79 -67 79q-46 0 -88 -34l-42 19l47 228h233l-7 -52h-182l-31 -139q39 28 91 28z" />
    <glyph glyph-name="six.denom" horiz-adv-x="380" 
d="M117 150q0 -109 72 -109q43 0 66 31t23 80q0 72 -57 72q-51 0 -102 -38q-2 -18 -2 -36zM234 272q108 0 109 -124q1 -64 -43 -110t-118 -46q-128 0 -128 168q0 88 33 157q62 129 173 129q69 0 111 -41l-35 -40q-34 30 -70 30q-68 0 -101 -55q-34 -55 -42 -105
q57 37 111 37z" />
    <glyph glyph-name="seven.denom" horiz-adv-x="350" 
d="M117 385q-7 0 -10 -7l-19 -56l-45 -3l16 117h300l-5 -45q-66 -55 -130 -174t-82 -217h-68q26 120 86 226t116 159h-159z" />
    <glyph glyph-name="eight.denom" horiz-adv-x="350" 
d="M272 349q0 51 -60 51q-36 0 -58 -20t-21 -56q0 -36 69 -75q70 57 70 100zM80 98q0 -24 18 -42t58 -17t66 25t25 54q0 30 -21 49q-21 20 -66 42q-80 -54 -80 -111zM312 126q0 -60 -48 -98q-48 -36 -113 -36q-64 0 -97 26t-33 74q0 77 98 143q-49 34 -49 89t42 89t100 34
t88 -25t31 -65q0 -63 -85 -132q66 -39 66 -99z" />
    <glyph glyph-name="nine.denom" horiz-adv-x="389" 
d="M272 364q-12 36 -55 35q-44 0 -67 -34t-23 -87q0 -75 58 -75q51 0 96 38q3 19 3 53t-12 70zM174 154q-113 0 -113 130q0 68 45 116t116 47q127 0 127 -167q1 -94 -27 -161q-52 -127 -165 -127q-82 0 -124 45l36 41q38 -35 86 -35q99 0 122 147q-49 -36 -103 -36z" />
    <glyph glyph-name="onefifth" horiz-adv-x="855" 
d="M688 273q108 1 109 -123q1 -64 -45 -112q-46 -46 -134 -46t-137 56l43 39q38 -44 92 -44t86 28t32 73q0 79 -67 79q-46 0 -88 -34l-42 19l47 228h233l-7 -52h-182l-31 -139q39 28 91 28zM223 -12h-64l458 736h63zM260 281h-205l5 36l61 4q11 1 12 13l47 322q2 12 -7 14
l-61 11l8 37h132l-55 -384q-3 -11 9 -13l59 -4z" />
    <glyph glyph-name="twofifths" horiz-adv-x="855" 
d="M734 273q108 1 108 -123q0 -64 -46 -112q-46 -46 -133 -46q-88 0 -137 56l43 39q39 -44 93 -44t85 28q32 28 32 73q0 79 -67 79q-46 0 -88 -34l-42 19l47 228h233l-7 -52h-182l-31 -139q40 28 92 28zM299 -12h-64l458 736h63zM109 620q17 108 149 108q131 0 131 -95
q-1 -55 -55 -117q-16 -18 -52 -56l-130 -133h148q9 0 11 7l18 54h46l-15 -107h-292l6 41l146 152q6 6 19 20t19 18q6 6 16 18t14 16q4 6 12 16q24 31 24 66q0 51 -65 51q-43 1 -64 -13t-27 -53z" />
    <glyph glyph-name="threefifths" horiz-adv-x="855" 
d="M720 273q108 1 108 -123q0 -64 -46 -112q-46 -46 -133 -46q-88 0 -137 56l43 39q39 -44 93 -44t85 28q32 28 32 73q0 79 -67 79q-46 0 -88 -34l-42 19l47 228h233l-7 -52h-182l-31 -139q40 28 92 28zM271 -12h-64l458 736h63zM367 426q-1 -70 -45 -112t-128 -41
q-84 0 -134 58l42 41q39 -46 91 -46q108 0 108 93q0 68 -77 68q-23 0 -48 -4l6 49l41 4q99 10 99 89q0 54 -62 54q-38 1 -56 -13t-24 -53l-61 7q9 64 49 86t99 22q120 0 120 -95q0 -85 -90 -116l-1 -3q71 -18 71 -88z" />
    <glyph glyph-name="fourfifths" horiz-adv-x="855" 
d="M710 273q108 1 108 -123q0 -64 -46 -112q-46 -46 -133 -46q-88 0 -137 56l43 39q39 -44 93 -44t85 28q32 28 32 73q0 79 -67 79q-46 0 -88 -34l-42 19l47 228h233l-7 -52h-182l-31 -139q40 28 92 28zM278 -12h-64l458 736h63zM254 446l30 204l-164 -204h134zM291 281h-60
l17 118h-197l6 38l222 279h75l-39 -270h57l-7 -48h-57z" />
    <glyph glyph-name="onesixth" horiz-adv-x="855" 
d="M556 150q0 -109 72 -109q43 0 66 31t23 80q0 72 -57 72q-51 0 -102 -38q-2 -18 -2 -36zM674 272q108 0 108 -124q0 -64 -44 -110t-117 -46q-128 0 -128 168q0 88 33 157q62 129 173 129q69 0 111 -41l-35 -40q-33 30 -69 30q-68 0 -102 -55t-42 -105q58 37 112 37z
M210 -12h-64l458 736h63zM264 281h-205l5 36l61 4q11 1 12 13l47 322q2 12 -7 14l-61 11l8 37h132l-55 -384q-3 -11 9 -13l59 -4z" />
    <glyph glyph-name="fivesixths" horiz-adv-x="855" 
d="M598 150q0 -109 72 -109q43 0 66 31t23 80q0 72 -57 72q-51 0 -102 -38q-2 -18 -2 -36zM716 272q108 0 108 -124q0 -64 -44 -110t-117 -46q-128 0 -128 168q0 88 33 157q62 129 173 129q69 0 111 -41l-35 -40q-33 30 -69 30q-68 0 -102 -55t-42 -105q58 37 112 37z
M267 -12h-64l458 736h63zM254 554q108 0 108 -124q0 -64 -46 -110t-133 -47q-88 0 -137 56l43 39q39 -44 93 -44t85 28q32 28 32 73q0 79 -67 79q-46 0 -88 -34l-42 19l47 228h233l-7 -52h-182l-31 -139q40 28 92 28z" />
    <glyph glyph-name="oneseventh" horiz-adv-x="855" 
d="M618 385q-7 0 -10 -7l-19 -56l-45 -3l16 117h300l-5 -45q-67 -55 -131 -174t-81 -217h-68q27 120 87 226t115 159h-159zM222 -12h-64l458 736h63zM264 281h-205l5 36l61 4q11 1 12 13l47 322q2 12 -7 14l-61 11l8 37h132l-55 -384q-3 -11 9 -13l59 -4z" />
    <glyph glyph-name="twosevenths" horiz-adv-x="855" 
d="M656 385q-7 0 -10 -7l-19 -56l-45 -3l16 117h300l-5 -45q-67 -55 -131 -174t-81 -217h-68q27 120 87 226t115 159h-159zM283 -12h-64l458 736h63zM108 620q17 108 149 108q131 0 131 -95q0 -55 -54 -117q-16 -18 -53 -56l-130 -133h148q9 0 11 7l18 54h46l-15 -107h-292
l6 41l146 152q6 6 19 20q12 14 18 18q6 6 16 18t16 16q4 6 12 16q24 31 23 66q0 51 -65 51q-43 1 -64 -13t-27 -53z" />
    <glyph glyph-name="threesevenths" horiz-adv-x="855" 
d="M648 385q-7 0 -10 -7l-19 -56l-45 -3l16 117h300l-5 -45q-67 -55 -131 -174t-81 -217h-68q27 120 87 226t115 159h-159zM247 -12h-64l458 736h63zM354 426q0 -70 -44 -112t-129 -41q-84 0 -134 58l42 41q39 -46 91 -46q108 0 108 93q0 68 -77 68q-23 0 -48 -4l6 49l41 4
q99 10 99 89q0 54 -62 54q-37 1 -55 -13t-25 -53l-61 7q8 64 48 86t100 22q120 0 120 -95q0 -85 -90 -116l-1 -3q71 -18 71 -88z" />
    <glyph glyph-name="foursevenths" horiz-adv-x="855" 
d="M638 385q-7 0 -10 -7l-19 -56l-45 -3l16 117h300l-5 -45q-67 -55 -131 -174t-81 -217h-68q27 120 87 226t115 159h-159zM263 -12h-64l458 736h63zM241 446l30 204l-164 -204h134zM278 281h-60l17 118h-197l6 38l222 279h75l-39 -270h57l-7 -48h-57z" />
    <glyph glyph-name="fivesevenths" horiz-adv-x="855" 
d="M624 385q-7 0 -10 -7l-19 -56l-45 -3l16 117h300l-5 -45q-67 -55 -131 -174t-81 -217h-68q27 120 87 226t115 159h-159zM239 -12h-64l458 736h63zM248 554q108 0 108 -124q0 -64 -46 -110t-133 -47q-88 0 -137 56l43 39q39 -44 93 -44t85 28q32 28 32 73q0 79 -67 79
q-46 0 -88 -34l-42 19l47 228h233l-7 -52h-182l-31 -139q40 28 92 28z" />
    <glyph glyph-name="sixsevenths" horiz-adv-x="855" 
d="M632 385q-7 0 -10 -7l-19 -56l-45 -3l16 117h300l-5 -45q-67 -55 -131 -174t-81 -217h-68q27 120 87 226t115 159h-159zM236 -12h-64l458 736h63zM135 431q0 -109 72 -109q43 0 66 31t23 80q0 72 -57 72q-51 0 -102 -38q-2 -18 -2 -36zM252 553q108 -1 109 -125
q1 -64 -43 -109q-44 -46 -118 -46q-128 0 -128 168q0 88 33 157q62 129 173 129q69 0 111 -41l-35 -40q-34 30 -70 30q-68 0 -101 -55q-34 -55 -42 -105q57 37 111 37z" />
    <glyph glyph-name="oneninth" horiz-adv-x="855" 
d="M725 363q-12 35 -55 36q-44 0 -67 -34t-23 -87q0 -75 58 -75q51 0 96 38q3 19 3 53t-12 69zM627 154q-113 0 -113 130q0 68 45 116t116 47q127 0 127 -167q0 -94 -28 -161q-52 -127 -164 -127q-82 0 -124 45l36 41q38 -35 86 -35q99 0 122 147q-49 -36 -103 -36zM215 -12
h-64l458 736h63zM255 281h-205l5 36l61 4q11 1 12 13l47 322q2 12 -7 14l-61 11l8 37h132l-55 -384q-3 -11 9 -13l59 -4z" />
    <glyph glyph-name="twoninths" horiz-adv-x="855" 
d="M754 363q-12 35 -55 36q-44 0 -67 -34t-23 -87q0 -75 58 -75q51 0 96 38q3 19 3 53t-12 69zM656 154q-113 0 -113 130q0 68 45 116t116 47q127 0 127 -167q1 -94 -27 -161q-52 -127 -165 -127q-82 0 -124 45l36 41q38 -35 86 -35q99 0 122 147q-49 -36 -103 -36zM267 -12
h-64l458 736h63zM78 620q17 108 149 108q131 0 131 -95q0 -55 -54 -117q-16 -18 -53 -56l-130 -133h148q9 0 11 7l18 54h46l-15 -107h-292l6 41l146 152q6 6 19 20q12 14 18 18q6 6 16 18t16 16q4 6 12 16q24 31 23 66q0 51 -65 51q-43 1 -64 -13t-27 -53z" />
    <glyph glyph-name="fourninths" horiz-adv-x="855" 
d="M757 363q-12 35 -55 36q-44 0 -67 -34t-23 -87q0 -75 58 -75q51 0 96 38q3 19 3 53t-12 69zM659 154q-113 0 -113 130q0 68 45 116t116 47q127 0 127 -167q0 -94 -28 -161q-52 -127 -164 -127q-82 0 -124 45l36 41q38 -35 86 -35q99 0 122 147q-49 -36 -103 -36zM274 -12
h-64l458 736h63zM251 446l30 204l-164 -204h134zM288 281h-60l17 118h-197l6 38l222 279h75l-39 -270h57l-7 -48h-57z" />
    <glyph glyph-name="fiveninths" horiz-adv-x="855" 
d="M745 363q-12 35 -55 36q-44 0 -67 -34t-23 -87q0 -75 58 -75q51 0 96 38q3 19 3 53t-12 69zM647 154q-113 0 -113 130q0 68 45 116t116 47q127 0 127 -167q0 -94 -28 -161q-52 -127 -164 -127q-82 0 -124 45l36 41q38 -35 86 -35q99 0 122 147q-49 -36 -103 -36zM247 -12
h-64l458 736h63zM246 554q108 0 109 -124q1 -64 -45 -110t-134 -47q-88 0 -137 56l43 39q38 -44 92 -44t86 28t32 73q0 79 -67 79q-46 0 -88 -34l-42 19l47 228h233l-7 -52h-182l-31 -139q39 28 91 28z" />
    <glyph glyph-name="sevenninths" horiz-adv-x="855" 
d="M731 363q-12 35 -55 36q-44 0 -67 -34t-23 -87q0 -75 58 -75q51 0 96 38q3 19 3 53t-12 69zM633 154q-113 0 -113 130q0 68 45 116t116 47q127 0 127 -167q0 -94 -28 -161q-52 -127 -164 -127q-82 0 -124 45l36 41q38 -35 86 -35q99 0 122 147q-49 -36 -103 -36zM194 -12
h-64l458 736h63zM163 666q-7 0 -10 -7l-19 -56l-45 -3l16 117h300l-5 -45q-66 -55 -130 -174t-82 -217h-68q26 119 86 225t116 160h-159z" />
    <glyph glyph-name="eightninths" horiz-adv-x="855" 
d="M740 363q-12 35 -55 36q-44 0 -67 -34t-23 -87q0 -75 58 -75q51 0 96 38q3 19 3 53t-12 69zM642 154q-113 0 -113 130q0 68 45 116t116 47q127 0 127 -167q1 -94 -27 -161q-52 -127 -165 -127q-82 0 -124 45l36 41q38 -35 86 -35q99 0 122 147q-49 -36 -103 -36zM241 -12
h-64l458 736h63zM306 630q0 51 -60 51q-36 0 -58 -20q-22 -19 -21 -55q0 -36 69 -76q70 57 70 100zM114 379q0 -23 18 -41t58 -18t66 24t25 54q0 30 -21 50t-66 42q-80 -54 -80 -111zM346 406q0 -60 -48 -96t-113 -37q-64 1 -97 27t-33 73q0 77 98 143q-49 34 -49 89t42 89
t100 34t88 -25t31 -65q0 -63 -85 -132q66 -40 66 -100z" />
    <glyph glyph-name="commaaccent" horiz-adv-x="500" 
d="M300 -108q0 -26 -22 -57l-59 -85l-34 15l33 81q2 6 -3 9l-29 14l31 70q43 -3 63 -12t20 -35z" />
    <glyph glyph-name="revcommaaccent" horiz-adv-x="500" 
d="M279 617q0 26 23 59l61 88l36 -15l-34 -84q-3 -7 3 -10l30 -14l-32 -73q-45 3 -66 13t-21 36z" />
    <glyph glyph-name="tilde.cap" horiz-adv-x="500" 
d="M450 782q-22 0 -35 4l-132 36q-10 3 -16 -3l-48 -41l-32 27l35 41q32 39 63 39q11 0 24 -3l137 -37q10 -3 17 3l44 39l33 -27l-28 -32q-40 -46 -62 -46z" />
    <glyph glyph-name="ring.cap" horiz-adv-x="500" 
d="M361 797q19 1 31 15t12 36q0 30 -33 30q-19 0 -31 -14t-12 -35q0 -32 33 -32zM355 758q-72 0 -72 68q1 39 27 66t63 27q76 0 76 -66q1 -43 -25 -69t-69 -26z" />
    <glyph glyph-name="circumflex.cap" horiz-adv-x="500" 
d="M514 800l-40 -34l-107 84l-131 -84l-30 34l129 99h76z" />
    <glyph glyph-name="acute.cap" horiz-adv-x="500" 
d="M482 872l-212 -106l-22 38l200 131z" />
    <glyph glyph-name="grave.cap" horiz-adv-x="500" 
d="M434 765l-182 106l48 63l163 -131z" />
    <glyph glyph-name="dieresis.cap" horiz-adv-x="500" 
d="M483 880q44 0 44 -41q0 -25 -16 -41t-42 -16q-44 0 -44 41q0 25 16 41t42 16zM284 880q44 0 44 -41q0 -25 -16 -41t-42 -16q-44 0 -44 41q0 25 16 41t42 16z" />
    <glyph glyph-name="caron.cap" horiz-adv-x="500" 
d="M524 875l-129 -99h-76l-103 99l40 34l107 -84l131 84z" />
    <glyph glyph-name="macron.cap" horiz-adv-x="500" 
d="M513 797h-303l8 57h303z" />
    <glyph glyph-name="dotaccent.cap" horiz-adv-x="500" 
d="M375 888q47 0 47 -44q0 -26 -17 -44t-42 -18q-51 0 -51 44q0 26 17 44t46 18z" />
    <glyph glyph-name="cedilla.cap" horiz-adv-x="500" 
d="M187 -181q29 1 51 17t21 42q0 42 -66 43l30 109l51 -8l-18 -67q62 -17 62 -67t-34 -82q-34 -34 -84 -34t-69 6l12 44q15 -3 44 -3z" />
    <glyph glyph-name="hungarumlaut.cap" horiz-adv-x="500" 
d="M612 916l-186 -150l-29 31l168 170zM450 916l-186 -150l-28 31l167 171z" />
    <glyph glyph-name="commaaccent.cap" horiz-adv-x="500" 
d="M296 -108q0 -26 -22 -57l-59 -85l-34 15l33 81q2 6 -3 9l-29 14l31 70q43 -3 63 -12t20 -35z" />
    <glyph glyph-name="breve.cap" horiz-adv-x="500" 
d="M360 782q-120 0 -135 112l50 17q16 -74 92 -74q36 0 63 15t49 60l47 -18q-46 -112 -166 -112z" />
    <glyph glyph-name="caron.alt" horiz-adv-x="500" 
d="M320 678q0 34 -7 55l61 28q20 -23 20 -54t-70 -147l-37 15q33 69 33 103z" />
    <glyph glyph-name="ogonek.cap" horiz-adv-x="500" 
d="M228 -212q-74 0 -74 62t68 120q24 20 64 49l51 -15q-110 -79 -110 -133q0 -26 27 -26q20 0 49 12l11 -49q-45 -20 -86 -20z" />
    <glyph glyph-name="square" horiz-adv-x="610" 
d="M486 151h-349v349h349v-349z" />
    <glyph glyph-name="square.open" horiz-adv-x="610" 
d="M486 151h-349v349h349v-349zM441 196v259h-259v-259h259z" />
    <glyph glyph-name="circle.open" horiz-adv-x="610" 
d="M320 167q64 -1 108 47t44 112t-44 110q-44 44 -107 44q-64 0 -107 -46t-43 -110q0 -65 43 -111q42 -46 106 -46zM321 119q-85 0 -145 60t-60 145t60 145t145 60t145 -60t60 -145t-60 -145t-145 -60z" />
    <glyph glyph-name="triangle.left" horiz-adv-x="425" 
d="M308 203l-185 117l185 114v-231z" />
    <glyph glyph-name="raute" horiz-adv-x="610" 
d="M539 325l-210 -209l-209 210l210 209z" />
    <glyph glyph-name="arrow.right" 
d="M70 244l9 62h365l-44 123h66l66 -155l-108 -152h-71l80 122h-363z" />
    <glyph glyph-name="arrow.left" 
d="M537 306l-9 -62h-366l46 -122h-68l-66 152l110 155h68l-78 -123h363z" />
    <glyph glyph-name="arrow.up" 
d="M304 46h-63l51 365l-131 -61l9 69l167 85l140 -87l-9 -64l-113 61z" />
    <glyph glyph-name="arrow.down" 
d="M302 504h64l-50 -365l129 63l-9 -69l-164 -87l-143 88l10 64l112 -61z" />
    <glyph glyph-name="arrow.leftup" 
d="M483 136l-46 -44l-258 258l-45 -129l-47 47l49 170l169 46l48 -48l-130 -41z" />
    <glyph glyph-name="arrow.rightup" 
d="M135 94l-42 46l295 257l-121 39l55 48l162 -46l24 -172l-54 -47l-25 131z" />
    <glyph glyph-name="zero.lf" horiz-adv-x="553" 
d="M127 213q0 -169 112 -169q96 0 137 51q42 51 56 120q35 163 35 253q-1 90 -27 130t-85 41q-110 0 -153 -76q-44 -76 -60 -189q-15 -113 -15 -161zM232 -12q-88 0 -131 59t-43 162q0 49 10 133q20 161 82 259q61 97 204 97q100 0 140 -57t41 -132t-11 -161t-28 -146
t-47 -112q-30 -52 -80 -76q-49 -26 -137 -26z" />
    <glyph glyph-name="one.lf" horiz-adv-x="352" 
d="M296 0h-291l6 45l98 6q10 1 13 5t5 15l75 528q2 14 -3 16q-4 3 -9 5l-95 17l11 46h174l-86 -612q-2 -11 0 -15t14 -5l94 -7z" />
    <glyph glyph-name="two.lf" horiz-adv-x="481" 
d="M402 547q0 94 -114 94q-66 0 -98 -22t-41 -88l-63 8q14 99 71 129t143 30t128 -38t43 -107q1 -103 -123 -235q-16 -16 -51 -53l-198 -209h258q14 0 17 11l29 87h50l-22 -154h-424l6 46l225 243q92 92 108 117q39 60 48 87q8 27 8 54z" />
    <glyph glyph-name="three.lf" horiz-adv-x="492" 
d="M446 217q0 -97 -64 -163t-184 -66q-121 0 -195 87l50 49q60 -74 160 -74q66 0 114 42t48 124q0 118 -132 118q-31 0 -73 -6l8 59l66 6q83 7 123 47t40 105q0 96 -108 96q-66 -1 -98 -23t-41 -87l-65 8q9 65 43 102t74 47t94 10q171 0 171 -146q0 -131 -138 -182l-1 -4
q108 -28 108 -149z" />
    <glyph glyph-name="four.lf" horiz-adv-x="524" 
d="M343 251l50 360l-270 -360h220zM455 0h-251l6 45l88 6q10 1 13 5t5 15l17 121h-298l7 47l328 440h100l-60 -428h89l-9 -63h-90l-17 -117q-1 -11 1 -15t13 -5l64 -7z" />
    <glyph glyph-name="five.lf" horiz-adv-x="515" 
d="M303 424q75 0 120 -46t45 -148q0 -100 -67 -171t-195 -71t-196 83l51 49q57 -70 163 -70q68 0 120 46t53 128q0 142 -113 141q-71 0 -141 -59l-51 25l70 351h340l-8 -59h-281l-50 -245q65 46 140 46z" />
    <glyph glyph-name="six.lf" horiz-adv-x="525" 
d="M140 239q0 -196 124 -196q70 -1 112 53t42 144q0 126 -96 126q-83 0 -180 -77q-2 -26 -2 -50zM378 637q-114 1 -172 -109q-49 -91 -59 -174q89 70 175 70t126 -49t40 -145t-62 -169t-171 -73q-69 0 -111 38q-74 66 -73 239q0 175 95 317q77 116 222 115q82 0 143 -61
l-42 -47q-51 48 -111 48z" />
    <glyph glyph-name="seven.lf" horiz-adv-x="474" 
d="M174 623q-14 0 -17 -11l-32 -93l-47 -3l23 166h436l-6 -51q-97 -83 -201 -281t-129 -350h-74q43 188 135 360t181 263h-269z" />
    <glyph glyph-name="eight.lf" horiz-adv-x="492" 
d="M417 552q0 89 -104 89q-53 -1 -91 -35t-39 -84t29 -80t84 -61q121 94 121 171zM106 148q0 -47 34 -75t94 -28q60 -1 106 43q45 44 45 100t-37 86t-103 64q-139 -93 -139 -190zM455 196q0 -94 -68 -151q-69 -57 -161 -57t-141 41t-49 110t40 123t116 108q-78 50 -78 138
t61 139t145 51t125 -40q42 -40 42 -100q0 -101 -138 -205q106 -63 106 -157z" />
    <glyph glyph-name="nine.lf" horiz-adv-x="528" 
d="M425 452q0 192 -116 192q-71 0 -113 -56t-43 -145q0 -143 97 -143q84 0 171 82q4 38 4 70zM248 242q-164 0 -165 206q-1 100 61 176q62 75 169 75q107 1 143 -73q37 -74 37 -201q0 -213 -101 -351q-63 -86 -177 -86q-115 0 -176 67l42 48q58 -55 115 -55t93 20
q105 57 129 245q-86 -71 -170 -71z" />
    <glyph glyph-name="dollar.lf" horiz-adv-x="512" 
d="M165 502q-1 -41 23 -66t67 -47l31 219q-57 -7 -89 -36t-32 -70zM380 184q0 66 -83 110l-33 -235q60 10 88 44t28 81zM97 484q0 82 55 128t142 55l10 73h55l-10 -71q78 -3 155 -33l-20 -147l-49 5l-5 82q-1 18 -19 24t-70 11l-34 -247q67 -34 104 -70t37 -106t-50 -122
t-142 -63l-11 -83h-55l11 80q-121 2 -189 39l19 133h49l10 -81q4 -33 119 -35l37 264q-116 56 -138 105q-12 26 -11 59z" />
    <glyph glyph-name="Euro.lf" horiz-adv-x="550" 
d="M324 44q95 0 106 27l23 76l48 4l-19 -134q-71 -29 -164 -29q-92 0 -148 71t-61 189h-80l18 56h62q1 25 7 69h-52l18 56h45q30 117 106 193t194 76q81 0 141 -30l-19 -135l-45 5l-3 75q-1 26 -81 26t-139 -55t-85 -155h226l-18 -56h-220q-4 -33 -6 -69h206l-18 -56h-187
q5 -92 45 -148t100 -56z" />
    <glyph glyph-name="cent.lf" horiz-adv-x="531" 
d="M161 314q0 -133 100 -153l51 373q-70 -13 -110 -68t-41 -152zM91 306q0 130 63 202t167 85l14 102h53l-14 -99q70 -2 131 -27l-18 -123l-45 3l-3 66q0 19 -73 23l-52 -381q76 3 82 22l21 67l47 3l-18 -123q-58 -26 -140 -27l-13 -99h-54l14 102q-162 22 -162 204z" />
    <glyph glyph-name="sterling.lf" horiz-adv-x="545" 
d="M390 698q55 0 98 -16t61 -32l-32 -48q-55 39 -125 39q-70 -1 -104 -33t-44 -108l-15 -116h195l-8 -56h-193l-7 -59q-8 -77 -28 -123t-71 -90h285q15 0 18 11l28 87h50l-21 -154h-435l-6 47q62 46 82 92t31 134l6 55h-86l8 56h84l10 80q16 122 64 178t155 56z" />
    <glyph glyph-name="yen.lf" horiz-adv-x="572" 
d="M450 199h-135l-17 -127q-2 -13 0 -16t13 -4l96 -8l-6 -44h-289l6 44l94 7q16 1 19 21l17 127h-135l8 56h135l11 75h-135l8 56h104l-106 229q-6 13 -21 17l-44 11l7 39h199l-5 -39l-74 -9l106 -243l173 243l-71 9l7 39h195l-5 -39l-43 -11q-18 -4 -32 -24l-161 -222h108
l-8 -56h-135l-11 -75h135z" />
    <glyph glyph-name="florin.lf" horiz-adv-x="531" 
d="M45 -83q-99 0 -139 35l28 48q42 -28 102 -28t85 82l95 303q3 10 -7 10h-91l17 56h103l37 121q25 82 67 118t113 36t122 -29l-38 -121l-45 4l9 70q2 20 -49 20t-75 -28t-42 -83l-30 -98q-3 -10 5 -10h147l-17 -56h-155l-94 -299q-26 -83 -61 -117t-87 -34z" />
    <glyph glyph-name="zero.slash" 
d="M125 192q0 -70 32 -110l227 552q-20 5 -55 5q-35 -1 -72 -21t-61 -61t-36 -91q-14 -50 -24 -128q-10 -76 -11 -146zM260 44q34 0 66 15q57 27 84 98t41 172t14 169t-32 106l-227 -554q20 -6 54 -6zM230 -12q-88 0 -131 59t-43 162q0 49 10 133q20 161 82 259
q61 97 204 97q100 0 140 -57t41 -132t-11 -161t-28 -146t-47 -112q-30 -52 -80 -76q-49 -26 -137 -26z" />
    <glyph glyph-name="zero.tf" 
d="M125 213q0 -169 112 -169q96 0 137 51q42 51 56 120q35 163 35 253q-1 90 -27 130t-85 41q-110 0 -153 -76q-44 -76 -60 -189q-15 -113 -15 -161zM230 -12q-88 0 -131 59t-43 162q0 49 10 133q20 161 82 259q61 97 204 97q100 0 140 -57t41 -132t-11 -161t-28 -146
t-47 -112q-30 -52 -80 -76q-49 -26 -137 -26z" />
    <glyph glyph-name="one.tf" 
d="M425 0h-335l6 45l122 7q10 0 13 4t5 16l75 527q2 14 -3 16q-4 3 -9 5l-95 17l11 46h174l-86 -611q-1 -12 1 -16t13 -4l114 -8z" />
    <glyph glyph-name="two.tf" 
d="M427 547q0 94 -114 94q-67 0 -99 -22t-40 -88l-63 8q14 99 71 129t143 30q87 0 129 -38t42 -107q0 -103 -124 -235q-16 -16 -50 -53l-198 -209h258q14 0 17 11l29 87h50l-22 -154h-424l6 46l225 243q92 92 108 117q39 60 48 87q8 27 8 54z" />
    <glyph glyph-name="three.tf" 
d="M465 217q1 -97 -63 -163t-185 -66t-195 87l50 49q60 -74 160 -74q66 0 114 42t48 124q0 118 -132 118q-31 0 -73 -6l8 59l66 6q83 7 123 47t40 105q0 96 -108 96q-66 -1 -98 -23t-41 -87l-65 8q9 65 43 102q33 37 73 47t95 10q171 0 171 -146q0 -131 -138 -182l-1 -4
q108 -28 108 -149z" />
    <glyph glyph-name="four.tf" 
d="M357 251l50 360l-270 -360h220zM469 0h-251l6 45l88 6q10 1 13 5t5 15l17 121h-298l7 47l327 440h101l-60 -428h89l-9 -63h-90l-17 -117q-1 -11 1 -15t13 -5l64 -7z" />
    <glyph glyph-name="five.tf" 
d="M317 424q75 0 120 -46t45 -148q0 -100 -67 -171t-195 -71t-196 83l51 49q57 -70 163 -70q68 0 120 46t53 128q0 142 -113 141q-71 0 -141 -59l-51 25l70 351h340l-8 -59h-281l-50 -245q65 46 140 46z" />
    <glyph glyph-name="six.tf" 
d="M152 239q0 -196 124 -196q70 -1 112 53t42 144q0 126 -96 126q-83 0 -180 -77q-2 -26 -2 -50zM390 637q-114 1 -172 -109q-49 -91 -59 -174q89 70 175 70t126 -49t40 -145t-62 -169t-171 -73q-69 0 -111 38q-74 66 -73 239q0 175 95 317q77 116 222 115q82 0 143 -61
l-42 -47q-51 48 -111 48z" />
    <glyph glyph-name="seven.tf" 
d="M197 623q-14 0 -17 -11l-32 -93l-47 -3l23 166h447l-6 -51q-97 -83 -201 -281t-129 -350h-71q42 188 136 360t183 263h-286z" />
    <glyph glyph-name="eight.tf" 
d="M452 552q0 89 -104 89q-54 -1 -92 -35t-38 -84t30 -80t83 -61q121 94 121 171zM141 148q0 -47 34 -75q35 -28 95 -28q60 -1 105 43t45 100t-37 86t-103 64q-139 -93 -139 -190zM490 196q0 -94 -68 -151t-160 -57t-142 41q-49 41 -49 110t40 123t116 108q-78 50 -78 138
t61 139q60 51 144 51t126 -40t42 -100q0 -101 -138 -205q106 -63 106 -157z" />
    <glyph glyph-name="nine.tf" 
d="M437 452q0 192 -116 192q-71 0 -113 -56t-43 -145q0 -143 97 -143q84 0 171 82q4 38 4 70zM260 242q-164 0 -165 206q-1 100 61 176q62 75 169 75q107 1 143 -73q37 -74 37 -201q0 -213 -101 -351q-63 -85 -177 -86q-115 0 -176 67l42 48q58 -55 115 -55t93 20
q105 57 129 245q-86 -71 -170 -71z" />
    <glyph glyph-name="dollar.tf" 
d="M184 502q0 -41 24 -66t66 -47l31 219q-57 -7 -89 -36t-32 -70zM399 184q0 66 -83 110l-33 -235q59 10 87 44t29 81zM116 484q0 82 55 128t142 55l10 73h55l-10 -71q78 -3 155 -33l-20 -147l-49 5l-5 82q-1 18 -19 24t-70 11l-34 -247q67 -34 104 -70t37 -106
q-1 -70 -51 -122t-141 -63l-11 -83h-55l11 80q-121 2 -189 39l19 133h49l10 -81q4 -33 119 -35l37 264q-115 56 -137 105q-12 26 -12 59z" />
    <glyph glyph-name="Euro.tf" 
d="M315 44q95 0 106 27l23 76l48 4l-19 -134q-71 -29 -164 -29t-149 71t-60 189h-80l18 56h62q1 25 7 69h-52l18 56h45q30 117 106 193t194 76q81 0 141 -30l-19 -135l-45 5l-3 75q0 26 -80 26t-140 -55q-59 -55 -85 -155h226l-18 -56h-220q-5 -33 -6 -69h206l-18 -56h-187
q4 -92 44 -148t101 -56z" />
    <glyph glyph-name="cent.tf" 
d="M175 314q0 -133 100 -153l51 373q-70 -13 -110 -68t-41 -152zM105 306q0 130 63 202t167 85l14 102h53l-14 -99q70 -2 131 -27l-18 -123l-45 3l-3 66q0 19 -73 23l-52 -381q76 3 82 22l21 67l47 3l-18 -123q-58 -26 -140 -27l-13 -99h-54l14 102q-162 22 -162 204z" />
    <glyph glyph-name="sterling.tf" 
d="M391 698q55 0 98 -16t61 -32l-32 -48q-54 39 -124 39q-70 -1 -104 -33t-45 -108l-15 -116h195l-8 -56h-193l-7 -59q-9 -77 -29 -123t-70 -90h285q15 0 18 11l28 87h50l-21 -154h-435l-6 47q63 46 83 92t30 134l6 55h-86l8 56h84l10 80q16 122 64 178t155 56z" />
    <glyph glyph-name="yen.tf" 
d="M447 199h-135l-17 -127q-2 -13 0 -16t13 -4l96 -8l-6 -44h-289l6 44l94 7q16 1 19 21l18 127h-136l8 56h136l10 75h-135l8 56h104l-106 229q-6 13 -21 17l-44 11l7 39h199l-5 -39l-74 -9l106 -243l173 243l-71 9l7 39h195l-5 -39l-47 -12q-14 -4 -25 -18l-164 -227h108
l-8 -56h-135l-11 -75h135z" />
    <glyph glyph-name="florin.tf" 
d="M51 -83q-99 0 -139 35l28 48q42 -28 102 -28t85 82l95 303q3 10 -7 10h-91l17 56h103l37 121q25 82 67 118t113 36t122 -29l-38 -121l-45 4l9 70q2 20 -49 20t-75 -28t-42 -83l-30 -98q-3 -10 5 -10h147l-17 -56h-155l-94 -299q-26 -83 -61 -117t-87 -34z" />
    <glyph glyph-name="zeroslash.tosf" 
d="M124 208q0 -96 44 -136l194 447q-17 3 -34 3q-90 0 -136 -62q-68 -90 -68 -252zM256 44q165 0 196 240q6 44 6 81q0 93 -46 131l-194 -449q18 -3 38 -3zM337 581q188 0 188 -210q1 -178 -75 -291q-62 -92 -198 -92q-195 0 -195 211q-1 181 81 292q66 90 199 90z" />
    <glyph glyph-name="dollar.tosf" 
d="M397 172q0 66 -85 99l-29 -213q114 15 114 114zM181 457q0 -42 23 -65t65 -40l29 213q-55 -7 -86 -37t-31 -71zM463 185q0 -79 -49 -126t-139 -57l-11 -82h-53l10 80q-117 2 -185 39l19 133h48l10 -80q3 -10 5 -14t26 -12t85 -10l31 234q-110 38 -134 90q-12 26 -12 61
q0 83 54 129t138 54l11 73h54l-10 -71q78 -3 152 -33l-19 -147l-48 5l-5 82q-2 33 -88 35l-32 -235q108 -39 131 -91q11 -24 11 -57z" />
    <glyph glyph-name="Euro.tosf" 
d="M414 586q-165 0 -218 -182h220l-17 -56h-215q-4 -33 -6 -69h201l-17 -56h-183q11 -179 150 -179q90 0 96 26l22 77l47 4l-18 -134q-71 -29 -162 -29q-90 0 -144 61t-60 174h-78l17 56h61q1 25 7 69h-51l17 56h45q32 120 110 180t170 61q92 0 152 -30l-19 -135l-44 5
l-3 77q0 24 -80 24z" />
    <glyph glyph-name="cent.tosf" 
d="M172 247q0 -133 100 -153l51 373q-71 -13 -111 -68t-40 -152zM102 239q0 131 63 203t167 84l14 102h53l-14 -99q70 -2 131 -27l-18 -123l-45 3l-3 66q0 21 -73 23l-52 -381q76 3 82 22l21 67l47 3l-18 -123q-58 -26 -140 -27l-13 -99h-54l14 102q-162 22 -162 204z" />
    <glyph glyph-name="sterling.tosf" 
d="M392 645q51 1 93 -15t59 -32l-32 -48q-54 38 -120 38q-129 0 -146 -141l-12 -87h191l-8 -56h-191q-2 -12 -6 -40t-6 -38t-6 -32t-8 -32t-11 -26q-17 -41 -62 -80h279q15 0 18 11l27 87h49l-20 -154h-426l-6 47q60 45 78 89t30 137l4 31h-83l8 56h82l7 51q16 118 64 176
t154 58z" />
    <glyph glyph-name="yen.tosf" 
d="M446 179h-132l-15 -107q-2 -13 0 -16t13 -4l94 -8l-6 -44h-283l6 44l92 7q16 1 18 21l15 107h-132l8 56h132l8 59h-132l8 56h100l-105 210q-7 13 -21 17l-43 11l6 38h201l-5 -38l-77 -9l107 -224l167 224l-63 9l5 38h185l-5 -38l-42 -11q-10 -3 -22 -17l-161 -210h103
l-8 -56h-133l-8 -59h133z" />
    <glyph glyph-name="florin.tosf" 
d="M94 -83q-97 0 -137 35l28 48q41 -28 99 -28t84 82l80 257q3 10 -7 10h-90l17 56h102l35 114q26 81 67 117q42 36 112 37q70 0 117 -29l-37 -121l-44 4l9 70q2 20 -48 20q-49 1 -73 -27t-42 -84l-29 -91q-3 -10 5 -10h144l-17 -56h-152l-78 -253q-25 -83 -59 -117t-86 -34
z" />
    <glyph glyph-name="a.smcp" horiz-adv-x="541" 
d="M364 220l-53 276l-129 -276h182zM509 0h-183l6 35l66 7l-25 127h-215l-61 -127l60 -7l-6 -35h-170l5 35l34 8q16 4 23 18l235 489h84l103 -494q1 -9 16 -13l34 -8z" />
    <glyph glyph-name="b.smcp" horiz-adv-x="504" 
d="M263 307q145 0 145 117q0 41 -26 57t-81 16h-83l-26 -190h71zM246 54q78 0 119 23t41 91q0 87 -115 87h-107l-28 -201h90zM246 0h-223l5 35l48 6q14 2 15 15l62 437q3 14 -10 15l-47 6l5 36h225q149 0 149 -116q-1 -60 -33 -96t-81 -50v-3q54 -7 83 -37t29 -79
q0 -169 -227 -169z" />
    <glyph glyph-name="c.smcp" horiz-adv-x="516" 
d="M271 -10q-119 0 -174 64t-55 193t83 221t235 92q107 0 163 -41l-17 -120l-48 3l-3 72q0 11 -8 14q-43 17 -95 17q-108 0 -174 -72t-66 -200q0 -189 167 -189q115 0 124 30l23 69h45l-16 -113q-65 -40 -184 -40z" />
    <glyph glyph-name="d.smcp" horiz-adv-x="588" 
d="M244 53q124 0 190 72t66 182q0 111 -49 151t-142 40h-89l-64 -445h88zM239 0h-216l6 37l48 5q11 1 13 14l63 438q3 14 -10 15l-47 5l5 36h227q121 0 181 -60t60 -164q0 -148 -83 -237t-247 -89z" />
    <glyph glyph-name="e.smcp" horiz-adv-x="482" 
d="M405 498h-186l-27 -194h206l-7 -53h-207l-28 -199h202q11 0 13 8l22 67h45l-17 -127h-398l4 36l49 5q8 1 10 3t4 12l63 437q3 14 -10 15l-47 6l4 36h382l-18 -123l-45 2l-3 59q0 10 -11 10z" />
    <glyph glyph-name="f.smcp" horiz-adv-x="455" 
d="M402 498h-182l-27 -192h203l-8 -53h-203l-28 -194q-3 -13 10 -15l112 -7l-5 -37h-250l5 36l48 5q8 1 10 3t4 12l62 437q3 14 -10 15l-47 6l5 36h379l-18 -123l-45 2l-3 59q0 10 -12 10z" />
    <glyph glyph-name="g.smcp" horiz-adv-x="561" 
d="M288 -10q-243 0 -243 258q0 128 83 220t235 92q109 0 164 -41l-16 -119l-49 3l-3 71q0 11 -8 14q-47 17 -100 17q-105 -1 -171 -73t-66 -196q0 -191 184 -191q120 0 123 25l19 136h-106l15 49h207l-6 -41l-32 -3q-13 -1 -14 -11l-25 -179q-67 -31 -191 -31z" />
    <glyph glyph-name="h.smcp" horiz-adv-x="617" 
d="M547 0h-190l6 36l48 5q8 1 10 3t4 12l29 201h-268l-29 -200q-3 -13 10 -15l51 -6l-6 -36h-189l5 36l49 5q8 1 10 3t4 12l63 438q3 14 -10 15l-47 5l5 36h189l-5 -36l-52 -6q-8 -1 -10 -3t-4 -11l-26 -184h268l26 184q3 14 -9 15l-48 5l4 36h190l-5 -36l-51 -6
q-9 -1 -11 -3t-4 -11l-62 -437q-3 -13 9 -15l51 -6z" />
    <glyph glyph-name="i.smcp" horiz-adv-x="282" 
d="M221 0h-205l4 36l57 5q8 1 10 3t4 12l63 438q3 14 -10 15l-55 5l4 36h205l-4 -36l-60 -6q-8 -1 -10 -3t-4 -11l-63 -437q-3 -9 -1 -11t11 -4l58 -6z" />
    <glyph glyph-name="j.smcp" horiz-adv-x="383" 
d="M75 62q0 -19 50 -19q50 1 65 17t21 55l55 379q1 14 -11 15l-64 5l5 36h206l-4 -36l-53 -6q-8 -1 -10 -3t-4 -11l-55 -384q-17 -120 -123 -120t-138 27l14 103l46 -4v-54z" />
    <glyph glyph-name="k.smcp" horiz-adv-x="556" 
d="M518 0h-105l-3 2l-44 78l-114 183l-74 -68l-21 -138q-3 -13 10 -15l53 -6l-6 -36h-189l5 36l47 5q12 2 14 16l63 437q3 14 -10 15l-47 5l5 36h190l-6 -36l-52 -6q-11 -1 -14 -14l-33 -222l248 235l-44 6l6 37h169l-6 -36l-40 -7q-15 -3 -25 -12l-193 -184l155 -255
q7 -10 20 -12l46 -8z" />
    <glyph glyph-name="l.smcp" horiz-adv-x="465" 
d="M359 52q11 0 13 8l22 69h46l-18 -129h-398l5 36l48 5q11 1 14 16l63 436q1 13 -10 15l-47 6l4 36h202l-5 -36l-64 -7q-12 -2 -14 -14l-65 -441h204z" />
    <glyph glyph-name="m.smcp" horiz-adv-x="717" 
d="M649 0h-204l4 36l66 5q11 -1 12 5t2 10l58 395l-202 -320h-65l-112 317l-57 -391q-3 -13 10 -15l66 -6l-4 -36h-199l4 36l49 5q11 1 14 16l63 436q2 14 -10 15l-47 6l4 36h139l122 -357l219 357h145l-4 -36l-52 -6q-9 -2 -11 -4t-4 -13l-63 -435q-1 -13 11 -14l51 -6z
" />
    <glyph glyph-name="n.smcp" horiz-adv-x="630" 
d="M503 0h-77l-216 473l-60 -416q-3 -13 10 -15l51 -6l-4 -36h-183l3 36l50 5q11 -1 12 5t2 10l63 437q3 13 -10 15l-47 6l4 36h145l212 -470l57 414q3 14 -10 15l-47 5l4 36h183l-4 -36l-53 -6q-8 -1 -10 -3t-4 -11z" />
    <glyph glyph-name="o.smcp" horiz-adv-x="586" 
d="M110 227q0 -181 163 -181q101 0 163 72t62 209q0 177 -158 177q-100 0 -165 -72t-65 -205zM280 -10q-126 0 -183 63q-56 63 -56 168q0 151 81 245t226 94q109 0 164 -62t55 -163q-1 -159 -81 -252t-206 -93z" />
    <glyph glyph-name="p.smcp" horiz-adv-x="499" 
d="M429 406q0 92 -122 92h-88l-34 -237h75q80 0 124 30t45 115zM331 550q87 0 127 -38t40 -101q0 -203 -237 -203h-83l-22 -151q-2 -9 0 -11t10 -4l109 -6l-5 -36h-247l5 36l49 5q13 1 15 16l62 437q3 14 -11 15l-47 5l5 36h230z" />
    <glyph glyph-name="q.smcp" horiz-adv-x="586" 
d="M110 227q0 -181 162 -181q100 0 163 72t63 209q0 177 -158 177q-100 0 -165 -72t-65 -205zM308 -72q-61 36 -93 37q-32 0 -74 -27l-25 45q24 15 54 26v1q-129 48 -129 204t81 252q81 94 226 94q109 0 164 -62t55 -163q0 -147 -69 -235t-203 -101v-2q96 -51 169 -51
q22 0 48 3l-3 -54q-27 -3 -83 -3q-57 0 -118 36z" />
    <glyph glyph-name="r.smcp" horiz-adv-x="517" 
d="M262 289q70 0 112 30t42 86t-32 74t-103 18h-62l-29 -208h72zM274 235h-92l-26 -178q-3 -13 10 -15l51 -6l-5 -36h-188l5 36l48 6q8 2 10 4t4 11l63 436q2 14 -10 15l-47 6l4 36h228q157 0 157 -132q0 -120 -131 -165q20 -8 26 -28q7 -21 9 -29t6 -23l29 -110
q5 -18 22 -20l45 -7l-5 -36h-111l-4 5l-53 198q-9 32 -45 32z" />
    <glyph glyph-name="s.smcp" horiz-adv-x="454" 
d="M292 504q-50 0 -90 -24t-40 -69t24 -64t62 -33q40 -14 54 -19q103 -37 103 -127q0 -91 -61 -134t-160 -43q-50 -1 -96 9t-64 20l17 123h48l4 -68q2 -29 100 -29q142 0 142 110q0 42 -26 62q-25 20 -63 32t-50 16t-30 14q-73 35 -73 115q0 81 60 123t143 42t148 -27
l-19 -128l-48 5l-3 66q-1 16 -17 22q-15 6 -65 6z" />
    <glyph glyph-name="t.smcp" horiz-adv-x="498" 
d="M141 498q-11 0 -13 -8l-22 -66h-45l17 126h455l-17 -126h-46l-3 66q0 8 -11 8h-125l-63 -439q-4 -12 10 -14l84 -6l-5 -39h-252l5 39l78 5q11 0 12 6t2 9l63 439h-124z" />
    <glyph glyph-name="u.smcp" horiz-adv-x="605" 
d="M279 -10q-177 0 -177 149q0 21 3 44l43 311q3 14 -9 15l-48 5l5 36h190l-6 -36l-51 -6q-9 -1 -11 -3t-4 -11l-43 -303q-3 -24 -3 -61t30 -60t94 -23q64 1 102 33t49 109l42 305q3 14 -10 15l-47 5l5 36h186l-6 -36l-51 -6q-9 -1 -11 -3t-4 -11l-44 -313q-14 -99 -68 -145
t-156 -46z" />
    <glyph glyph-name="v.smcp" horiz-adv-x="535" 
d="M296 0h-88l-98 493q-2 10 -17 13l-33 8l6 36h181l-5 -36l-65 -7l84 -452l204 452l-60 7l6 36h170l-5 -36l-33 -8q-18 -5 -25 -21z" />
    <glyph glyph-name="w.smcp" horiz-adv-x="751" 
d="M544 0h-87l-51 359l-155 -359h-80l-59 491q-1 13 -13 16l-45 7l7 36h188l-5 -36l-69 -7l50 -434l157 366h74l54 -374l168 442l-67 7l6 36h184l-6 -36l-41 -7q-14 -2 -20 -18z" />
    <glyph glyph-name="x.smcp" horiz-adv-x="528" 
d="M491 0h-181l5 36l59 7l-105 192l-151 -192l55 -7l-5 -36h-174l4 35l40 8q12 3 22 14l178 225l-112 211q-7 11 -17 13l-32 8l5 36h173l-6 -36l-57 -7l93 -182l147 182l-55 7l7 36h163l-5 -36l-34 -8q-12 -4 -22 -15l-170 -209l125 -225q6 -10 17 -13l38 -8z" />
    <glyph glyph-name="y.smcp" horiz-adv-x="479" 
d="M342 0h-238l4 36l74 5q11 1 13 16l23 156l-114 280q-5 10 -17 13l-33 8l6 36h173l-6 -36l-58 -7l91 -235l154 235l-56 7l5 36h164l-5 -36l-33 -8q-14 -4 -22 -16l-183 -275l-22 -158q-2 -9 0 -11t10 -4l74 -6z" />
    <glyph glyph-name="z.smcp" horiz-adv-x="490" 
d="M169 498q-11 0 -14 -8l-24 -71l-48 -2l19 133h392l-6 -46l-382 -452h256q12 0 14 8l26 82h47l-19 -142h-415l6 44l382 454h-234z" />
    <glyph glyph-name="thorn.smcp" horiz-adv-x="499" 
d="M245 167q79 1 125 31t45 113q0 91 -122 91h-89l-33 -235h74zM317 454q167 0 167 -141q0 -198 -237 -198h-84l-8 -57q-1 -10 1 -12t9 -3l109 -6l-5 -37h-247l5 37l49 5q12 2 15 15l62 437q3 13 -11 15l-47 5l5 36h194l-4 -36l-60 -6q-11 -1 -13 -14l-6 -40h106z" />
    <glyph glyph-name="agrave.smcp" horiz-adv-x="541" 
d="M408 634l-37 -32l-155 139l59 53zM364 220l-53 276l-129 -276h182zM509 0h-183l6 35l66 7l-25 127h-215l-61 -127l60 -7l-6 -35h-170l5 35l34 8q16 4 23 18l235 489h84l103 -494q1 -9 16 -13l34 -8z" />
    <glyph glyph-name="aacute.smcp" horiz-adv-x="541" 
d="M452 735l-184 -132l-29 35l166 153zM364 220l-53 276l-129 -276h182zM509 0h-183l6 35l66 7l-25 127h-215l-61 -127l60 -7l-6 -35h-170l5 35l34 8q16 4 23 18l235 489h84l103 -494q1 -9 16 -13l34 -8z" />
    <glyph glyph-name="acircumflex.smcp" horiz-adv-x="541" 
d="M487 639l-43 -33l-114 104l-144 -104l-33 33l146 120h76zM364 220l-53 276l-129 -276h182zM509 0h-183l6 35l66 7l-25 127h-215l-61 -127l60 -7l-6 -35h-170l5 35l34 8q16 4 23 18l235 489h84l103 -494q1 -9 16 -13l34 -8z" />
    <glyph glyph-name="atilde.smcp" horiz-adv-x="541" 
d="M414 617q-22 0 -35 4l-132 36q-10 3 -16 -3l-48 -41l-32 27l35 41q32 39 54 39t41 -5l129 -35q10 -3 17 3l44 39l33 -27l-28 -32q-40 -46 -62 -46zM364 220l-53 276l-129 -276h182zM509 0h-183l6 35l66 7l-25 127h-215l-61 -127l60 -7l-6 -35h-170l5 35l34 8q16 4 23 18
l235 489h84l103 -494q1 -9 16 -13l34 -8z" />
    <glyph glyph-name="adieresis.smcp" horiz-adv-x="541" 
d="M224 622q-45 0 -45 41q0 25 16 41t42 16q44 0 44 -41q1 -25 -15 -41t-42 -16zM423 622q-45 0 -45 41q0 25 16 41t42 16q44 0 44 -41q0 -25 -16 -41t-41 -16zM364 220l-53 276l-129 -276h182zM509 0h-183l6 35l66 7l-25 127h-215l-61 -127l60 -7l-6 -35h-170l5 35l34 8
q16 4 23 18l235 489h84l103 -494q1 -9 16 -13l34 -8z" />
    <glyph glyph-name="aring.smcp" horiz-adv-x="541" 
d="M322 580q19 0 31 14t12 36q0 30 -33 30q-20 0 -32 -15t-12 -35q0 -30 34 -30zM364 220l-53 276l-129 -276h182zM245 606q0 42 26 68t63 26q75 0 75 -63t-47 -87l103 -494q1 -9 16 -13l34 -8l-6 -35h-183l6 35l66 7l-25 127h-215l-61 -127l60 -7l-6 -35h-170l5 35l34 8
q16 4 23 18l234 488q-32 16 -32 57z" />
    <glyph glyph-name="ccedilla.smcp" horiz-adv-x="516" 
d="M216 -179q26 0 50 14t24 43q0 43 -67 43l20 70q-103 6 -152 69t-49 167q0 149 83 241t235 92q107 0 163 -41l-17 -120l-48 3l-3 72q0 11 -8 14q-43 17 -95 17q-108 0 -174 -72t-66 -200q0 -189 167 -189q115 0 124 30l23 69h45l-16 -113q-54 -34 -159 -39l-10 -35
q62 -16 62 -71t-38 -84t-83 -29q-44 0 -65 7l11 46q16 -4 43 -4z" />
    <glyph glyph-name="egrave.smcp" horiz-adv-x="482" 
d="M389 634l-37 -32l-155 139l59 53zM405 498h-186l-27 -194h206l-7 -53h-207l-28 -199h202q11 0 13 8l22 67h45l-17 -127h-398l4 36l49 5q8 1 10 3t4 12l63 437q3 14 -10 15l-47 6l4 36h382l-18 -123l-45 2l-3 59q0 10 -11 10z" />
    <glyph glyph-name="eacute.smcp" horiz-adv-x="482" 
d="M433 735l-184 -132l-29 35l166 153zM405 498h-186l-27 -194h206l-7 -53h-207l-28 -199h202q11 0 13 8l22 67h45l-17 -127h-398l4 36l49 5q8 1 10 3t4 12l63 437q3 14 -10 15l-47 6l4 36h382l-18 -123l-45 2l-3 59q0 10 -11 10z" />
    </font>
</defs>
</svg>
